<?xml version="1.0" encoding="utf-8" standalone="no"?>
<!DOCTYPE svg PUBLIC "-//W3C//DTD SVG 1.1//EN"
  "http://www.w3.org/Graphics/SVG/1.1/DTD/svg11.dtd">
<!-- Created with matplotlib (https://matplotlib.org/) -->
<svg height="410.4pt" version="1.1" viewBox="0 0 590.4 410.4" width="590.4pt" xmlns="http://www.w3.org/2000/svg" xmlns:xlink="http://www.w3.org/1999/xlink">
 <defs>
  <style type="text/css">
*{stroke-linecap:butt;stroke-linejoin:round;}
  </style>
 </defs>
 <g id="figure_1">
  <g id="patch_1">
   <path d="M 0 410.4 
L 590.4 410.4 
L 590.4 0 
L 0 0 
z
" style="fill:none;"/>
  </g>
  <g id="axes_1">
   <g id="line2d_1">
    <path clip-path="url(#p64cb0a19d5)" d="M 33.381818 385.157612 
L 37.895925 385.150128 
L 42.410031 385.128132 
L 46.924138 385.090174 
L 51.438245 385.038239 
L 55.952351 384.976452 
L 60.466458 384.773983 
L 64.980564 384.729152 
L 69.494671 384.571057 
L 74.008777 384.441984 
L 78.522884 384.280605 
L 83.036991 383.917903 
L 87.551097 383.6816 
L 92.065204 383.375262 
L 96.57931 383.089316 
L 101.093417 382.846293 
L 105.607524 382.573331 
L 110.12163 382.364905 
L 114.635737 382.133491 
L 119.149843 381.934001 
L 123.66395 381.778197 
L 128.178056 381.746196 
L 132.692163 380.589276 
L 137.20627 380.091544 
L 141.720376 379.927721 
L 146.234483 379.760155 
L 150.748589 379.60481 
L 155.262696 379.461379 
L 159.776803 379.422962 
L 164.290909 379.380345 
L 168.805016 379.33116 
L 173.319122 379.197047 
L 177.833229 379.167566 
L 182.347335 379.122887 
L 186.861442 379.058351 
L 191.375549 378.983351 
L 195.889655 378.879558 
L 200.403762 378.775078 
L 204.917868 378.630807 
L 209.431975 378.450716 
L 213.946082 378.302702 
L 218.460188 378.109093 
L 222.974295 377.93496 
L 227.488401 377.724013 
L 232.002508 377.425084 
L 236.516614 377.116837 
L 241.030721 376.811415 
L 245.544828 376.52524 
L 250.058934 376.143368 
L 254.573041 375.587133 
L 259.087147 375.397878 
L 263.601254 374.110969 
L 268.115361 373.278029 
L 272.629467 372.411332 
L 277.143574 371.334529 
L 281.65768 370.141408 
L 286.171787 368.785991 
L 290.685893 366.662935 
L 295.2 364.413403 
L 299.714107 361.940246 
L 304.228213 359.452502 
L 308.74232 356.308855 
L 313.256426 353.278394 
L 317.770533 349.487779 
L 322.284639 344.752794 
L 326.798746 339.887743 
L 331.312853 334.739954 
L 335.826959 330.199724 
L 340.341066 325.445493 
L 344.855172 319.709927 
L 349.369279 313.972833 
L 353.883386 307.80957 
L 358.397492 301.499973 
L 362.911599 293.748657 
L 367.425705 288.042953 
L 371.939812 282.468689 
L 376.453918 276.282743 
L 380.968025 269.790306 
L 385.482132 263.356067 
L 389.996238 255.99594 
L 394.510345 249.901643 
L 399.024451 244.160884 
L 403.538558 238.765794 
L 408.052665 234.26948 
L 412.566771 228.169989 
L 417.080878 220.792831 
L 421.594984 214.106709 
L 426.109091 208.182498 
L 430.623197 201.796068 
L 435.137304 196.382649 
L 439.651411 190.512206 
L 444.165517 184.796573 
L 448.679624 178.310476 
L 453.19373 170.533268 
L 457.707837 163.9627 
L 462.221944 158.255316 
L 466.73605 152.887035 
L 471.250157 147.186906 
L 475.764263 141.268805 
L 480.27837 136.460271 
L 484.792476 129.820966 
L 489.306583 123.438662 
L 493.82069 117.375602 
L 498.334796 111.546248 
L 502.848903 105.464094 
L 507.363009 98.388004 
L 511.877116 91.485513 
L 516.391223 84.432641 
L 520.905329 77.868641 
L 525.419436 71.935112 
L 529.933542 66.145549 
L 534.447649 59.695653 
L 538.961755 53.199016 
L 543.475862 45.932371 
L 547.989969 38.280876 
L 552.504075 31.275738 
L 557.018182 25.2 
" style="fill:none;stroke:#1f77b4;stroke-linecap:round;stroke-width:1.75;"/>
   </g>
   <g id="line2d_2">
    <path clip-path="url(#p64cb0a19d5)" d="M 33.381818 385.198702 
L 37.895925 385.198625 
L 42.410031 385.198014 
L 46.924138 385.196792 
L 51.438245 385.195723 
L 55.952351 385.193737 
L 60.466458 385.189995 
L 64.980564 385.189842 
L 69.494671 385.18694 
L 74.008777 385.183732 
L 78.522884 385.180219 
L 83.036991 385.172352 
L 87.551097 385.167464 
L 92.065204 385.162424 
L 96.57931 385.156925 
L 101.093417 385.151579 
L 105.607524 385.145087 
L 110.12163 385.138442 
L 114.635737 385.130805 
L 119.149843 385.122633 
L 123.66395 385.114995 
L 128.178056 385.114613 
L 132.692163 385.095291 
L 137.20627 385.083682 
L 141.720376 385.07276 
L 146.234483 385.064817 
L 150.748589 385.057333 
L 155.262696 385.046717 
L 159.776803 385.037933 
L 164.290909 385.028387 
L 168.805016 385.028081 
L 173.319122 385.012272 
L 177.833229 385.011432 
L 182.347335 384.999212 
L 186.861442 384.993178 
L 191.375549 384.988443 
L 195.889655 384.985082 
L 200.403762 384.980653 
L 204.917868 384.975383 
L 209.431975 384.971182 
L 213.946082 384.964385 
L 218.460188 384.958657 
L 222.974295 384.951478 
L 227.488401 384.944298 
L 232.002508 384.935745 
L 236.516614 384.92826 
L 241.030721 384.909548 
L 245.544828 384.894808 
L 250.058934 384.874492 
L 254.573041 384.847532 
L 259.087147 384.839513 
L 263.601254 384.787273 
L 268.115361 384.755577 
L 272.629467 384.708149 
L 277.143574 384.655756 
L 281.65768 384.59626 
L 286.171787 384.533022 
L 290.685893 384.446414 
L 295.2 384.337045 
L 299.714107 384.209195 
L 304.228213 384.083177 
L 308.74232 383.940051 
L 313.256426 383.77829 
L 317.770533 383.582313 
L 322.284639 383.369305 
L 326.798746 383.122768 
L 331.312853 382.858971 
L 335.826959 382.608998 
L 340.341066 382.329696 
L 344.855172 381.984102 
L 349.369279 381.62499 
L 353.883386 381.153454 
L 358.397492 380.710177 
L 362.911599 380.265754 
L 367.425705 379.901601 
L 371.939812 379.505141 
L 376.453918 378.947608 
L 380.968025 378.453236 
L 385.482132 377.90968 
L 389.996238 377.369712 
L 394.510345 376.913223 
L 399.024451 376.486519 
L 403.538558 376.074631 
L 408.052665 375.578045 
L 412.566771 374.952309 
L 417.080878 374.217282 
L 421.594984 373.451934 
L 426.109091 373.017516 
L 430.623197 372.59486 
L 435.137304 372.217418 
L 439.651411 371.713576 
L 444.165517 371.21844 
L 448.679624 370.623331 
L 453.19373 370.142706 
L 457.707837 369.707754 
L 462.221944 369.425322 
L 466.73605 369.072243 
L 471.250157 368.615065 
L 475.764263 367.814279 
L 480.27837 367.375127 
L 484.792476 366.973244 
L 489.306583 366.579305 
L 493.82069 366.299622 
L 498.334796 365.989007 
L 502.848903 365.55352 
L 507.363009 365.05006 
L 511.877116 364.611976 
L 516.391223 364.204824 
L 520.905329 363.867784 
L 525.419436 363.608264 
L 529.933542 363.331712 
L 534.447649 362.901418 
L 538.961755 362.501751 
L 543.475862 362.103 
L 547.989969 361.702187 
L 552.504075 361.387907 
L 557.018182 361.127928 
" style="fill:none;stroke:#ff7f0e;stroke-linecap:round;stroke-width:1.75;"/>
   </g>
   <g id="line2d_3">
    <path clip-path="url(#p64cb0a19d5)" d="M 33.381818 385.197862 
L 37.895925 385.197709 
L 42.410031 385.197251 
L 46.924138 385.197021 
L 51.438245 385.196029 
L 55.952351 385.195341 
L 60.466458 385.191828 
L 64.980564 385.190377 
L 69.494671 385.189078 
L 74.008777 385.183045 
L 78.522884 385.17831 
L 83.036991 385.163951 
L 87.551097 385.152419 
L 92.065204 385.134929 
L 96.57931 385.114155 
L 101.093417 385.086431 
L 105.607524 385.046411 
L 110.12163 385.000205 
L 114.635737 384.952241 
L 119.149843 384.898627 
L 123.66395 384.842339 
L 128.178056 384.806672 
L 132.692163 384.719223 
L 137.20627 384.584575 
L 141.720376 384.482462 
L 146.234483 384.370192 
L 150.748589 384.238981 
L 155.262696 384.103874 
L 159.776803 383.968768 
L 164.290909 383.811742 
L 168.805016 383.757287 
L 173.319122 383.452095 
L 177.833229 383.413297 
L 182.347335 383.273302 
L 186.861442 383.068772 
L 191.375549 382.87944 
L 195.889655 382.658488 
L 200.403762 382.396219 
L 204.917868 382.161673 
L 209.431975 381.93759 
L 213.946082 381.717174 
L 218.460188 381.516538 
L 222.974295 381.291844 
L 227.488401 381.091285 
L 232.002508 380.933267 
L 236.516614 380.742865 
L 241.030721 380.564454 
L 245.544828 380.425682 
L 250.058934 380.281182 
L 254.573041 380.082685 
L 259.087147 379.981794 
L 263.601254 379.834621 
L 268.115361 379.653384 
L 272.629467 379.392947 
L 277.143574 379.236074 
L 281.65768 379.025892 
L 286.171787 378.837018 
L 290.685893 378.711076 
L 295.2 378.524646 
L 299.714107 378.198299 
L 304.228213 377.773122 
L 308.74232 377.489391 
L 313.256426 376.974551 
L 317.770533 376.51134 
L 322.284639 375.871323 
L 326.798746 375.201901 
L 331.312853 374.552718 
L 335.826959 373.814407 
L 340.341066 372.631825 
L 344.855172 371.603215 
L 349.369279 370.446677 
L 353.883386 369.141285 
L 358.397492 367.954961 
L 362.911599 366.400283 
L 367.425705 365.341734 
L 371.939812 364.081327 
L 376.453918 362.283549 
L 380.968025 360.098706 
L 385.482132 358.165364 
L 389.996238 356.475886 
L 394.510345 354.489081 
L 399.024451 352.991226 
L 403.538558 350.934234 
L 408.052665 348.978591 
L 412.566771 346.17122 
L 417.080878 343.796892 
L 421.594984 341.793132 
L 426.109091 339.961979 
L 430.623197 337.549769 
L 435.137304 335.882134 
L 439.651411 333.279217 
L 444.165517 330.997531 
L 448.679624 328.798559 
L 453.19373 324.603007 
L 457.707837 322.826156 
L 462.221944 319.080143 
L 466.73605 316.923788 
L 471.250157 314.274283 
L 475.764263 310.909149 
L 480.27837 307.698827 
L 484.792476 304.75276 
L 489.306583 301.714204 
L 493.82069 299.260752 
L 498.334796 296.397627 
L 502.848903 293.6399 
L 507.363009 290.082303 
L 511.877116 287.07865 
L 516.391223 284.229196 
L 520.905329 280.137513 
L 525.419436 277.589968 
L 529.933542 273.98288 
L 534.447649 271.14137 
L 538.961755 266.930619 
L 543.475862 263.925591 
L 547.989969 260.169955 
L 552.504075 255.883059 
L 557.018182 252.769579 
" style="fill:none;stroke:#2ca02c;stroke-linecap:round;stroke-width:1.75;"/>
   </g>
   <g id="line2d_4">
    <path clip-path="url(#p64cb0a19d5)" d="M 33.381818 385.169527 
L 37.895925 385.169527 
L 42.410031 385.162271 
L 46.924138 385.147378 
L 51.438245 385.123473 
L 55.952351 385.090937 
L 60.466458 384.932995 
L 64.980564 384.906264 
L 69.494671 384.793383 
L 74.008777 384.719529 
L 78.522884 384.322076 
L 83.036991 383.981599 
L 87.551097 383.761717 
L 92.065204 383.47791 
L 96.57931 383.218237 
L 101.093417 383.008283 
L 105.607524 382.781833 
L 110.12163 382.626258 
L 114.635737 382.450444 
L 119.149843 382.312741 
L 123.66395 382.220863 
L 128.178056 382.224911 
L 132.692163 381.174762 
L 137.20627 380.823287 
L 141.720376 380.772498 
L 146.234483 380.725146 
L 150.748589 380.708497 
L 155.262696 380.710788 
L 159.776803 380.816261 
L 164.290909 380.940217 
L 168.805016 380.945792 
L 173.319122 381.13268 
L 177.833229 381.142838 
L 182.347335 381.250373 
L 186.861442 381.396401 
L 191.375549 381.515469 
L 195.889655 381.635988 
L 200.403762 381.798207 
L 204.917868 381.893751 
L 209.431975 381.941944 
L 213.946082 382.021144 
L 218.460188 382.033898 
L 222.974295 382.091637 
L 227.488401 382.08843 
L 232.002508 381.956073 
L 236.516614 381.845712 
L 241.030721 381.737413 
L 245.544828 381.60475 
L 250.058934 381.387694 
L 254.573041 381.056917 
L 259.087147 380.976571 
L 263.601254 379.889075 
L 268.115361 379.269068 
L 272.629467 378.710236 
L 277.143574 377.842699 
L 281.65768 376.919256 
L 286.171787 375.815951 
L 290.685893 373.905445 
L 295.2 371.951711 
L 299.714107 369.932753 
L 304.228213 367.996203 
L 308.74232 365.279412 
L 313.256426 362.925553 
L 317.770533 359.794125 
L 322.284639 355.912166 
L 326.798746 351.963074 
L 331.312853 347.728265 
L 335.826959 344.17632 
L 340.341066 340.883971 
L 344.855172 336.52261 
L 349.369279 332.301166 
L 353.883386 327.914831 
L 358.397492 323.234835 
L 362.911599 317.482619 
L 367.425705 313.199618 
L 371.939812 309.282221 
L 376.453918 305.451586 
L 380.968025 301.638364 
L 385.482132 297.681023 
L 389.996238 292.550342 
L 394.510345 288.899339 
L 399.024451 285.083139 
L 403.538558 282.156929 
L 408.052665 280.112844 
L 412.566771 277.44646 
L 417.080878 273.178658 
L 421.594984 269.261643 
L 426.109091 265.603002 
L 430.623197 262.051439 
L 435.137304 258.683098 
L 439.651411 255.919413 
L 444.165517 252.980602 
L 448.679624 249.288586 
L 453.19373 246.187555 
L 457.707837 241.828791 
L 462.221944 240.149852 
L 466.73605 237.291004 
L 471.250157 234.697558 
L 475.764263 232.945376 
L 480.27837 231.786318 
L 484.792476 228.494962 
L 489.306583 225.545153 
L 493.82069 222.215228 
L 498.334796 219.559613 
L 502.848903 216.670674 
L 507.363009 213.655641 
L 511.877116 210.194887 
L 516.391223 206.39862 
L 520.905329 204.263344 
L 525.419436 201.136881 
L 529.933542 199.230957 
L 534.447649 196.052865 
L 538.961755 194.166646 
L 543.475862 190.30378 
L 547.989969 186.808734 
L 552.504075 184.404773 
L 557.018182 181.702493 
" style="fill:none;stroke:#d62728;stroke-linecap:round;stroke-width:1.75;"/>
   </g>
   <g id="line2d_5">
    <path clip-path="url(#p64cb0a19d5)" d="M 33.381818 385.2 
L 37.895925 385.192744 
L 42.410031 385.178157 
L 46.924138 385.162118 
L 51.438245 385.148142 
L 55.952351 385.138442 
L 60.466458 384.997761 
L 64.980564 385.15555 
L 69.494671 385.041981 
L 74.008777 385.071462 
L 78.522884 385.038697 
L 83.036991 384.837298 
L 87.551097 384.963698 
L 92.065204 384.893739 
L 96.57931 384.914054 
L 101.093417 384.956977 
L 105.607524 384.931697 
L 110.12163 384.991574 
L 114.635737 384.968586 
L 119.149843 385.00051 
L 123.66395 385.044196 
L 128.178056 385.167999 
L 132.692163 384.04308 
L 137.20627 384.702344 
L 141.720376 385.036177 
L 146.234483 385.032435 
L 150.748589 385.044654 
L 155.262696 385.056569 
L 159.776803 385.161736 
L 164.290909 385.157383 
L 168.805016 385.150968 
L 173.319122 385.065887 
L 177.833229 385.170519 
L 182.347335 385.155703 
L 186.861442 385.135845 
L 191.375549 385.125535 
L 195.889655 385.096513 
L 200.403762 385.096054 
L 204.917868 385.055881 
L 209.431975 385.020826 
L 213.946082 385.052674 
L 218.460188 385.006696 
L 222.974295 385.02663 
L 227.488401 384.989741 
L 232.002508 384.901682 
L 236.516614 384.892517 
L 241.030721 384.895572 
L 245.544828 384.91436 
L 250.058934 384.818586 
L 254.573041 384.637655 
L 259.087147 385.01105 
L 263.601254 383.914084 
L 268.115361 384.369123 
L 272.629467 384.333303 
L 277.143574 384.124419 
L 281.65768 384.007261 
L 286.171787 383.845271 
L 290.685893 383.077249 
L 295.2 382.950926 
L 299.714107 382.727149 
L 304.228213 382.700494 
L 308.74232 382.056429 
L 313.256426 382.11539 
L 317.770533 381.464222 
L 322.284639 380.465168 
L 326.798746 380.33556 
L 331.312853 380.052364 
L 335.826959 380.65977 
L 340.341066 380.445998 
L 344.855172 379.464663 
L 349.369279 379.462906 
L 353.883386 379.036966 
L 358.397492 378.890404 
L 362.911599 377.448684 
L 367.425705 379.494678 
L 371.939812 379.626042 
L 376.453918 379.014054 
L 380.968025 378.707563 
L 385.482132 378.76576 
L 389.996238 377.83995 
L 394.510345 379.105703 
L 399.024451 379.45924 
L 403.538558 379.804911 
L 408.052665 380.703685 
L 412.566771 379.10051 
L 417.080878 377.822842 
L 421.594984 378.513878 
L 426.109091 379.275789 
L 430.623197 378.813571 
L 435.137304 379.786581 
L 439.651411 379.329556 
L 444.165517 379.484367 
L 448.679624 378.713902 
L 453.19373 377.422793 
L 457.707837 378.629432 
L 462.221944 379.492616 
L 466.73605 379.831718 
L 471.250157 379.499871 
L 475.764263 379.281899 
L 480.27837 380.392688 
L 484.792476 378.560695 
L 489.306583 378.817695 
L 493.82069 379.13694 
L 498.334796 379.370646 
L 502.848903 379.117847 
L 507.363009 378.12391 
L 511.877116 378.297509 
L 516.391223 378.147128 
L 520.905329 378.636 
L 525.419436 379.266471 
L 529.933542 379.410437 
L 534.447649 378.750104 
L 538.961755 378.703439 
L 543.475862 377.933356 
L 547.989969 377.548505 
L 552.504075 378.194862 
L 557.018182 379.124262 
" style="fill:none;stroke:#9467bd;stroke-linecap:round;stroke-width:1.75;"/>
   </g>
   <g id="line2d_6">
    <path clip-path="url(#p64cb0a19d5)" d="M 33.381818 385.2 
L 37.895925 385.199924 
L 42.410031 385.199389 
L 46.924138 385.198778 
L 51.438245 385.198931 
L 55.952351 385.198014 
L 60.466458 385.196258 
L 64.980564 385.199847 
L 69.494671 385.197098 
L 74.008777 385.196792 
L 78.522884 385.196487 
L 83.036991 385.192133 
L 87.551097 385.195112 
L 92.065204 385.194959 
L 96.57931 385.194501 
L 101.093417 385.194654 
L 105.607524 385.193508 
L 110.12163 385.193355 
L 114.635737 385.192363 
L 119.149843 385.191828 
L 123.66395 385.192363 
L 128.178056 385.199618 
L 132.692163 385.180677 
L 137.20627 385.188391 
L 141.720376 385.189078 
L 146.234483 385.192057 
L 150.748589 385.192515 
L 155.262696 385.189384 
L 159.776803 385.19137 
L 164.290909 385.190453 
L 168.805016 385.199695 
L 173.319122 385.18419 
L 177.833229 385.19916 
L 182.347335 385.18778 
L 186.861442 385.193966 
L 191.375549 385.195265 
L 195.889655 385.19664 
L 200.403762 385.19557 
L 204.917868 385.19473 
L 209.431975 385.195799 
L 213.946082 385.193203 
L 218.460188 385.194272 
L 222.974295 385.192821 
L 227.488401 385.192821 
L 232.002508 385.191446 
L 236.516614 385.192515 
L 241.030721 385.181288 
L 245.544828 385.18526 
L 250.058934 385.179684 
L 254.573041 385.172811 
L 259.087147 385.192057 
L 263.601254 385.147836 
L 268.115361 385.168305 
L 272.629467 385.152571 
L 277.143574 385.147607 
L 281.65768 385.140504 
L 286.171787 385.136762 
L 290.685893 385.113391 
L 295.2 385.090632 
L 299.714107 385.072149 
L 304.228213 385.073906 
L 308.74232 385.056874 
L 313.256426 385.037628 
L 317.770533 385.004787 
L 322.284639 384.986992 
L 326.798746 384.953463 
L 331.312853 384.936203 
L 335.826959 384.950027 
L 340.341066 384.920699 
L 344.855172 384.854406 
L 349.369279 384.840887 
L 353.883386 384.728464 
L 358.397492 384.756723 
L 362.911599 384.755577 
L 367.425705 384.835847 
L 371.939812 384.80354 
L 376.453918 384.642467 
L 380.968025 384.705628 
L 385.482132 384.656443 
L 389.996238 384.660033 
L 394.510345 384.74351 
L 399.024451 384.773296 
L 403.538558 384.788113 
L 408.052665 384.703414 
L 412.566771 384.574264 
L 417.080878 384.464973 
L 421.594984 384.434652 
L 426.109091 384.765582 
L 430.623197 384.777344 
L 435.137304 384.822558 
L 439.651411 384.696158 
L 444.165517 384.704865 
L 448.679624 384.604891 
L 453.19373 384.719376 
L 457.707837 384.765048 
L 462.221944 384.917567 
L 466.73605 384.846921 
L 471.250157 384.742823 
L 475.764263 384.399214 
L 480.27837 384.760847 
L 484.792476 384.798118 
L 489.306583 384.806061 
L 493.82069 384.920317 
L 498.334796 384.889385 
L 502.848903 384.764513 
L 507.363009 384.69654 
L 511.877116 384.761916 
L 516.391223 384.792848 
L 520.905329 384.86296 
L 525.419436 384.94048 
L 529.933542 384.923448 
L 534.447649 384.769707 
L 538.961755 384.800333 
L 543.475862 384.801249 
L 547.989969 384.799187 
L 552.504075 384.885719 
L 557.018182 384.940021 
" style="fill:none;stroke:#8c564b;stroke-linecap:round;stroke-width:1.75;"/>
   </g>
   <g id="line2d_7">
    <path clip-path="url(#p64cb0a19d5)" d="M 33.381818 385.2 
L 37.895925 385.199847 
L 42.410031 385.199542 
L 46.924138 385.199771 
L 51.438245 385.199007 
L 55.952351 385.199313 
L 60.466458 385.196487 
L 64.980564 385.198549 
L 69.494671 385.198702 
L 74.008777 385.193966 
L 78.522884 385.195265 
L 83.036991 385.185642 
L 87.551097 385.188467 
L 92.065204 385.18251 
L 96.57931 385.179226 
L 101.093417 385.172276 
L 105.607524 385.15998 
L 110.12163 385.153793 
L 114.635737 385.152037 
L 119.149843 385.146385 
L 123.66395 385.143712 
L 128.178056 385.164333 
L 132.692163 385.112551 
L 137.20627 385.065352 
L 141.720376 385.097887 
L 146.234483 385.08773 
L 150.748589 385.068789 
L 155.262696 385.064894 
L 159.776803 385.064894 
L 164.290909 385.042974 
L 168.805016 385.145545 
L 173.319122 384.894808 
L 177.833229 385.161202 
L 182.347335 385.060006 
L 186.861442 384.995469 
L 191.375549 385.010668 
L 195.889655 384.979049 
L 200.403762 384.93773 
L 204.917868 384.965454 
L 209.431975 384.975917 
L 213.946082 384.979583 
L 218.460188 384.999364 
L 222.974295 384.975306 
L 227.488401 384.999441 
L 232.002508 385.041981 
L 236.516614 385.009599 
L 241.030721 385.021589 
L 245.544828 385.061228 
L 250.058934 385.055652 
L 254.573041 384.995546 
L 259.087147 385.099109 
L 263.601254 385.052826 
L 268.115361 385.018763 
L 272.629467 384.939563 
L 277.143574 385.043127 
L 281.65768 384.989818 
L 286.171787 385.011126 
L 290.685893 385.074059 
L 295.2 385.01357 
L 299.714107 384.873652 
L 304.228213 384.774365 
L 308.74232 384.916269 
L 313.256426 384.641856 
L 317.770533 384.781621 
L 322.284639 384.559982 
L 326.798746 384.530578 
L 331.312853 384.550817 
L 335.826959 384.461688 
L 340.341066 384.017418 
L 344.855172 384.171389 
L 349.369279 384.043462 
L 353.883386 383.894608 
L 358.397492 384.013676 
L 362.911599 383.645322 
L 367.425705 384.141451 
L 371.939812 383.939593 
L 376.453918 383.402222 
L 380.968025 383.015157 
L 385.482132 383.266658 
L 389.996238 383.510521 
L 394.510345 383.213196 
L 399.024451 383.702145 
L 403.538558 383.143008 
L 408.052665 383.244357 
L 412.566771 382.392629 
L 417.080878 382.825672 
L 421.594984 383.196241 
L 426.109091 383.368847 
L 430.623197 382.78779 
L 435.137304 383.532365 
L 439.651411 382.597083 
L 444.165517 382.918314 
L 448.679624 383.001028 
L 453.19373 381.004448 
L 457.707837 383.423149 
L 462.221944 381.453987 
L 466.73605 383.043645 
L 471.250157 382.550495 
L 475.764263 381.834867 
L 480.27837 381.989678 
L 484.792476 382.253933 
L 489.306583 382.161444 
L 493.82069 382.746548 
L 498.334796 382.336876 
L 502.848903 382.442272 
L 507.363009 381.642403 
L 511.877116 382.196347 
L 516.391223 382.350547 
L 520.905329 381.108317 
L 525.419436 382.652455 
L 529.933542 381.592912 
L 534.447649 382.35849 
L 538.961755 380.989249 
L 543.475862 382.194972 
L 547.989969 381.444364 
L 552.504075 380.913104 
L 557.018182 382.08652 
" style="fill:none;stroke:#e377c2;stroke-linecap:round;stroke-width:1.75;"/>
   </g>
   <g id="legend_1">
    <g id="patch_2">
     <path d="M 14.2 114.339063 
L 114.56875 114.339063 
Q 116.56875 114.339063 116.56875 112.339063 
L 116.56875 14.2 
Q 116.56875 12.2 114.56875 12.2 
L 14.2 12.2 
Q 12.2 12.2 12.2 14.2 
L 12.2 112.339063 
Q 12.2 114.339063 14.2 114.339063 
z
" style="fill:#ffffff;opacity:0.8;stroke:#cccccc;stroke-linejoin:miter;stroke-width:0.3;"/>
    </g>
    <g id="line2d_8">
     <path d="M 16.2 19.857813 
L 36.2 19.857813 
" style="fill:none;stroke:#1f77b4;stroke-linecap:round;stroke-width:1.75;"/>
    </g>
    <g id="line2d_9"/>
    <g id="text_1">
     <!-- confirmed -->
     <defs>
      <path d="M 40.4375 19 
L 49.078125 17.875 
Q 47.65625 8.9375 41.8125 3.875 
Q 35.984375 -1.171875 27.484375 -1.171875 
Q 16.84375 -1.171875 10.375 5.78125 
Q 3.90625 12.75 3.90625 25.734375 
Q 3.90625 34.125 6.6875 40.421875 
Q 9.46875 46.734375 15.15625 49.875 
Q 20.84375 53.03125 27.546875 53.03125 
Q 35.984375 53.03125 41.359375 48.75 
Q 46.734375 44.484375 48.25 36.625 
L 39.703125 35.296875 
Q 38.484375 40.53125 35.375 43.15625 
Q 32.28125 45.796875 27.875 45.796875 
Q 21.234375 45.796875 17.078125 41.03125 
Q 12.9375 36.28125 12.9375 25.984375 
Q 12.9375 15.53125 16.9375 10.796875 
Q 20.953125 6.0625 27.390625 6.0625 
Q 32.5625 6.0625 36.03125 9.234375 
Q 39.5 12.40625 40.4375 19 
z
" id="ArialMT-99"/>
      <path d="M 3.328125 25.921875 
Q 3.328125 40.328125 11.328125 47.265625 
Q 18.015625 53.03125 27.640625 53.03125 
Q 38.328125 53.03125 45.109375 46.015625 
Q 51.90625 39.015625 51.90625 26.65625 
Q 51.90625 16.65625 48.90625 10.90625 
Q 45.90625 5.171875 40.15625 2 
Q 34.421875 -1.171875 27.640625 -1.171875 
Q 16.75 -1.171875 10.03125 5.8125 
Q 3.328125 12.796875 3.328125 25.921875 
z
M 12.359375 25.921875 
Q 12.359375 15.96875 16.703125 11.015625 
Q 21.046875 6.0625 27.640625 6.0625 
Q 34.1875 6.0625 38.53125 11.03125 
Q 42.875 16.015625 42.875 26.21875 
Q 42.875 35.84375 38.5 40.796875 
Q 34.125 45.75 27.640625 45.75 
Q 21.046875 45.75 16.703125 40.8125 
Q 12.359375 35.890625 12.359375 25.921875 
z
" id="ArialMT-111"/>
      <path d="M 6.59375 0 
L 6.59375 51.859375 
L 14.5 51.859375 
L 14.5 44.484375 
Q 20.21875 53.03125 31 53.03125 
Q 35.6875 53.03125 39.625 51.34375 
Q 43.5625 49.65625 45.515625 46.921875 
Q 47.46875 44.1875 48.25 40.4375 
Q 48.734375 37.984375 48.734375 31.890625 
L 48.734375 0 
L 39.9375 0 
L 39.9375 31.546875 
Q 39.9375 36.921875 38.90625 39.578125 
Q 37.890625 42.234375 35.28125 43.8125 
Q 32.671875 45.40625 29.15625 45.40625 
Q 23.53125 45.40625 19.453125 41.84375 
Q 15.375 38.28125 15.375 28.328125 
L 15.375 0 
z
" id="ArialMT-110"/>
      <path d="M 8.6875 0 
L 8.6875 45.015625 
L 0.921875 45.015625 
L 0.921875 51.859375 
L 8.6875 51.859375 
L 8.6875 57.375 
Q 8.6875 62.59375 9.625 65.140625 
Q 10.890625 68.5625 14.078125 70.671875 
Q 17.28125 72.796875 23.046875 72.796875 
Q 26.765625 72.796875 31.25 71.921875 
L 29.9375 64.265625 
Q 27.203125 64.75 24.75 64.75 
Q 20.75 64.75 19.09375 63.03125 
Q 17.4375 61.328125 17.4375 56.640625 
L 17.4375 51.859375 
L 27.546875 51.859375 
L 27.546875 45.015625 
L 17.4375 45.015625 
L 17.4375 0 
z
" id="ArialMT-102"/>
      <path d="M 6.640625 61.46875 
L 6.640625 71.578125 
L 15.4375 71.578125 
L 15.4375 61.46875 
z
M 6.640625 0 
L 6.640625 51.859375 
L 15.4375 51.859375 
L 15.4375 0 
z
" id="ArialMT-105"/>
      <path d="M 6.5 0 
L 6.5 51.859375 
L 14.40625 51.859375 
L 14.40625 44 
Q 17.4375 49.515625 20 51.265625 
Q 22.5625 53.03125 25.640625 53.03125 
Q 30.078125 53.03125 34.671875 50.203125 
L 31.640625 42.046875 
Q 28.421875 43.953125 25.203125 43.953125 
Q 22.3125 43.953125 20.015625 42.21875 
Q 17.71875 40.484375 16.75 37.40625 
Q 15.28125 32.71875 15.28125 27.15625 
L 15.28125 0 
z
" id="ArialMT-114"/>
      <path d="M 6.59375 0 
L 6.59375 51.859375 
L 14.453125 51.859375 
L 14.453125 44.578125 
Q 16.890625 48.390625 20.9375 50.703125 
Q 25 53.03125 30.171875 53.03125 
Q 35.9375 53.03125 39.625 50.640625 
Q 43.3125 48.25 44.828125 43.953125 
Q 50.984375 53.03125 60.84375 53.03125 
Q 68.5625 53.03125 72.703125 48.75 
Q 76.859375 44.484375 76.859375 35.59375 
L 76.859375 0 
L 68.109375 0 
L 68.109375 32.671875 
Q 68.109375 37.9375 67.25 40.25 
Q 66.40625 42.578125 64.15625 43.984375 
Q 61.921875 45.40625 58.890625 45.40625 
Q 53.421875 45.40625 49.796875 41.765625 
Q 46.1875 38.140625 46.1875 30.125 
L 46.1875 0 
L 37.40625 0 
L 37.40625 33.6875 
Q 37.40625 39.546875 35.25 42.46875 
Q 33.109375 45.40625 28.21875 45.40625 
Q 24.515625 45.40625 21.359375 43.453125 
Q 18.21875 41.5 16.796875 37.734375 
Q 15.375 33.984375 15.375 26.90625 
L 15.375 0 
z
" id="ArialMT-109"/>
      <path d="M 42.09375 16.703125 
L 51.171875 15.578125 
Q 49.03125 7.625 43.21875 3.21875 
Q 37.40625 -1.171875 28.375 -1.171875 
Q 17 -1.171875 10.328125 5.828125 
Q 3.65625 12.84375 3.65625 25.484375 
Q 3.65625 38.578125 10.390625 45.796875 
Q 17.140625 53.03125 27.875 53.03125 
Q 38.28125 53.03125 44.875 45.953125 
Q 51.46875 38.875 51.46875 26.03125 
Q 51.46875 25.25 51.421875 23.6875 
L 12.75 23.6875 
Q 13.234375 15.140625 17.578125 10.59375 
Q 21.921875 6.0625 28.421875 6.0625 
Q 33.25 6.0625 36.671875 8.59375 
Q 40.09375 11.140625 42.09375 16.703125 
z
M 13.234375 30.90625 
L 42.1875 30.90625 
Q 41.609375 37.453125 38.875 40.71875 
Q 34.671875 45.796875 27.984375 45.796875 
Q 21.921875 45.796875 17.796875 41.75 
Q 13.671875 37.703125 13.234375 30.90625 
z
" id="ArialMT-101"/>
      <path d="M 40.234375 0 
L 40.234375 6.546875 
Q 35.296875 -1.171875 25.734375 -1.171875 
Q 19.53125 -1.171875 14.328125 2.25 
Q 9.125 5.671875 6.265625 11.796875 
Q 3.421875 17.921875 3.421875 25.875 
Q 3.421875 33.640625 6 39.96875 
Q 8.59375 46.296875 13.765625 49.65625 
Q 18.953125 53.03125 25.34375 53.03125 
Q 30.03125 53.03125 33.6875 51.046875 
Q 37.359375 49.078125 39.65625 45.90625 
L 39.65625 71.578125 
L 48.390625 71.578125 
L 48.390625 0 
z
M 12.453125 25.875 
Q 12.453125 15.921875 16.640625 10.984375 
Q 20.84375 6.0625 26.5625 6.0625 
Q 32.328125 6.0625 36.34375 10.765625 
Q 40.375 15.484375 40.375 25.140625 
Q 40.375 35.796875 36.265625 40.765625 
Q 32.171875 45.75 26.171875 45.75 
Q 20.3125 45.75 16.375 40.96875 
Q 12.453125 36.1875 12.453125 25.875 
z
" id="ArialMT-100"/>
     </defs>
     <g style="fill:#262626;" transform="translate(44.2 23.357813)scale(0.1 -0.1)">
      <use xlink:href="#ArialMT-99"/>
      <use x="50" xlink:href="#ArialMT-111"/>
      <use x="105.615234" xlink:href="#ArialMT-110"/>
      <use x="161.230469" xlink:href="#ArialMT-102"/>
      <use x="189.013672" xlink:href="#ArialMT-105"/>
      <use x="211.230469" xlink:href="#ArialMT-114"/>
      <use x="244.53125" xlink:href="#ArialMT-109"/>
      <use x="327.832031" xlink:href="#ArialMT-101"/>
      <use x="383.447266" xlink:href="#ArialMT-100"/>
     </g>
    </g>
    <g id="line2d_10">
     <path d="M 16.2 34.003125 
L 36.2 34.003125 
" style="fill:none;stroke:#ff7f0e;stroke-linecap:round;stroke-width:1.75;"/>
    </g>
    <g id="line2d_11"/>
    <g id="text_2">
     <!-- deaths -->
     <defs>
      <path d="M 40.4375 6.390625 
Q 35.546875 2.25 31.03125 0.53125 
Q 26.515625 -1.171875 21.34375 -1.171875 
Q 12.796875 -1.171875 8.203125 3 
Q 3.609375 7.171875 3.609375 13.671875 
Q 3.609375 17.484375 5.34375 20.625 
Q 7.078125 23.78125 9.890625 25.6875 
Q 12.703125 27.59375 16.21875 28.5625 
Q 18.796875 29.25 24.03125 29.890625 
Q 34.671875 31.15625 39.703125 32.90625 
Q 39.75 34.71875 39.75 35.203125 
Q 39.75 40.578125 37.25 42.78125 
Q 33.890625 45.75 27.25 45.75 
Q 21.046875 45.75 18.09375 43.578125 
Q 15.140625 41.40625 13.71875 35.890625 
L 5.125 37.0625 
Q 6.296875 42.578125 8.984375 45.96875 
Q 11.671875 49.359375 16.75 51.1875 
Q 21.828125 53.03125 28.515625 53.03125 
Q 35.15625 53.03125 39.296875 51.46875 
Q 43.453125 49.90625 45.40625 47.53125 
Q 47.359375 45.171875 48.140625 41.546875 
Q 48.578125 39.3125 48.578125 33.453125 
L 48.578125 21.734375 
Q 48.578125 9.46875 49.140625 6.21875 
Q 49.703125 2.984375 51.375 0 
L 42.1875 0 
Q 40.828125 2.734375 40.4375 6.390625 
z
M 39.703125 26.03125 
Q 34.90625 24.078125 25.34375 22.703125 
Q 19.921875 21.921875 17.671875 20.9375 
Q 15.4375 19.96875 14.203125 18.09375 
Q 12.984375 16.21875 12.984375 13.921875 
Q 12.984375 10.40625 15.640625 8.0625 
Q 18.3125 5.71875 23.4375 5.71875 
Q 28.515625 5.71875 32.46875 7.9375 
Q 36.421875 10.15625 38.28125 14.015625 
Q 39.703125 17 39.703125 22.796875 
z
" id="ArialMT-97"/>
      <path d="M 25.78125 7.859375 
L 27.046875 0.09375 
Q 23.34375 -0.6875 20.40625 -0.6875 
Q 15.625 -0.6875 12.984375 0.828125 
Q 10.359375 2.34375 9.28125 4.8125 
Q 8.203125 7.28125 8.203125 15.1875 
L 8.203125 45.015625 
L 1.765625 45.015625 
L 1.765625 51.859375 
L 8.203125 51.859375 
L 8.203125 64.703125 
L 16.9375 69.96875 
L 16.9375 51.859375 
L 25.78125 51.859375 
L 25.78125 45.015625 
L 16.9375 45.015625 
L 16.9375 14.703125 
Q 16.9375 10.9375 17.40625 9.859375 
Q 17.875 8.796875 18.921875 8.15625 
Q 19.96875 7.515625 21.921875 7.515625 
Q 23.390625 7.515625 25.78125 7.859375 
z
" id="ArialMT-116"/>
      <path d="M 6.59375 0 
L 6.59375 71.578125 
L 15.375 71.578125 
L 15.375 45.90625 
Q 21.53125 53.03125 30.90625 53.03125 
Q 36.671875 53.03125 40.921875 50.75 
Q 45.171875 48.484375 47 44.484375 
Q 48.828125 40.484375 48.828125 32.859375 
L 48.828125 0 
L 40.046875 0 
L 40.046875 32.859375 
Q 40.046875 39.453125 37.1875 42.453125 
Q 34.328125 45.453125 29.109375 45.453125 
Q 25.203125 45.453125 21.75 43.421875 
Q 18.3125 41.40625 16.84375 37.9375 
Q 15.375 34.46875 15.375 28.375 
L 15.375 0 
z
" id="ArialMT-104"/>
      <path d="M 3.078125 15.484375 
L 11.765625 16.84375 
Q 12.5 11.625 15.84375 8.84375 
Q 19.1875 6.0625 25.203125 6.0625 
Q 31.25 6.0625 34.171875 8.515625 
Q 37.109375 10.984375 37.109375 14.3125 
Q 37.109375 17.28125 34.515625 19 
Q 32.71875 20.171875 25.53125 21.96875 
Q 15.875 24.421875 12.140625 26.203125 
Q 8.40625 27.984375 6.46875 31.125 
Q 4.546875 34.28125 4.546875 38.09375 
Q 4.546875 41.546875 6.125 44.5 
Q 7.71875 47.46875 10.453125 49.421875 
Q 12.5 50.921875 16.03125 51.96875 
Q 19.578125 53.03125 23.640625 53.03125 
Q 29.734375 53.03125 34.34375 51.265625 
Q 38.96875 49.515625 41.15625 46.5 
Q 43.359375 43.5 44.1875 38.484375 
L 35.59375 37.3125 
Q 35.015625 41.3125 32.203125 43.546875 
Q 29.390625 45.796875 24.265625 45.796875 
Q 18.21875 45.796875 15.625 43.796875 
Q 13.03125 41.796875 13.03125 39.109375 
Q 13.03125 37.40625 14.109375 36.03125 
Q 15.1875 34.625 17.484375 33.6875 
Q 18.796875 33.203125 25.25 31.453125 
Q 34.578125 28.953125 38.25 27.359375 
Q 41.9375 25.78125 44.03125 22.75 
Q 46.140625 19.734375 46.140625 15.234375 
Q 46.140625 10.84375 43.578125 6.953125 
Q 41.015625 3.078125 36.171875 0.953125 
Q 31.34375 -1.171875 25.25 -1.171875 
Q 15.140625 -1.171875 9.84375 3.03125 
Q 4.546875 7.234375 3.078125 15.484375 
z
" id="ArialMT-115"/>
     </defs>
     <g style="fill:#262626;" transform="translate(44.2 37.503125)scale(0.1 -0.1)">
      <use xlink:href="#ArialMT-100"/>
      <use x="55.615234" xlink:href="#ArialMT-101"/>
      <use x="111.230469" xlink:href="#ArialMT-97"/>
      <use x="166.845703" xlink:href="#ArialMT-116"/>
      <use x="194.628906" xlink:href="#ArialMT-104"/>
      <use x="250.244141" xlink:href="#ArialMT-115"/>
     </g>
    </g>
    <g id="line2d_12">
     <path d="M 16.2 48.148438 
L 36.2 48.148438 
" style="fill:none;stroke:#2ca02c;stroke-linecap:round;stroke-width:1.75;"/>
    </g>
    <g id="line2d_13"/>
    <g id="text_3">
     <!-- recovered -->
     <defs>
      <path d="M 21 0 
L 1.265625 51.859375 
L 10.546875 51.859375 
L 21.6875 20.796875 
Q 23.484375 15.765625 25 10.359375 
Q 26.171875 14.453125 28.265625 20.21875 
L 39.796875 51.859375 
L 48.828125 51.859375 
L 29.203125 0 
z
" id="ArialMT-118"/>
     </defs>
     <g style="fill:#262626;" transform="translate(44.2 51.648438)scale(0.1 -0.1)">
      <use xlink:href="#ArialMT-114"/>
      <use x="33.300781" xlink:href="#ArialMT-101"/>
      <use x="88.916016" xlink:href="#ArialMT-99"/>
      <use x="138.916016" xlink:href="#ArialMT-111"/>
      <use x="194.53125" xlink:href="#ArialMT-118"/>
      <use x="244.53125" xlink:href="#ArialMT-101"/>
      <use x="300.146484" xlink:href="#ArialMT-114"/>
      <use x="333.447266" xlink:href="#ArialMT-101"/>
      <use x="389.0625" xlink:href="#ArialMT-100"/>
     </g>
    </g>
    <g id="line2d_14">
     <path d="M 16.2 62.29375 
L 36.2 62.29375 
" style="fill:none;stroke:#d62728;stroke-linecap:round;stroke-width:1.75;"/>
    </g>
    <g id="line2d_15"/>
    <g id="text_4">
     <!-- active -->
     <g style="fill:#262626;" transform="translate(44.2 65.79375)scale(0.1 -0.1)">
      <use xlink:href="#ArialMT-97"/>
      <use x="55.615234" xlink:href="#ArialMT-99"/>
      <use x="105.615234" xlink:href="#ArialMT-116"/>
      <use x="133.398438" xlink:href="#ArialMT-105"/>
      <use x="155.615234" xlink:href="#ArialMT-118"/>
      <use x="205.615234" xlink:href="#ArialMT-101"/>
     </g>
    </g>
    <g id="line2d_16">
     <path d="M 16.2 76.560938 
L 36.2 76.560938 
" style="fill:none;stroke:#9467bd;stroke-linecap:round;stroke-width:1.75;"/>
    </g>
    <g id="line2d_17"/>
    <g id="text_5">
     <!-- new_confirmed -->
     <defs>
      <path d="M 16.15625 0 
L 0.296875 51.859375 
L 9.375 51.859375 
L 17.625 21.921875 
L 20.703125 10.796875 
Q 20.90625 11.625 23.390625 21.484375 
L 31.640625 51.859375 
L 40.671875 51.859375 
L 48.4375 21.78125 
L 51.03125 11.859375 
L 54 21.875 
L 62.890625 51.859375 
L 71.4375 51.859375 
L 55.21875 0 
L 46.09375 0 
L 37.84375 31.0625 
L 35.84375 39.890625 
L 25.34375 0 
z
" id="ArialMT-119"/>
      <path d="M -1.515625 -19.875 
L -1.515625 -13.53125 
L 56.734375 -13.53125 
L 56.734375 -19.875 
z
" id="ArialMT-95"/>
     </defs>
     <g style="fill:#262626;" transform="translate(44.2 80.060938)scale(0.1 -0.1)">
      <use xlink:href="#ArialMT-110"/>
      <use x="55.615234" xlink:href="#ArialMT-101"/>
      <use x="111.230469" xlink:href="#ArialMT-119"/>
      <use x="183.447266" xlink:href="#ArialMT-95"/>
      <use x="239.0625" xlink:href="#ArialMT-99"/>
      <use x="289.0625" xlink:href="#ArialMT-111"/>
      <use x="344.677734" xlink:href="#ArialMT-110"/>
      <use x="400.292969" xlink:href="#ArialMT-102"/>
      <use x="428.076172" xlink:href="#ArialMT-105"/>
      <use x="450.292969" xlink:href="#ArialMT-114"/>
      <use x="483.59375" xlink:href="#ArialMT-109"/>
      <use x="566.894531" xlink:href="#ArialMT-101"/>
      <use x="622.509766" xlink:href="#ArialMT-100"/>
     </g>
    </g>
    <g id="line2d_18">
     <path d="M 16.2 90.70625 
L 36.2 90.70625 
" style="fill:none;stroke:#8c564b;stroke-linecap:round;stroke-width:1.75;"/>
    </g>
    <g id="line2d_19"/>
    <g id="text_6">
     <!-- new_deaths -->
     <g style="fill:#262626;" transform="translate(44.2 94.20625)scale(0.1 -0.1)">
      <use xlink:href="#ArialMT-110"/>
      <use x="55.615234" xlink:href="#ArialMT-101"/>
      <use x="111.230469" xlink:href="#ArialMT-119"/>
      <use x="183.447266" xlink:href="#ArialMT-95"/>
      <use x="239.0625" xlink:href="#ArialMT-100"/>
      <use x="294.677734" xlink:href="#ArialMT-101"/>
      <use x="350.292969" xlink:href="#ArialMT-97"/>
      <use x="405.908203" xlink:href="#ArialMT-116"/>
      <use x="433.691406" xlink:href="#ArialMT-104"/>
      <use x="489.306641" xlink:href="#ArialMT-115"/>
     </g>
    </g>
    <g id="line2d_20">
     <path d="M 16.2 104.851562 
L 36.2 104.851562 
" style="fill:none;stroke:#e377c2;stroke-linecap:round;stroke-width:1.75;"/>
    </g>
    <g id="line2d_21"/>
    <g id="text_7">
     <!-- new_recovered -->
     <g style="fill:#262626;" transform="translate(44.2 108.351562)scale(0.1 -0.1)">
      <use xlink:href="#ArialMT-110"/>
      <use x="55.615234" xlink:href="#ArialMT-101"/>
      <use x="111.230469" xlink:href="#ArialMT-119"/>
      <use x="183.447266" xlink:href="#ArialMT-95"/>
      <use x="239.0625" xlink:href="#ArialMT-114"/>
      <use x="272.363281" xlink:href="#ArialMT-101"/>
      <use x="327.978516" xlink:href="#ArialMT-99"/>
      <use x="377.978516" xlink:href="#ArialMT-111"/>
      <use x="433.59375" xlink:href="#ArialMT-118"/>
      <use x="483.59375" xlink:href="#ArialMT-101"/>
      <use x="539.208984" xlink:href="#ArialMT-114"/>
      <use x="572.509766" xlink:href="#ArialMT-101"/>
      <use x="628.125" xlink:href="#ArialMT-100"/>
     </g>
    </g>
   </g>
  </g>
 </g>
 <defs>
  <clipPath id="p64cb0a19d5">
   <rect height="396" width="576" x="7.2" y="7.2"/>
  </clipPath>
 </defs>
</svg>
