<?xml version="1.0" encoding="utf-8" standalone="no"?>
<!DOCTYPE svg PUBLIC "-//W3C//DTD SVG 1.1//EN"
  "http://www.w3.org/Graphics/SVG/1.1/DTD/svg11.dtd">
<!-- Created with matplotlib (https://matplotlib.org/) -->
<svg height="410.4pt" version="1.1" viewBox="0 0 590.4 410.4" width="590.4pt" xmlns="http://www.w3.org/2000/svg" xmlns:xlink="http://www.w3.org/1999/xlink">
 <defs>
  <style type="text/css">
*{stroke-linecap:butt;stroke-linejoin:round;}
  </style>
 </defs>
 <g id="figure_1">
  <g id="patch_1">
   <path d="M 0 410.4 
L 590.4 410.4 
L 590.4 0 
L 0 0 
z
" style="fill:none;"/>
  </g>
  <g id="axes_1">
   <g id="line2d_1">
    <path clip-path="url(#p8e30d1f1cd)" d="M 33.381818 385.158392 
L 37.857343 385.151045 
L 42.332867 385.129454 
L 46.808392 385.092194 
L 51.283916 385.041214 
L 55.759441 384.980564 
L 60.234965 384.781819 
L 64.71049 384.737812 
L 69.186014 384.582625 
L 73.661538 384.455926 
L 78.137063 384.297515 
L 82.612587 383.941484 
L 87.088112 383.709528 
L 91.563636 383.408825 
L 96.039161 383.128139 
L 100.514685 382.889585 
L 104.99021 382.621644 
L 109.465734 382.417052 
L 113.941259 382.189893 
L 118.416783 381.994073 
L 122.892308 381.841135 
L 127.367832 381.809722 
L 131.843357 380.674082 
L 136.318881 380.185505 
L 140.794406 380.024695 
L 145.26993 379.860212 
L 149.745455 379.707723 
L 154.220979 379.56693 
L 158.696503 379.52922 
L 163.172028 379.487387 
L 167.647552 379.439107 
L 172.123077 379.30746 
L 176.598601 379.278522 
L 181.074126 379.234665 
L 185.54965 379.171315 
L 190.025175 379.097695 
L 194.500699 378.995811 
L 198.976224 378.893253 
L 203.451748 378.751635 
L 207.927273 378.574857 
L 212.402797 378.429566 
L 216.878322 378.239518 
L 221.353846 378.068587 
L 225.829371 377.861521 
L 230.304895 377.568089 
L 234.78042 377.265512 
L 239.255944 376.965708 
L 243.731469 376.684797 
L 248.206993 376.309949 
L 252.682517 375.763945 
L 257.158042 375.57817 
L 261.633566 374.314931 
L 266.109091 373.497312 
L 270.584615 372.646557 
L 275.06014 371.589559 
L 279.535664 370.418383 
L 284.011189 369.087897 
L 288.486713 367.003891 
L 292.962238 364.795734 
L 297.437762 362.368067 
L 301.913287 359.926081 
L 306.388811 356.840255 
L 310.864336 353.865534 
L 315.33986 350.14464 
L 319.815385 345.496747 
L 324.290909 340.72118 
L 328.766434 335.668075 
L 333.241958 331.211354 
L 337.717483 326.544568 
L 342.193007 320.914497 
L 346.668531 315.282927 
L 351.144056 309.233026 
L 355.61958 303.039483 
L 360.095105 295.430738 
L 364.570629 289.82998 
L 369.046154 284.358245 
L 373.521678 278.286078 
L 377.997203 271.913058 
L 382.472727 265.597164 
L 386.948252 258.372414 
L 391.423776 252.39021 
L 395.899301 246.755041 
L 400.374825 241.459185 
L 404.85035 237.045572 
L 409.325874 231.05827 
L 413.801399 223.816802 
L 418.276923 217.253658 
L 422.752448 211.438412 
L 427.227972 205.16945 
L 431.703497 199.855601 
L 436.179021 194.093133 
L 440.654545 188.48263 
L 445.13007 182.115832 
L 449.605594 174.481672 
L 454.081119 168.031958 
L 458.556643 162.429551 
L 463.032168 157.160009 
L 467.507692 151.564724 
L 471.983217 145.755475 
L 476.458741 141.035386 
L 480.934266 134.518199 
L 485.40979 128.253285 
L 489.885315 122.301744 
L 494.360839 116.57961 
L 498.836364 110.609327 
L 503.311888 103.663389 
L 507.787413 96.887856 
L 512.262937 89.964709 
L 516.738462 83.521442 
L 521.213986 77.69705 
L 525.68951 72.013975 
L 530.165035 65.682713 
L 534.640559 59.305569 
L 539.116084 52.172582 
L 543.591608 44.661822 
L 548.067133 37.78553 
L 552.542657 31.821545 
L 557.018182 25.2 
" style="fill:none;stroke:#1f77b4;stroke-linecap:round;stroke-width:1.75;"/>
   </g>
   <g id="line2d_2">
    <path clip-path="url(#p8e30d1f1cd)" d="M 33.381818 385.198726 
L 37.857343 385.198651 
L 42.332867 385.198051 
L 46.808392 385.196851 
L 51.283916 385.195802 
L 55.759441 385.193852 
L 60.234965 385.190179 
L 64.71049 385.190029 
L 69.186014 385.18718 
L 73.661538 385.184031 
L 78.137063 385.180583 
L 82.612587 385.172861 
L 87.088112 385.168063 
L 91.563636 385.163115 
L 96.039161 385.157717 
L 100.514685 385.152469 
L 104.99021 385.146097 
L 109.465734 385.139574 
L 113.941259 385.132077 
L 118.416783 385.124056 
L 122.892308 385.116559 
L 127.367832 385.116184 
L 131.843357 385.097217 
L 136.318881 385.085821 
L 140.794406 385.075101 
L 145.26993 385.067304 
L 149.745455 385.059957 
L 154.220979 385.049536 
L 158.696503 385.040914 
L 163.172028 385.031543 
L 167.647552 385.031243 
L 172.123077 385.015725 
L 176.598601 385.0149 
L 181.074126 385.002905 
L 185.54965 384.996982 
L 190.025175 384.992334 
L 194.500699 384.989035 
L 198.976224 384.984687 
L 203.451748 384.979514 
L 207.927273 384.975391 
L 212.402797 384.968719 
L 216.878322 384.963096 
L 221.353846 384.956049 
L 225.829371 384.949002 
L 230.304895 384.940605 
L 234.78042 384.933258 
L 239.255944 384.91489 
L 243.731469 384.900421 
L 248.206993 384.880479 
L 252.682517 384.854015 
L 257.158042 384.846143 
L 261.633566 384.794864 
L 266.109091 384.763752 
L 270.584615 384.717195 
L 275.06014 384.665766 
L 279.535664 384.607365 
L 284.011189 384.54529 
L 288.486713 384.460274 
L 292.962238 384.352918 
L 297.437762 384.227419 
L 301.913287 384.103719 
L 306.388811 383.963226 
L 310.864336 383.80444 
L 315.33986 383.612068 
L 319.815385 383.402977 
L 324.290909 383.160975 
L 328.766434 382.90203 
L 333.241958 382.656655 
L 337.717483 382.382491 
L 342.193007 382.043253 
L 346.668531 381.690746 
L 351.144056 381.227883 
L 355.61958 380.792759 
L 360.095105 380.356511 
L 364.570629 379.999055 
L 369.046154 379.609888 
L 373.521678 379.062609 
L 377.997203 378.577331 
L 382.472727 378.043772 
L 386.948252 377.513736 
L 391.423776 377.065643 
L 395.899301 376.646787 
L 400.374825 376.242476 
L 404.85035 375.755023 
L 409.325874 375.140797 
L 413.801399 374.419289 
L 418.276923 373.668018 
L 422.752448 373.241591 
L 427.227972 372.826709 
L 431.703497 372.456209 
L 436.179021 371.961634 
L 440.654545 371.475606 
L 445.13007 370.891442 
L 449.605594 370.419658 
L 454.081119 369.992706 
L 458.556643 369.715468 
L 463.032168 369.368883 
L 467.507692 368.920115 
L 471.983217 368.134058 
L 476.458741 367.702983 
L 480.934266 367.308492 
L 485.40979 366.921799 
L 489.885315 366.64726 
L 494.360839 366.342358 
L 498.836364 365.914881 
L 503.311888 365.420682 
L 507.787413 364.990656 
L 512.262937 364.590992 
L 516.738462 364.260151 
L 521.213986 364.005404 
L 525.68951 363.733939 
L 530.165035 363.31156 
L 534.640559 362.919244 
L 539.116084 362.527828 
L 543.591608 362.134387 
L 548.067133 361.825887 
L 552.542657 361.57069 
L 557.018182 361.32359 
" style="fill:none;stroke:#ff7f0e;stroke-linecap:round;stroke-width:1.75;"/>
   </g>
   <g id="line2d_3">
    <path clip-path="url(#p8e30d1f1cd)" d="M 33.381818 385.197901 
L 37.857343 385.197751 
L 42.332867 385.197301 
L 46.808392 385.197076 
L 51.283916 385.196102 
L 55.759441 385.195427 
L 60.234965 385.191978 
L 64.71049 385.190554 
L 69.186014 385.189279 
L 73.661538 385.183357 
L 78.137063 385.178709 
L 82.612587 385.164614 
L 87.088112 385.153294 
L 91.563636 385.136126 
L 96.039161 385.115734 
L 100.514685 385.08852 
L 104.99021 385.049236 
L 109.465734 385.003879 
L 113.941259 384.956798 
L 118.416783 384.90417 
L 122.892308 384.848917 
L 127.367832 384.813906 
L 131.843357 384.728066 
L 136.318881 384.595895 
L 140.794406 384.49566 
L 145.26993 384.385455 
L 149.745455 384.256657 
L 154.220979 384.124036 
L 158.696503 383.991414 
L 163.172028 383.837277 
L 167.647552 383.783823 
L 172.123077 383.484245 
L 176.598601 383.44616 
L 181.074126 383.308741 
L 185.54965 383.107972 
L 190.025175 382.922122 
L 194.500699 382.705235 
L 198.976224 382.447789 
L 203.451748 382.217557 
L 207.927273 381.997596 
L 212.402797 381.781234 
L 216.878322 381.584289 
L 221.353846 381.363728 
L 225.829371 381.166858 
L 230.304895 381.011745 
L 234.78042 380.824846 
L 239.255944 380.649717 
L 243.731469 380.513497 
L 248.206993 380.371654 
L 252.682517 380.176808 
L 257.158042 380.077773 
L 261.633566 379.933307 
L 266.109091 379.755404 
L 270.584615 379.499757 
L 275.06014 379.34577 
L 279.535664 379.139453 
L 284.011189 378.954053 
L 288.486713 378.830428 
L 292.962238 378.647427 
L 297.437762 378.327082 
L 301.913287 377.909726 
L 306.388811 377.631214 
L 310.864336 377.125843 
L 315.33986 376.671152 
L 319.815385 376.042907 
L 324.290909 375.385798 
L 328.766434 374.748556 
L 333.241958 374.023824 
L 337.717483 372.862994 
L 342.193007 371.853303 
L 346.668531 370.718037 
L 351.144056 369.436656 
L 355.61958 368.272152 
L 360.095105 366.74607 
L 364.570629 365.706991 
L 369.046154 364.469766 
L 373.521678 362.705056 
L 377.997203 360.560399 
L 382.472727 358.662617 
L 386.948252 357.004213 
L 391.423776 355.053953 
L 395.899301 353.583648 
L 400.374825 351.56449 
L 404.85035 349.644817 
L 409.325874 346.889083 
L 413.801399 344.558426 
L 418.276923 342.591523 
L 422.752448 340.79405 
L 427.227972 338.426209 
L 431.703497 336.789246 
L 436.179021 334.234206 
L 440.654545 331.994487 
L 445.13007 329.835961 
L 449.605594 325.717578 
L 454.081119 323.973409 
L 458.556643 320.296297 
L 463.032168 318.179604 
L 467.507692 315.578832 
L 471.983217 312.275594 
L 476.458741 309.12432 
L 480.934266 306.23244 
L 485.40979 303.249773 
L 489.885315 300.841448 
L 494.360839 298.030985 
L 498.836364 295.323981 
L 503.311888 291.83182 
L 507.787413 288.883413 
L 512.262937 286.08637 
L 516.738462 282.069946 
L 521.213986 279.569258 
L 525.68951 276.028517 
L 530.165035 273.239271 
L 534.640559 269.105969 
L 539.116084 266.156213 
L 543.591608 262.469655 
L 548.067133 258.261609 
L 552.542657 255.205396 
L 557.018182 251.238601 
" style="fill:none;stroke:#2ca02c;stroke-linecap:round;stroke-width:1.75;"/>
   </g>
   <g id="line2d_4">
    <path clip-path="url(#p8e30d1f1cd)" d="M 33.381818 385.170087 
L 37.857343 385.170087 
L 42.332867 385.162965 
L 46.808392 385.148346 
L 51.283916 385.12488 
L 55.759441 385.092943 
L 60.234965 384.937906 
L 64.71049 384.911667 
L 69.186014 384.800862 
L 73.661538 384.728366 
L 78.137063 384.338224 
L 82.612587 384.004009 
L 87.088112 383.788171 
L 91.563636 383.509584 
L 96.039161 383.254687 
L 100.514685 383.048596 
L 104.99021 382.826311 
L 109.465734 382.673598 
L 113.941259 382.501018 
L 118.416783 382.365847 
L 122.892308 382.275659 
L 127.367832 382.279632 
L 131.843357 381.248799 
L 136.318881 380.903789 
L 140.794406 380.853934 
L 145.26993 380.807453 
L 149.745455 380.79111 
L 154.220979 380.793359 
L 158.696503 380.896892 
L 163.172028 381.018568 
L 167.647552 381.02404 
L 172.123077 381.207491 
L 176.598601 381.217462 
L 181.074126 381.323019 
L 185.54965 381.466361 
L 190.025175 381.583239 
L 194.500699 381.701541 
L 198.976224 381.860777 
L 203.451748 381.954564 
L 207.927273 382.00187 
L 212.402797 382.079613 
L 216.878322 382.092133 
L 221.353846 382.14881 
L 225.829371 382.145661 
L 230.304895 382.015739 
L 234.78042 381.907408 
L 239.255944 381.801101 
L 243.731469 381.670879 
L 248.206993 381.457815 
L 252.682517 381.133121 
L 257.158042 381.054253 
L 261.633566 379.98676 
L 266.109091 379.378157 
L 270.584615 378.829604 
L 275.06014 377.978023 
L 279.535664 377.071565 
L 284.011189 375.988554 
L 288.486713 374.113188 
L 292.962238 372.195389 
L 297.437762 370.213566 
L 301.913287 368.312636 
L 306.388811 365.645815 
L 310.864336 363.335251 
L 315.33986 360.26142 
L 319.815385 356.450862 
L 324.290909 352.574407 
L 328.766434 348.417489 
L 333.241958 344.930876 
L 337.717483 341.699084 
L 342.193007 337.417942 
L 346.668531 333.274144 
L 351.144056 328.968487 
L 355.61958 324.374572 
L 360.095105 318.728157 
L 364.570629 314.523934 
L 369.046154 310.678591 
L 373.521678 306.918413 
L 377.997203 303.175328 
L 382.472727 299.290775 
L 386.948252 294.254464 
L 391.423776 290.670615 
L 395.899301 286.924606 
L 400.374825 284.052219 
L 404.85035 282.045731 
L 409.325874 279.42839 
L 413.801399 275.239086 
L 418.276923 271.394118 
L 422.752448 267.802771 
L 427.227972 264.316533 
L 431.703497 261.010146 
L 436.179021 258.297294 
L 440.654545 255.412537 
L 445.13007 251.788429 
L 449.605594 248.744436 
L 454.081119 244.465843 
L 458.556643 242.817785 
L 463.032168 240.011521 
L 467.507692 237.465777 
L 471.983217 235.745823 
L 476.458741 234.608083 
L 480.934266 231.377266 
L 485.40979 228.481713 
L 489.885315 225.213036 
L 494.360839 222.606267 
L 498.836364 219.770464 
L 503.311888 216.810888 
L 507.787413 213.413788 
L 512.262937 209.687346 
L 516.738462 207.591345 
L 521.213986 204.522387 
L 525.68951 202.651519 
L 530.165035 199.531882 
L 534.640559 197.680356 
L 539.116084 193.888541 
L 543.591608 190.45778 
L 548.067133 188.098035 
L 552.542657 185.445459 
L 557.018182 183.037809 
" style="fill:none;stroke:#d62728;stroke-linecap:round;stroke-width:1.75;"/>
   </g>
   <g id="line2d_5">
    <path clip-path="url(#p8e30d1f1cd)" d="M 33.381818 385.2 
L 37.857343 385.192878 
L 42.332867 385.178559 
L 46.808392 385.162815 
L 51.283916 385.149096 
L 55.759441 385.139574 
L 60.234965 385.00148 
L 64.71049 385.156368 
L 69.186014 385.044888 
L 73.661538 385.073826 
L 78.137063 385.041664 
L 82.612587 384.843969 
L 87.088112 384.968044 
L 91.563636 384.899372 
L 96.039161 384.919314 
L 100.514685 384.961447 
L 104.99021 384.936632 
L 109.465734 384.995408 
L 113.941259 384.972842 
L 118.416783 385.004179 
L 122.892308 385.047062 
L 127.367832 385.168588 
L 131.843357 384.06436 
L 136.318881 384.711498 
L 140.794406 385.03919 
L 145.26993 385.035517 
L 149.745455 385.047512 
L 154.220979 385.059207 
L 158.696503 385.16244 
L 163.172028 385.158167 
L 167.647552 385.151869 
L 172.123077 385.068353 
L 176.598601 385.171062 
L 181.074126 385.156518 
L 185.54965 385.137025 
L 190.025175 385.126905 
L 194.500699 385.098416 
L 198.976224 385.097966 
L 203.451748 385.058532 
L 207.927273 385.024121 
L 212.402797 385.055384 
L 216.878322 385.010252 
L 221.353846 385.029819 
L 225.829371 384.993609 
L 230.304895 384.907169 
L 234.78042 384.898172 
L 239.255944 384.901171 
L 243.731469 384.919613 
L 248.206993 384.825602 
L 252.682517 384.647998 
L 257.158042 385.014525 
L 261.633566 383.937736 
L 266.109091 384.384405 
L 270.584615 384.349244 
L 275.06014 384.144202 
L 279.535664 384.029199 
L 284.011189 383.870188 
L 288.486713 383.116293 
L 292.962238 382.992294 
L 297.437762 382.772633 
L 301.913287 382.746468 
L 306.388811 382.114249 
L 310.864336 382.172126 
L 315.33986 381.532934 
L 319.815385 380.552256 
L 324.290909 380.425033 
L 328.766434 380.147045 
L 333.241958 380.743279 
L 337.717483 380.533439 
L 342.193007 379.570154 
L 346.668531 379.56843 
L 351.144056 379.150324 
L 355.61958 379.006457 
L 360.095105 377.591255 
L 364.570629 379.599617 
L 369.046154 379.728565 
L 373.521678 379.127833 
L 377.997203 378.82698 
L 382.472727 378.884107 
L 386.948252 377.975324 
L 391.423776 379.217797 
L 395.899301 379.564831 
L 400.374825 379.904144 
L 404.85035 380.786387 
L 409.325874 379.212699 
L 413.801399 377.958531 
L 418.276923 378.636857 
L 422.752448 379.384754 
L 427.227972 378.931038 
L 431.703497 379.886151 
L 436.179021 379.437533 
L 440.654545 379.589496 
L 445.13007 378.833202 
L 449.605594 377.56584 
L 454.081119 378.750286 
L 458.556643 379.597593 
L 463.032168 379.930458 
L 467.507692 379.604715 
L 471.983217 379.390752 
L 476.458741 380.48111 
L 480.934266 378.682813 
L 485.40979 378.935086 
L 489.885315 379.248459 
L 494.360839 379.477866 
L 498.836364 379.229717 
L 503.311888 378.254062 
L 507.787413 378.424468 
L 512.262937 378.276852 
L 516.738462 378.756733 
L 521.213986 379.375608 
L 525.68951 379.516925 
L 530.165035 378.868738 
L 534.640559 378.822931 
L 539.116084 378.067012 
L 543.591608 377.68924 
L 548.067133 378.323708 
L 552.542657 379.236014 
L 557.018182 378.578455 
" style="fill:none;stroke:#9467bd;stroke-linecap:round;stroke-width:1.75;"/>
   </g>
   <g id="line2d_6">
    <path clip-path="url(#p8e30d1f1cd)" d="M 33.381818 385.2 
L 37.857343 385.199925 
L 42.332867 385.1994 
L 46.808392 385.1988 
L 51.283916 385.19895 
L 55.759441 385.198051 
L 60.234965 385.196326 
L 64.71049 385.19985 
L 69.186014 385.197151 
L 73.661538 385.196851 
L 78.137063 385.196551 
L 82.612587 385.192278 
L 87.088112 385.195202 
L 91.563636 385.195052 
L 96.039161 385.194602 
L 100.514685 385.194752 
L 104.99021 385.193628 
L 109.465734 385.193478 
L 113.941259 385.192503 
L 118.416783 385.191978 
L 122.892308 385.192503 
L 127.367832 385.199625 
L 131.843357 385.181033 
L 136.318881 385.188605 
L 140.794406 385.189279 
L 145.26993 385.192203 
L 149.745455 385.192653 
L 154.220979 385.189579 
L 158.696503 385.191528 
L 163.172028 385.190629 
L 167.647552 385.1997 
L 172.123077 385.184481 
L 176.598601 385.199175 
L 181.074126 385.188005 
L 185.54965 385.194077 
L 190.025175 385.195352 
L 194.500699 385.196701 
L 198.976224 385.195652 
L 203.451748 385.194827 
L 207.927273 385.195877 
L 212.402797 385.193328 
L 216.878322 385.194377 
L 221.353846 385.192953 
L 225.829371 385.192953 
L 230.304895 385.191603 
L 234.78042 385.192653 
L 239.255944 385.181632 
L 243.731469 385.185531 
L 248.206993 385.180058 
L 252.682517 385.173311 
L 257.158042 385.192203 
L 261.633566 385.148796 
L 266.109091 385.168888 
L 270.584615 385.153444 
L 275.06014 385.148571 
L 279.535664 385.141599 
L 284.011189 385.137925 
L 288.486713 385.114984 
L 292.962238 385.092643 
L 297.437762 385.074501 
L 301.913287 385.076225 
L 306.388811 385.059507 
L 310.864336 385.040615 
L 315.33986 385.008378 
L 319.815385 384.99091 
L 324.290909 384.957998 
L 328.766434 384.941055 
L 333.241958 384.954624 
L 337.717483 384.925836 
L 342.193007 384.860762 
L 346.668531 384.847493 
L 351.144056 384.737137 
L 355.61958 384.764876 
L 360.095105 384.763752 
L 364.570629 384.842545 
L 369.046154 384.810833 
L 373.521678 384.652722 
L 377.997203 384.714721 
L 382.472727 384.666441 
L 386.948252 384.669965 
L 391.423776 384.751906 
L 395.899301 384.781145 
L 400.374825 384.795689 
L 404.85035 384.712547 
L 409.325874 384.585774 
L 413.801399 384.478492 
L 418.276923 384.448729 
L 422.752448 384.773573 
L 427.227972 384.785118 
L 431.703497 384.8295 
L 436.179021 384.705425 
L 440.654545 384.713972 
L 445.13007 384.615836 
L 449.605594 384.728216 
L 454.081119 384.773048 
L 458.556643 384.922762 
L 463.032168 384.853415 
L 467.507692 384.751232 
L 471.983217 384.413943 
L 476.458741 384.768924 
L 480.934266 384.80551 
L 485.40979 384.813307 
L 489.885315 384.925461 
L 494.360839 384.895098 
L 498.836364 384.772523 
L 503.311888 384.7058 
L 507.787413 384.769974 
L 512.262937 384.800337 
L 516.738462 384.869159 
L 521.213986 384.945253 
L 525.68951 384.928535 
L 530.165035 384.777621 
L 534.640559 384.807684 
L 539.116084 384.808583 
L 543.591608 384.806559 
L 548.067133 384.8915 
L 552.542657 384.944803 
L 557.018182 384.9529 
" style="fill:none;stroke:#8c564b;stroke-linecap:round;stroke-width:1.75;"/>
   </g>
   <g id="line2d_7">
    <path clip-path="url(#p8e30d1f1cd)" d="M 33.381818 385.2 
L 37.857343 385.19985 
L 42.332867 385.19955 
L 46.808392 385.199775 
L 51.283916 385.199025 
L 55.759441 385.199325 
L 60.234965 385.196551 
L 64.71049 385.198576 
L 69.186014 385.198726 
L 73.661538 385.194077 
L 78.137063 385.195352 
L 82.612587 385.185906 
L 87.088112 385.18868 
L 91.563636 385.182832 
L 96.039161 385.179608 
L 100.514685 385.172786 
L 104.99021 385.160716 
L 109.465734 385.154643 
L 113.941259 385.152919 
L 118.416783 385.147371 
L 122.892308 385.144747 
L 127.367832 385.164989 
L 131.843357 385.11416 
L 136.318881 385.067829 
L 140.794406 385.099766 
L 145.26993 385.089795 
L 149.745455 385.071202 
L 154.220979 385.067379 
L 158.696503 385.067379 
L 163.172028 385.045862 
L 167.647552 385.146547 
L 172.123077 384.900421 
L 176.598601 385.161915 
L 181.074126 385.062581 
L 185.54965 384.999231 
L 190.025175 385.01415 
L 194.500699 384.983113 
L 198.976224 384.942554 
L 203.451748 384.969768 
L 207.927273 384.980039 
L 212.402797 384.983638 
L 216.878322 385.003055 
L 221.353846 384.979439 
L 225.829371 385.00313 
L 230.304895 385.044888 
L 234.78042 385.013101 
L 239.255944 385.024871 
L 243.731469 385.06378 
L 248.206993 385.058307 
L 252.682517 384.999306 
L 257.158042 385.100965 
L 261.633566 385.055533 
L 266.109091 385.022097 
L 270.584615 384.944353 
L 275.06014 385.046012 
L 279.535664 384.993684 
L 284.011189 385.0146 
L 288.486713 385.076375 
L 292.962238 385.016999 
L 297.437762 384.879655 
L 301.913287 384.782194 
L 306.388811 384.921488 
L 310.864336 384.652122 
L 315.33986 384.789316 
L 319.815385 384.571754 
L 324.290909 384.542891 
L 328.766434 384.562758 
L 333.241958 384.475268 
L 337.717483 384.03917 
L 342.193007 384.190309 
L 346.668531 384.064735 
L 351.144056 383.918619 
L 355.61958 384.035496 
L 360.095105 383.673918 
L 364.570629 384.160921 
L 369.046154 383.962776 
L 373.521678 383.435289 
L 377.997203 383.055343 
L 382.472727 383.302218 
L 386.948252 383.541596 
L 391.423776 383.249739 
L 395.899301 383.729695 
L 400.374825 383.180842 
L 404.85035 383.280327 
L 409.325874 382.444265 
L 413.801399 382.869343 
L 418.276923 383.233096 
L 422.752448 383.402528 
L 427.227972 382.832158 
L 431.703497 383.563038 
L 436.179021 382.644959 
L 440.654545 382.960282 
L 445.13007 383.041474 
L 449.605594 381.081617 
L 454.081119 383.455831 
L 458.556643 381.522888 
L 463.032168 383.083307 
L 467.507692 382.599228 
L 471.983217 381.896762 
L 476.458741 382.048726 
L 480.934266 382.308121 
L 485.40979 382.217332 
L 489.885315 382.791675 
L 494.360839 382.389538 
L 498.836364 382.492996 
L 503.311888 381.707839 
L 507.787413 382.251593 
L 512.262937 382.402957 
L 516.738462 381.183576 
L 521.213986 382.699312 
L 525.68951 381.659258 
L 530.165035 382.410754 
L 534.640559 381.066698 
L 539.116084 382.250244 
L 543.591608 381.513442 
L 548.067133 380.991953 
L 552.542657 382.143787 
L 557.018182 381.233206 
" style="fill:none;stroke:#e377c2;stroke-linecap:round;stroke-width:1.75;"/>
   </g>
   <g id="legend_1">
    <g id="patch_2">
     <path d="M 14.2 114.339063 
L 114.56875 114.339063 
Q 116.56875 114.339063 116.56875 112.339063 
L 116.56875 14.2 
Q 116.56875 12.2 114.56875 12.2 
L 14.2 12.2 
Q 12.2 12.2 12.2 14.2 
L 12.2 112.339063 
Q 12.2 114.339063 14.2 114.339063 
z
" style="fill:#ffffff;opacity:0.8;stroke:#cccccc;stroke-linejoin:miter;stroke-width:0.3;"/>
    </g>
    <g id="line2d_8">
     <path d="M 16.2 19.857813 
L 36.2 19.857813 
" style="fill:none;stroke:#1f77b4;stroke-linecap:round;stroke-width:1.75;"/>
    </g>
    <g id="line2d_9"/>
    <g id="text_1">
     <!-- confirmed -->
     <defs>
      <path d="M 40.4375 19 
L 49.078125 17.875 
Q 47.65625 8.9375 41.8125 3.875 
Q 35.984375 -1.171875 27.484375 -1.171875 
Q 16.84375 -1.171875 10.375 5.78125 
Q 3.90625 12.75 3.90625 25.734375 
Q 3.90625 34.125 6.6875 40.421875 
Q 9.46875 46.734375 15.15625 49.875 
Q 20.84375 53.03125 27.546875 53.03125 
Q 35.984375 53.03125 41.359375 48.75 
Q 46.734375 44.484375 48.25 36.625 
L 39.703125 35.296875 
Q 38.484375 40.53125 35.375 43.15625 
Q 32.28125 45.796875 27.875 45.796875 
Q 21.234375 45.796875 17.078125 41.03125 
Q 12.9375 36.28125 12.9375 25.984375 
Q 12.9375 15.53125 16.9375 10.796875 
Q 20.953125 6.0625 27.390625 6.0625 
Q 32.5625 6.0625 36.03125 9.234375 
Q 39.5 12.40625 40.4375 19 
z
" id="ArialMT-99"/>
      <path d="M 3.328125 25.921875 
Q 3.328125 40.328125 11.328125 47.265625 
Q 18.015625 53.03125 27.640625 53.03125 
Q 38.328125 53.03125 45.109375 46.015625 
Q 51.90625 39.015625 51.90625 26.65625 
Q 51.90625 16.65625 48.90625 10.90625 
Q 45.90625 5.171875 40.15625 2 
Q 34.421875 -1.171875 27.640625 -1.171875 
Q 16.75 -1.171875 10.03125 5.8125 
Q 3.328125 12.796875 3.328125 25.921875 
z
M 12.359375 25.921875 
Q 12.359375 15.96875 16.703125 11.015625 
Q 21.046875 6.0625 27.640625 6.0625 
Q 34.1875 6.0625 38.53125 11.03125 
Q 42.875 16.015625 42.875 26.21875 
Q 42.875 35.84375 38.5 40.796875 
Q 34.125 45.75 27.640625 45.75 
Q 21.046875 45.75 16.703125 40.8125 
Q 12.359375 35.890625 12.359375 25.921875 
z
" id="ArialMT-111"/>
      <path d="M 6.59375 0 
L 6.59375 51.859375 
L 14.5 51.859375 
L 14.5 44.484375 
Q 20.21875 53.03125 31 53.03125 
Q 35.6875 53.03125 39.625 51.34375 
Q 43.5625 49.65625 45.515625 46.921875 
Q 47.46875 44.1875 48.25 40.4375 
Q 48.734375 37.984375 48.734375 31.890625 
L 48.734375 0 
L 39.9375 0 
L 39.9375 31.546875 
Q 39.9375 36.921875 38.90625 39.578125 
Q 37.890625 42.234375 35.28125 43.8125 
Q 32.671875 45.40625 29.15625 45.40625 
Q 23.53125 45.40625 19.453125 41.84375 
Q 15.375 38.28125 15.375 28.328125 
L 15.375 0 
z
" id="ArialMT-110"/>
      <path d="M 8.6875 0 
L 8.6875 45.015625 
L 0.921875 45.015625 
L 0.921875 51.859375 
L 8.6875 51.859375 
L 8.6875 57.375 
Q 8.6875 62.59375 9.625 65.140625 
Q 10.890625 68.5625 14.078125 70.671875 
Q 17.28125 72.796875 23.046875 72.796875 
Q 26.765625 72.796875 31.25 71.921875 
L 29.9375 64.265625 
Q 27.203125 64.75 24.75 64.75 
Q 20.75 64.75 19.09375 63.03125 
Q 17.4375 61.328125 17.4375 56.640625 
L 17.4375 51.859375 
L 27.546875 51.859375 
L 27.546875 45.015625 
L 17.4375 45.015625 
L 17.4375 0 
z
" id="ArialMT-102"/>
      <path d="M 6.640625 61.46875 
L 6.640625 71.578125 
L 15.4375 71.578125 
L 15.4375 61.46875 
z
M 6.640625 0 
L 6.640625 51.859375 
L 15.4375 51.859375 
L 15.4375 0 
z
" id="ArialMT-105"/>
      <path d="M 6.5 0 
L 6.5 51.859375 
L 14.40625 51.859375 
L 14.40625 44 
Q 17.4375 49.515625 20 51.265625 
Q 22.5625 53.03125 25.640625 53.03125 
Q 30.078125 53.03125 34.671875 50.203125 
L 31.640625 42.046875 
Q 28.421875 43.953125 25.203125 43.953125 
Q 22.3125 43.953125 20.015625 42.21875 
Q 17.71875 40.484375 16.75 37.40625 
Q 15.28125 32.71875 15.28125 27.15625 
L 15.28125 0 
z
" id="ArialMT-114"/>
      <path d="M 6.59375 0 
L 6.59375 51.859375 
L 14.453125 51.859375 
L 14.453125 44.578125 
Q 16.890625 48.390625 20.9375 50.703125 
Q 25 53.03125 30.171875 53.03125 
Q 35.9375 53.03125 39.625 50.640625 
Q 43.3125 48.25 44.828125 43.953125 
Q 50.984375 53.03125 60.84375 53.03125 
Q 68.5625 53.03125 72.703125 48.75 
Q 76.859375 44.484375 76.859375 35.59375 
L 76.859375 0 
L 68.109375 0 
L 68.109375 32.671875 
Q 68.109375 37.9375 67.25 40.25 
Q 66.40625 42.578125 64.15625 43.984375 
Q 61.921875 45.40625 58.890625 45.40625 
Q 53.421875 45.40625 49.796875 41.765625 
Q 46.1875 38.140625 46.1875 30.125 
L 46.1875 0 
L 37.40625 0 
L 37.40625 33.6875 
Q 37.40625 39.546875 35.25 42.46875 
Q 33.109375 45.40625 28.21875 45.40625 
Q 24.515625 45.40625 21.359375 43.453125 
Q 18.21875 41.5 16.796875 37.734375 
Q 15.375 33.984375 15.375 26.90625 
L 15.375 0 
z
" id="ArialMT-109"/>
      <path d="M 42.09375 16.703125 
L 51.171875 15.578125 
Q 49.03125 7.625 43.21875 3.21875 
Q 37.40625 -1.171875 28.375 -1.171875 
Q 17 -1.171875 10.328125 5.828125 
Q 3.65625 12.84375 3.65625 25.484375 
Q 3.65625 38.578125 10.390625 45.796875 
Q 17.140625 53.03125 27.875 53.03125 
Q 38.28125 53.03125 44.875 45.953125 
Q 51.46875 38.875 51.46875 26.03125 
Q 51.46875 25.25 51.421875 23.6875 
L 12.75 23.6875 
Q 13.234375 15.140625 17.578125 10.59375 
Q 21.921875 6.0625 28.421875 6.0625 
Q 33.25 6.0625 36.671875 8.59375 
Q 40.09375 11.140625 42.09375 16.703125 
z
M 13.234375 30.90625 
L 42.1875 30.90625 
Q 41.609375 37.453125 38.875 40.71875 
Q 34.671875 45.796875 27.984375 45.796875 
Q 21.921875 45.796875 17.796875 41.75 
Q 13.671875 37.703125 13.234375 30.90625 
z
" id="ArialMT-101"/>
      <path d="M 40.234375 0 
L 40.234375 6.546875 
Q 35.296875 -1.171875 25.734375 -1.171875 
Q 19.53125 -1.171875 14.328125 2.25 
Q 9.125 5.671875 6.265625 11.796875 
Q 3.421875 17.921875 3.421875 25.875 
Q 3.421875 33.640625 6 39.96875 
Q 8.59375 46.296875 13.765625 49.65625 
Q 18.953125 53.03125 25.34375 53.03125 
Q 30.03125 53.03125 33.6875 51.046875 
Q 37.359375 49.078125 39.65625 45.90625 
L 39.65625 71.578125 
L 48.390625 71.578125 
L 48.390625 0 
z
M 12.453125 25.875 
Q 12.453125 15.921875 16.640625 10.984375 
Q 20.84375 6.0625 26.5625 6.0625 
Q 32.328125 6.0625 36.34375 10.765625 
Q 40.375 15.484375 40.375 25.140625 
Q 40.375 35.796875 36.265625 40.765625 
Q 32.171875 45.75 26.171875 45.75 
Q 20.3125 45.75 16.375 40.96875 
Q 12.453125 36.1875 12.453125 25.875 
z
" id="ArialMT-100"/>
     </defs>
     <g style="fill:#262626;" transform="translate(44.2 23.357813)scale(0.1 -0.1)">
      <use xlink:href="#ArialMT-99"/>
      <use x="50" xlink:href="#ArialMT-111"/>
      <use x="105.615234" xlink:href="#ArialMT-110"/>
      <use x="161.230469" xlink:href="#ArialMT-102"/>
      <use x="189.013672" xlink:href="#ArialMT-105"/>
      <use x="211.230469" xlink:href="#ArialMT-114"/>
      <use x="244.53125" xlink:href="#ArialMT-109"/>
      <use x="327.832031" xlink:href="#ArialMT-101"/>
      <use x="383.447266" xlink:href="#ArialMT-100"/>
     </g>
    </g>
    <g id="line2d_10">
     <path d="M 16.2 34.003125 
L 36.2 34.003125 
" style="fill:none;stroke:#ff7f0e;stroke-linecap:round;stroke-width:1.75;"/>
    </g>
    <g id="line2d_11"/>
    <g id="text_2">
     <!-- deaths -->
     <defs>
      <path d="M 40.4375 6.390625 
Q 35.546875 2.25 31.03125 0.53125 
Q 26.515625 -1.171875 21.34375 -1.171875 
Q 12.796875 -1.171875 8.203125 3 
Q 3.609375 7.171875 3.609375 13.671875 
Q 3.609375 17.484375 5.34375 20.625 
Q 7.078125 23.78125 9.890625 25.6875 
Q 12.703125 27.59375 16.21875 28.5625 
Q 18.796875 29.25 24.03125 29.890625 
Q 34.671875 31.15625 39.703125 32.90625 
Q 39.75 34.71875 39.75 35.203125 
Q 39.75 40.578125 37.25 42.78125 
Q 33.890625 45.75 27.25 45.75 
Q 21.046875 45.75 18.09375 43.578125 
Q 15.140625 41.40625 13.71875 35.890625 
L 5.125 37.0625 
Q 6.296875 42.578125 8.984375 45.96875 
Q 11.671875 49.359375 16.75 51.1875 
Q 21.828125 53.03125 28.515625 53.03125 
Q 35.15625 53.03125 39.296875 51.46875 
Q 43.453125 49.90625 45.40625 47.53125 
Q 47.359375 45.171875 48.140625 41.546875 
Q 48.578125 39.3125 48.578125 33.453125 
L 48.578125 21.734375 
Q 48.578125 9.46875 49.140625 6.21875 
Q 49.703125 2.984375 51.375 0 
L 42.1875 0 
Q 40.828125 2.734375 40.4375 6.390625 
z
M 39.703125 26.03125 
Q 34.90625 24.078125 25.34375 22.703125 
Q 19.921875 21.921875 17.671875 20.9375 
Q 15.4375 19.96875 14.203125 18.09375 
Q 12.984375 16.21875 12.984375 13.921875 
Q 12.984375 10.40625 15.640625 8.0625 
Q 18.3125 5.71875 23.4375 5.71875 
Q 28.515625 5.71875 32.46875 7.9375 
Q 36.421875 10.15625 38.28125 14.015625 
Q 39.703125 17 39.703125 22.796875 
z
" id="ArialMT-97"/>
      <path d="M 25.78125 7.859375 
L 27.046875 0.09375 
Q 23.34375 -0.6875 20.40625 -0.6875 
Q 15.625 -0.6875 12.984375 0.828125 
Q 10.359375 2.34375 9.28125 4.8125 
Q 8.203125 7.28125 8.203125 15.1875 
L 8.203125 45.015625 
L 1.765625 45.015625 
L 1.765625 51.859375 
L 8.203125 51.859375 
L 8.203125 64.703125 
L 16.9375 69.96875 
L 16.9375 51.859375 
L 25.78125 51.859375 
L 25.78125 45.015625 
L 16.9375 45.015625 
L 16.9375 14.703125 
Q 16.9375 10.9375 17.40625 9.859375 
Q 17.875 8.796875 18.921875 8.15625 
Q 19.96875 7.515625 21.921875 7.515625 
Q 23.390625 7.515625 25.78125 7.859375 
z
" id="ArialMT-116"/>
      <path d="M 6.59375 0 
L 6.59375 71.578125 
L 15.375 71.578125 
L 15.375 45.90625 
Q 21.53125 53.03125 30.90625 53.03125 
Q 36.671875 53.03125 40.921875 50.75 
Q 45.171875 48.484375 47 44.484375 
Q 48.828125 40.484375 48.828125 32.859375 
L 48.828125 0 
L 40.046875 0 
L 40.046875 32.859375 
Q 40.046875 39.453125 37.1875 42.453125 
Q 34.328125 45.453125 29.109375 45.453125 
Q 25.203125 45.453125 21.75 43.421875 
Q 18.3125 41.40625 16.84375 37.9375 
Q 15.375 34.46875 15.375 28.375 
L 15.375 0 
z
" id="ArialMT-104"/>
      <path d="M 3.078125 15.484375 
L 11.765625 16.84375 
Q 12.5 11.625 15.84375 8.84375 
Q 19.1875 6.0625 25.203125 6.0625 
Q 31.25 6.0625 34.171875 8.515625 
Q 37.109375 10.984375 37.109375 14.3125 
Q 37.109375 17.28125 34.515625 19 
Q 32.71875 20.171875 25.53125 21.96875 
Q 15.875 24.421875 12.140625 26.203125 
Q 8.40625 27.984375 6.46875 31.125 
Q 4.546875 34.28125 4.546875 38.09375 
Q 4.546875 41.546875 6.125 44.5 
Q 7.71875 47.46875 10.453125 49.421875 
Q 12.5 50.921875 16.03125 51.96875 
Q 19.578125 53.03125 23.640625 53.03125 
Q 29.734375 53.03125 34.34375 51.265625 
Q 38.96875 49.515625 41.15625 46.5 
Q 43.359375 43.5 44.1875 38.484375 
L 35.59375 37.3125 
Q 35.015625 41.3125 32.203125 43.546875 
Q 29.390625 45.796875 24.265625 45.796875 
Q 18.21875 45.796875 15.625 43.796875 
Q 13.03125 41.796875 13.03125 39.109375 
Q 13.03125 37.40625 14.109375 36.03125 
Q 15.1875 34.625 17.484375 33.6875 
Q 18.796875 33.203125 25.25 31.453125 
Q 34.578125 28.953125 38.25 27.359375 
Q 41.9375 25.78125 44.03125 22.75 
Q 46.140625 19.734375 46.140625 15.234375 
Q 46.140625 10.84375 43.578125 6.953125 
Q 41.015625 3.078125 36.171875 0.953125 
Q 31.34375 -1.171875 25.25 -1.171875 
Q 15.140625 -1.171875 9.84375 3.03125 
Q 4.546875 7.234375 3.078125 15.484375 
z
" id="ArialMT-115"/>
     </defs>
     <g style="fill:#262626;" transform="translate(44.2 37.503125)scale(0.1 -0.1)">
      <use xlink:href="#ArialMT-100"/>
      <use x="55.615234" xlink:href="#ArialMT-101"/>
      <use x="111.230469" xlink:href="#ArialMT-97"/>
      <use x="166.845703" xlink:href="#ArialMT-116"/>
      <use x="194.628906" xlink:href="#ArialMT-104"/>
      <use x="250.244141" xlink:href="#ArialMT-115"/>
     </g>
    </g>
    <g id="line2d_12">
     <path d="M 16.2 48.148438 
L 36.2 48.148438 
" style="fill:none;stroke:#2ca02c;stroke-linecap:round;stroke-width:1.75;"/>
    </g>
    <g id="line2d_13"/>
    <g id="text_3">
     <!-- recovered -->
     <defs>
      <path d="M 21 0 
L 1.265625 51.859375 
L 10.546875 51.859375 
L 21.6875 20.796875 
Q 23.484375 15.765625 25 10.359375 
Q 26.171875 14.453125 28.265625 20.21875 
L 39.796875 51.859375 
L 48.828125 51.859375 
L 29.203125 0 
z
" id="ArialMT-118"/>
     </defs>
     <g style="fill:#262626;" transform="translate(44.2 51.648438)scale(0.1 -0.1)">
      <use xlink:href="#ArialMT-114"/>
      <use x="33.300781" xlink:href="#ArialMT-101"/>
      <use x="88.916016" xlink:href="#ArialMT-99"/>
      <use x="138.916016" xlink:href="#ArialMT-111"/>
      <use x="194.53125" xlink:href="#ArialMT-118"/>
      <use x="244.53125" xlink:href="#ArialMT-101"/>
      <use x="300.146484" xlink:href="#ArialMT-114"/>
      <use x="333.447266" xlink:href="#ArialMT-101"/>
      <use x="389.0625" xlink:href="#ArialMT-100"/>
     </g>
    </g>
    <g id="line2d_14">
     <path d="M 16.2 62.29375 
L 36.2 62.29375 
" style="fill:none;stroke:#d62728;stroke-linecap:round;stroke-width:1.75;"/>
    </g>
    <g id="line2d_15"/>
    <g id="text_4">
     <!-- active -->
     <g style="fill:#262626;" transform="translate(44.2 65.79375)scale(0.1 -0.1)">
      <use xlink:href="#ArialMT-97"/>
      <use x="55.615234" xlink:href="#ArialMT-99"/>
      <use x="105.615234" xlink:href="#ArialMT-116"/>
      <use x="133.398438" xlink:href="#ArialMT-105"/>
      <use x="155.615234" xlink:href="#ArialMT-118"/>
      <use x="205.615234" xlink:href="#ArialMT-101"/>
     </g>
    </g>
    <g id="line2d_16">
     <path d="M 16.2 76.560938 
L 36.2 76.560938 
" style="fill:none;stroke:#9467bd;stroke-linecap:round;stroke-width:1.75;"/>
    </g>
    <g id="line2d_17"/>
    <g id="text_5">
     <!-- new_confirmed -->
     <defs>
      <path d="M 16.15625 0 
L 0.296875 51.859375 
L 9.375 51.859375 
L 17.625 21.921875 
L 20.703125 10.796875 
Q 20.90625 11.625 23.390625 21.484375 
L 31.640625 51.859375 
L 40.671875 51.859375 
L 48.4375 21.78125 
L 51.03125 11.859375 
L 54 21.875 
L 62.890625 51.859375 
L 71.4375 51.859375 
L 55.21875 0 
L 46.09375 0 
L 37.84375 31.0625 
L 35.84375 39.890625 
L 25.34375 0 
z
" id="ArialMT-119"/>
      <path d="M -1.515625 -19.875 
L -1.515625 -13.53125 
L 56.734375 -13.53125 
L 56.734375 -19.875 
z
" id="ArialMT-95"/>
     </defs>
     <g style="fill:#262626;" transform="translate(44.2 80.060938)scale(0.1 -0.1)">
      <use xlink:href="#ArialMT-110"/>
      <use x="55.615234" xlink:href="#ArialMT-101"/>
      <use x="111.230469" xlink:href="#ArialMT-119"/>
      <use x="183.447266" xlink:href="#ArialMT-95"/>
      <use x="239.0625" xlink:href="#ArialMT-99"/>
      <use x="289.0625" xlink:href="#ArialMT-111"/>
      <use x="344.677734" xlink:href="#ArialMT-110"/>
      <use x="400.292969" xlink:href="#ArialMT-102"/>
      <use x="428.076172" xlink:href="#ArialMT-105"/>
      <use x="450.292969" xlink:href="#ArialMT-114"/>
      <use x="483.59375" xlink:href="#ArialMT-109"/>
      <use x="566.894531" xlink:href="#ArialMT-101"/>
      <use x="622.509766" xlink:href="#ArialMT-100"/>
     </g>
    </g>
    <g id="line2d_18">
     <path d="M 16.2 90.70625 
L 36.2 90.70625 
" style="fill:none;stroke:#8c564b;stroke-linecap:round;stroke-width:1.75;"/>
    </g>
    <g id="line2d_19"/>
    <g id="text_6">
     <!-- new_deaths -->
     <g style="fill:#262626;" transform="translate(44.2 94.20625)scale(0.1 -0.1)">
      <use xlink:href="#ArialMT-110"/>
      <use x="55.615234" xlink:href="#ArialMT-101"/>
      <use x="111.230469" xlink:href="#ArialMT-119"/>
      <use x="183.447266" xlink:href="#ArialMT-95"/>
      <use x="239.0625" xlink:href="#ArialMT-100"/>
      <use x="294.677734" xlink:href="#ArialMT-101"/>
      <use x="350.292969" xlink:href="#ArialMT-97"/>
      <use x="405.908203" xlink:href="#ArialMT-116"/>
      <use x="433.691406" xlink:href="#ArialMT-104"/>
      <use x="489.306641" xlink:href="#ArialMT-115"/>
     </g>
    </g>
    <g id="line2d_20">
     <path d="M 16.2 104.851562 
L 36.2 104.851562 
" style="fill:none;stroke:#e377c2;stroke-linecap:round;stroke-width:1.75;"/>
    </g>
    <g id="line2d_21"/>
    <g id="text_7">
     <!-- new_recovered -->
     <g style="fill:#262626;" transform="translate(44.2 108.351562)scale(0.1 -0.1)">
      <use xlink:href="#ArialMT-110"/>
      <use x="55.615234" xlink:href="#ArialMT-101"/>
      <use x="111.230469" xlink:href="#ArialMT-119"/>
      <use x="183.447266" xlink:href="#ArialMT-95"/>
      <use x="239.0625" xlink:href="#ArialMT-114"/>
      <use x="272.363281" xlink:href="#ArialMT-101"/>
      <use x="327.978516" xlink:href="#ArialMT-99"/>
      <use x="377.978516" xlink:href="#ArialMT-111"/>
      <use x="433.59375" xlink:href="#ArialMT-118"/>
      <use x="483.59375" xlink:href="#ArialMT-101"/>
      <use x="539.208984" xlink:href="#ArialMT-114"/>
      <use x="572.509766" xlink:href="#ArialMT-101"/>
      <use x="628.125" xlink:href="#ArialMT-100"/>
     </g>
    </g>
   </g>
  </g>
 </g>
 <defs>
  <clipPath id="p8e30d1f1cd">
   <rect height="396" width="576" x="7.2" y="7.2"/>
  </clipPath>
 </defs>
</svg>
