<?xml version="1.0" encoding="utf-8" standalone="no"?>
<!DOCTYPE svg PUBLIC "-//W3C//DTD SVG 1.1//EN"
  "http://www.w3.org/Graphics/SVG/1.1/DTD/svg11.dtd">
<!-- Created with matplotlib (https://matplotlib.org/) -->
<svg height="410.4pt" version="1.1" viewBox="0 0 590.4 410.4" width="590.4pt" xmlns="http://www.w3.org/2000/svg" xmlns:xlink="http://www.w3.org/1999/xlink">
 <defs>
  <style type="text/css">
*{stroke-linecap:butt;stroke-linejoin:round;}
  </style>
 </defs>
 <g id="figure_1">
  <g id="patch_1">
   <path d="M 0 410.4 
L 590.4 410.4 
L 590.4 0 
L 0 0 
z
" style="fill:none;"/>
  </g>
  <g id="axes_1">
   <g id="line2d_1">
    <path clip-path="url(#p741e39e0ac)" d="M 33.381818 378.079553 
L 37.819414 378.072491 
L 42.257011 378.051737 
L 46.694607 378.015923 
L 51.132203 377.966921 
L 55.5698 377.908623 
L 60.007396 377.717589 
L 64.444992 377.675289 
L 68.882589 377.526122 
L 73.320185 377.404339 
L 77.757781 377.252073 
L 82.195378 376.909854 
L 86.632974 376.686896 
L 91.07057 376.397859 
L 95.508166 376.128061 
L 99.945763 375.898762 
L 104.383359 375.641215 
L 108.820955 375.44456 
L 113.258552 375.226214 
L 117.696148 375.03799 
L 122.133744 374.890985 
L 126.571341 374.860792 
L 131.008937 373.769207 
L 135.446533 373.299584 
L 139.884129 373.145012 
L 144.321726 372.98691 
L 148.759322 372.840337 
L 153.196918 372.705006 
L 157.634515 372.668759 
L 162.072111 372.628549 
L 166.509707 372.582142 
L 170.947304 372.455602 
L 175.3849 372.427787 
L 179.822496 372.385631 
L 184.260092 372.324739 
L 188.697689 372.253975 
L 193.135285 372.156043 
L 197.572881 372.057464 
L 202.010478 371.92134 
L 206.448074 371.751419 
L 210.88567 371.611765 
L 215.323267 371.429089 
L 219.760863 371.264789 
L 224.198459 371.065756 
L 228.636055 370.783708 
L 233.073652 370.492869 
L 237.511248 370.204696 
L 241.948844 369.934682 
L 246.386441 369.574376 
L 250.824037 369.049554 
L 255.261633 368.870986 
L 259.69923 367.656753 
L 264.136826 366.870853 
L 268.574422 366.053101 
L 273.012018 365.037109 
L 277.449615 363.911368 
L 281.887211 362.632497 
L 286.324807 360.629337 
L 290.762404 358.506844 
L 295.2 356.173356 
L 299.637596 353.826104 
L 304.075193 350.859989 
L 308.512789 348.00067 
L 312.950385 344.424124 
L 317.387982 339.956541 
L 321.825578 335.366237 
L 326.263174 330.509163 
L 330.70077 326.225336 
L 335.138367 321.739593 
L 339.575963 316.327935 
L 344.013559 310.914836 
L 348.451156 305.099635 
L 352.888752 299.146364 
L 357.326348 291.832793 
L 361.763945 286.44931 
L 366.201541 281.189846 
L 370.639137 275.353242 
L 375.076733 269.227457 
L 379.51433 263.156582 
L 383.951926 256.212109 
L 388.389522 250.461979 
L 392.827119 245.045421 
L 397.264715 239.955012 
L 401.702311 235.71262 
L 406.139908 229.95759 
L 410.577504 222.997047 
L 415.0151 216.688514 
L 419.452696 211.098864 
L 423.890293 205.0731 
L 428.327889 199.965396 
L 432.765485 194.426478 
L 437.203082 189.033628 
L 441.640678 182.913824 
L 446.078274 175.575824 
L 450.515871 169.37632 
L 454.953467 163.991252 
L 459.391063 158.926137 
L 463.828659 153.547915 
L 468.266256 147.964031 
L 472.703852 143.427052 
L 477.141448 137.162693 
L 481.579045 131.14082 
L 486.016641 125.420163 
L 490.454237 119.920014 
L 494.891834 114.181342 
L 499.32943 107.504864 
L 503.767026 100.992182 
L 508.204622 94.337611 
L 512.642219 88.144304 
L 517.079815 82.545863 
L 521.517411 77.083258 
L 525.955008 70.99761 
L 530.392604 64.867862 
L 534.8302 58.011591 
L 539.267797 50.792204 
L 543.705393 44.182671 
L 548.142989 38.450052 
L 552.580586 32.085383 
L 557.018182 25.2 
" style="fill:none;stroke:#1f77b4;stroke-linecap:round;stroke-width:1.75;"/>
   </g>
   <g id="line2d_2">
    <path clip-path="url(#p741e39e0ac)" d="M 33.381818 378.118322 
L 37.819414 378.11825 
L 42.257011 378.117673 
L 46.694607 378.11652 
L 51.132203 378.115511 
L 55.5698 378.113638 
L 60.007396 378.110107 
L 64.444992 378.109963 
L 68.882589 378.107224 
L 73.320185 378.104198 
L 77.757781 378.100883 
L 82.195378 378.093461 
L 86.632974 378.088849 
L 91.07057 378.084093 
L 95.508166 378.078904 
L 99.945763 378.07386 
L 104.383359 378.067735 
L 108.820955 378.061465 
L 113.258552 378.054259 
L 117.696148 378.046549 
L 122.133744 378.039343 
L 126.571341 378.038982 
L 131.008937 378.020751 
L 135.446533 378.009797 
L 139.884129 377.999493 
L 144.321726 377.991998 
L 148.759322 377.984936 
L 153.196918 377.97492 
L 157.634515 377.966633 
L 162.072111 377.957625 
L 166.509707 377.957337 
L 170.947304 377.94242 
L 175.3849 377.941627 
L 179.822496 377.930098 
L 184.260092 377.924405 
L 188.697689 377.919937 
L 193.135285 377.916766 
L 197.572881 377.912587 
L 202.010478 377.907615 
L 206.448074 377.903651 
L 210.88567 377.897238 
L 215.323267 377.891833 
L 219.760863 377.885059 
L 224.198459 377.878286 
L 228.636055 377.870215 
L 233.073652 377.863153 
L 237.511248 377.845498 
L 241.948844 377.83159 
L 246.386441 377.812422 
L 250.824037 377.786984 
L 255.261633 377.779418 
L 259.69923 377.730128 
L 264.136826 377.700222 
L 268.574422 377.655472 
L 273.012018 377.606038 
L 277.449615 377.549902 
L 281.887211 377.490236 
L 286.324807 377.408518 
L 290.762404 377.305326 
L 295.2 377.184696 
L 299.637596 377.065795 
L 304.075193 376.930752 
L 308.512789 376.778126 
L 312.950385 376.593217 
L 317.387982 376.392238 
L 321.825578 376.159624 
L 326.263174 375.910724 
L 330.70077 375.674868 
L 335.138367 375.41134 
L 339.575963 375.085262 
L 344.013559 374.74643 
L 348.451156 374.301524 
L 352.888752 373.88328 
L 357.326348 373.463956 
L 361.763945 373.120367 
L 366.201541 372.746297 
L 370.639137 372.22025 
L 375.076733 371.753797 
L 379.51433 371.240937 
L 383.951926 370.731464 
L 388.389522 370.300754 
L 392.827119 369.898147 
L 397.264715 369.509521 
L 401.702311 369.040978 
L 406.139908 368.45058 
L 410.577504 367.757063 
L 415.0151 367.034936 
L 419.452696 366.625052 
L 423.890293 366.226265 
L 428.327889 365.870138 
L 432.765485 365.39475 
L 437.203082 364.927576 
L 441.640678 364.366075 
L 446.078274 363.912593 
L 450.515871 363.502204 
L 454.953467 363.235722 
L 459.391063 362.902582 
L 463.828659 362.471223 
L 468.266256 361.715661 
L 472.703852 361.301309 
L 477.141448 360.922122 
L 481.579045 360.55043 
L 486.016641 360.286542 
L 490.454237 359.993468 
L 494.891834 359.582575 
L 499.32943 359.107547 
L 503.767026 358.694203 
L 508.204622 358.310045 
L 512.642219 357.992038 
L 517.079815 357.747174 
L 521.517411 357.48624 
L 525.955008 357.080247 
L 530.392604 356.70315 
L 534.8302 356.326918 
L 539.267797 355.948741 
L 543.705393 355.652209 
L 548.142989 355.406912 
L 552.580586 355.169398 
L 557.018182 354.823216 
" style="fill:none;stroke:#ff7f0e;stroke-linecap:round;stroke-width:1.75;"/>
   </g>
   <g id="line2d_3">
    <path clip-path="url(#p741e39e0ac)" d="M 33.381818 378.117529 
L 37.819414 378.117385 
L 42.257011 378.116953 
L 46.694607 378.116736 
L 51.132203 378.1158 
L 55.5698 378.115151 
L 60.007396 378.111836 
L 64.444992 378.110467 
L 68.882589 378.109242 
L 73.320185 378.103549 
L 77.757781 378.099081 
L 82.195378 378.085534 
L 86.632974 378.074653 
L 91.07057 378.058151 
L 95.508166 378.03855 
L 99.945763 378.012392 
L 104.383359 377.974632 
L 108.820955 377.931034 
L 113.258552 377.88578 
L 117.696148 377.835193 
L 122.133744 377.782084 
L 126.571341 377.748431 
L 131.008937 377.665921 
L 135.446533 377.538877 
L 139.884129 377.442531 
L 144.321726 377.336601 
L 148.759322 377.2128 
L 153.196918 377.085323 
L 157.634515 376.957847 
L 162.072111 376.809689 
L 166.509707 376.758309 
L 170.947304 376.470352 
L 175.3849 376.433745 
L 179.822496 376.301657 
L 184.260092 376.108677 
L 188.697689 375.930037 
L 193.135285 375.721564 
L 197.572881 375.474105 
L 202.010478 375.252805 
L 206.448074 375.041377 
L 210.88567 374.833408 
L 215.323267 374.644103 
L 219.760863 374.432099 
L 224.198459 374.242866 
L 228.636055 374.093771 
L 233.073652 373.914122 
L 237.511248 373.745787 
L 241.948844 373.614852 
L 246.386441 373.478512 
L 250.824037 373.291225 
L 255.261633 373.196032 
L 259.69923 373.05717 
L 264.136826 372.886168 
L 268.574422 372.640439 
L 273.012018 372.492425 
L 277.449615 372.294113 
L 281.887211 372.115905 
L 286.324807 371.997076 
L 290.762404 371.821175 
L 295.2 371.513257 
L 299.637596 371.112092 
L 304.075193 370.844384 
L 308.512789 370.358619 
L 312.950385 369.921567 
L 317.387982 369.317694 
L 321.825578 368.686077 
L 326.263174 368.073556 
L 330.70077 367.376939 
L 335.138367 366.261142 
L 339.575963 365.290621 
L 344.013559 364.199397 
L 348.451156 362.967726 
L 352.888752 361.848398 
L 357.326348 360.381518 
L 361.763945 359.382749 
L 366.201541 358.193522 
L 370.639137 356.497271 
L 375.076733 354.435814 
L 379.51433 352.611655 
L 383.951926 351.017587 
L 388.389522 349.142985 
L 392.827119 347.729719 
L 397.264715 345.788893 
L 401.702311 343.943692 
L 406.139908 341.294863 
L 410.577504 339.054622 
L 415.0151 337.164022 
L 419.452696 335.436281 
L 423.890293 333.160297 
L 428.327889 331.586839 
L 432.765485 329.130919 
L 437.203082 326.978088 
L 441.640678 324.9033 
L 446.078274 320.944685 
L 450.515871 319.26818 
L 454.953467 315.733718 
L 459.391063 313.69914 
L 463.828659 311.199262 
L 468.266256 308.02417 
L 472.703852 304.995146 
L 477.141448 302.215454 
L 481.579045 299.348496 
L 486.016641 297.033599 
L 490.454237 294.332166 
L 494.891834 291.730177 
L 499.32943 288.373491 
L 503.767026 285.539465 
L 508.204622 282.85093 
L 512.642219 278.990319 
L 517.079815 276.586643 
L 521.517411 273.183261 
L 525.955008 270.502221 
L 530.392604 266.529266 
L 534.8302 263.693943 
L 539.267797 260.150402 
L 543.705393 256.105602 
L 548.142989 253.167952 
L 552.580586 249.355045 
L 557.018182 256.435499 
" style="fill:none;stroke:#2ca02c;stroke-linecap:round;stroke-width:1.75;"/>
   </g>
   <g id="line2d_4">
    <path clip-path="url(#p741e39e0ac)" d="M 33.381818 378.090794 
L 37.819414 378.090794 
L 42.257011 378.083949 
L 46.694607 378.069897 
L 51.132203 378.047341 
L 55.5698 378.016643 
L 60.007396 377.867621 
L 64.444992 377.842399 
L 68.882589 377.735893 
L 73.320185 377.666209 
L 77.757781 377.291202 
L 82.195378 376.969953 
L 86.632974 376.762489 
L 91.07057 376.494709 
L 95.508166 376.249701 
L 99.945763 376.051604 
L 104.383359 375.837943 
L 108.820955 375.691154 
L 113.258552 375.525269 
L 117.696148 375.395342 
L 122.133744 375.308652 
L 126.571341 375.312472 
L 131.008937 374.321629 
L 135.446533 373.990003 
L 139.884129 373.942082 
L 144.321726 373.897404 
L 148.759322 373.881695 
L 153.196918 373.883857 
L 157.634515 373.983373 
L 162.072111 374.100329 
L 166.509707 374.105589 
L 170.947304 374.281923 
L 175.3849 374.291507 
L 179.822496 374.39297 
L 184.260092 374.530751 
L 188.697689 374.643094 
L 193.135285 374.756807 
L 197.572881 374.909865 
L 202.010478 375.000014 
L 206.448074 375.045485 
L 210.88567 375.120212 
L 215.323267 375.132246 
L 219.760863 375.186725 
L 224.198459 375.183698 
L 228.636055 375.058816 
L 233.073652 374.954687 
L 237.511248 374.852504 
L 241.948844 374.727334 
L 246.386441 374.522536 
L 250.824037 374.210438 
L 255.261633 374.13463 
L 259.69923 373.108549 
L 264.136826 372.523556 
L 268.574422 371.996284 
L 273.012018 371.177739 
L 277.449615 370.306447 
L 281.887211 369.265449 
L 286.324807 367.462836 
L 290.762404 365.619437 
L 295.2 363.714497 
L 299.637596 361.887311 
L 304.075193 359.323947 
L 308.512789 357.103018 
L 312.950385 354.148434 
L 317.387982 350.485703 
L 321.825578 346.75963 
L 326.263174 342.763976 
L 330.70077 339.412622 
L 335.138367 336.306205 
L 339.575963 332.191145 
L 344.013559 328.208102 
L 348.451156 324.069479 
L 352.888752 319.653779 
L 357.326348 314.226412 
L 361.763945 310.185287 
L 366.201541 306.48912 
L 370.639137 302.874815 
L 375.076733 299.276939 
L 379.51433 295.543084 
L 383.951926 290.702151 
L 388.389522 287.257334 
L 392.827119 283.656648 
L 397.264715 280.895692 
L 401.702311 278.967043 
L 406.139908 276.45124 
L 410.577504 272.424456 
L 415.0151 268.728649 
L 419.452696 265.276625 
L 423.890293 261.925631 
L 428.327889 258.747513 
L 432.765485 256.139903 
L 437.203082 253.367057 
L 441.640678 249.883543 
L 446.078274 246.957639 
L 450.515871 242.845029 
L 454.953467 241.260906 
L 459.391063 238.563508 
L 463.828659 236.116523 
L 468.266256 234.463294 
L 472.703852 233.369692 
L 477.141448 230.264211 
L 481.579045 227.480988 
L 486.016641 224.339116 
L 490.454237 221.833473 
L 494.891834 219.107683 
L 499.32943 216.26292 
L 503.767026 212.997607 
L 508.204622 209.415729 
L 512.642219 207.40104 
L 517.079815 204.451139 
L 521.517411 202.65285 
L 525.955008 199.654236 
L 530.392604 197.874538 
L 534.8302 194.229823 
L 539.267797 190.932155 
L 543.705393 188.663954 
L 548.142989 186.114282 
L 552.580586 183.800033 
L 557.018182 170.180379 
" style="fill:none;stroke:#d62728;stroke-linecap:round;stroke-width:1.75;"/>
   </g>
   <g id="line2d_5">
    <path clip-path="url(#p741e39e0ac)" d="M 33.381818 378.119547 
L 37.819414 378.112701 
L 42.257011 378.098937 
L 46.694607 378.083804 
L 51.132203 378.070617 
L 55.5698 378.061465 
L 60.007396 377.928729 
L 64.444992 378.077607 
L 68.882589 377.970452 
L 73.320185 377.998268 
L 77.757781 377.967353 
L 82.195378 377.777328 
L 86.632974 377.896589 
L 91.07057 377.830581 
L 95.508166 377.849749 
L 99.945763 377.890248 
L 104.383359 377.866396 
L 108.820955 377.922892 
L 113.258552 377.901201 
L 117.696148 377.931323 
L 122.133744 377.972542 
L 126.571341 378.089353 
L 131.008937 377.027962 
L 135.446533 377.649995 
L 139.884129 377.964975 
L 144.321726 377.961444 
L 148.759322 377.972974 
L 153.196918 377.984216 
L 157.634515 378.083444 
L 162.072111 378.079337 
L 166.509707 378.073283 
L 170.947304 377.993007 
L 175.3849 378.091731 
L 179.822496 378.077751 
L 184.260092 378.059015 
L 188.697689 378.049287 
L 193.135285 378.021904 
L 197.572881 378.021471 
L 202.010478 377.983567 
L 206.448074 377.950491 
L 210.88567 377.980541 
L 215.323267 377.93716 
L 219.760863 377.955968 
L 224.198459 377.921162 
L 228.636055 377.838075 
L 233.073652 377.829428 
L 237.511248 377.832311 
L 241.948844 377.850038 
L 246.386441 377.759673 
L 250.824037 377.58896 
L 255.261633 377.941267 
L 259.69923 376.906251 
L 264.136826 377.335592 
L 268.574422 377.301795 
L 273.012018 377.104708 
L 277.449615 376.994166 
L 281.887211 376.841324 
L 286.324807 376.116676 
L 290.762404 375.997486 
L 295.2 375.786347 
L 299.637596 375.761197 
L 304.075193 375.153504 
L 308.512789 375.209136 
L 312.950385 374.594741 
L 317.387982 373.652108 
L 321.825578 373.52982 
L 326.263174 373.262616 
L 330.70077 373.83572 
L 335.138367 373.63402 
L 339.575963 372.708105 
L 344.013559 372.706447 
L 348.451156 372.304562 
L 352.888752 372.166276 
L 357.326348 370.805975 
L 361.763945 372.736425 
L 366.201541 372.86037 
L 370.639137 372.282943 
L 375.076733 371.993761 
L 379.51433 372.048672 
L 383.951926 371.175145 
L 388.389522 372.369417 
L 392.827119 372.702989 
L 397.264715 373.029138 
L 401.702311 373.877155 
L 406.139908 372.364517 
L 410.577504 371.159004 
L 415.0151 371.811014 
L 419.452696 372.529897 
L 423.890293 372.093782 
L 428.327889 373.011843 
L 432.765485 372.580628 
L 437.203082 372.726697 
L 441.640678 371.999743 
L 446.078274 370.781547 
L 450.515871 371.920043 
L 454.953467 372.734479 
L 459.391063 373.054431 
L 463.828659 372.741325 
L 468.266256 372.535662 
L 472.703852 373.583722 
L 477.141448 371.855188 
L 481.579045 372.097674 
L 486.016641 372.39889 
L 490.454237 372.619397 
L 494.891834 372.380875 
L 499.32943 371.443069 
L 503.767026 371.606864 
L 508.204622 371.464976 
L 512.642219 371.92624 
L 517.079815 372.521106 
L 521.517411 372.656941 
L 525.955008 372.0339 
L 530.392604 371.98987 
L 534.8302 371.263276 
L 539.267797 370.900159 
L 543.705393 371.510014 
L 548.142989 372.386928 
L 552.580586 371.754878 
L 557.018182 371.234163 
" style="fill:none;stroke:#9467bd;stroke-linecap:round;stroke-width:1.75;"/>
   </g>
   <g id="line2d_6">
    <path clip-path="url(#p741e39e0ac)" d="M 33.381818 378.119547 
L 37.819414 378.119475 
L 42.257011 378.11897 
L 46.694607 378.118394 
L 51.132203 378.118538 
L 55.5698 378.117673 
L 60.007396 378.116016 
L 64.444992 378.119403 
L 68.882589 378.116808 
L 73.320185 378.11652 
L 77.757781 378.116232 
L 82.195378 378.112124 
L 86.632974 378.114935 
L 91.07057 378.114791 
L 95.508166 378.114358 
L 99.945763 378.114502 
L 104.383359 378.113422 
L 108.820955 378.113277 
L 113.258552 378.112341 
L 117.696148 378.111836 
L 122.133744 378.112341 
L 126.571341 378.119186 
L 131.008937 378.101315 
L 135.446533 378.108593 
L 139.884129 378.109242 
L 144.321726 378.112052 
L 148.759322 378.112485 
L 153.196918 378.10953 
L 157.634515 378.111404 
L 162.072111 378.110539 
L 166.509707 378.119259 
L 170.947304 378.10463 
L 175.3849 378.118754 
L 179.822496 378.108017 
L 184.260092 378.113854 
L 188.697689 378.115079 
L 193.135285 378.116376 
L 197.572881 378.115367 
L 202.010478 378.114575 
L 206.448074 378.115583 
L 210.88567 378.113133 
L 215.323267 378.114142 
L 219.760863 378.112773 
L 224.198459 378.112773 
L 228.636055 378.111476 
L 233.073652 378.112485 
L 237.511248 378.101892 
L 241.948844 378.105639 
L 246.386441 378.100378 
L 250.824037 378.093893 
L 255.261633 378.112052 
L 259.69923 378.070329 
L 264.136826 378.089641 
L 268.574422 378.074797 
L 273.012018 378.070113 
L 277.449615 378.063411 
L 281.887211 378.05988 
L 286.324807 378.037829 
L 290.762404 378.016355 
L 295.2 377.998916 
L 299.637596 378.000574 
L 304.075193 377.984504 
L 308.512789 377.966344 
L 312.950385 377.935358 
L 317.387982 377.918568 
L 321.825578 377.886933 
L 326.263174 377.870647 
L 330.70077 377.88369 
L 335.138367 377.856019 
L 339.575963 377.793469 
L 344.013559 377.780715 
L 348.451156 377.67464 
L 352.888752 377.701303 
L 357.326348 377.700222 
L 361.763945 377.775959 
L 366.201541 377.745477 
L 370.639137 377.593499 
L 375.076733 377.653094 
L 379.51433 377.606687 
L 383.951926 377.610074 
L 388.389522 377.688837 
L 392.827119 377.71694 
L 397.264715 377.73092 
L 401.702311 377.651004 
L 406.139908 377.529149 
L 410.577504 377.426029 
L 415.0151 377.397421 
L 419.452696 377.709662 
L 423.890293 377.72076 
L 428.327889 377.76342 
L 432.765485 377.644159 
L 437.203082 377.652373 
L 441.640678 377.558045 
L 446.078274 377.666065 
L 450.515871 377.709158 
L 454.953467 377.853064 
L 459.391063 377.786407 
L 463.828659 377.688188 
L 468.266256 377.363984 
L 472.703852 377.705194 
L 477.141448 377.74036 
L 481.579045 377.747855 
L 486.016641 377.855658 
L 490.454237 377.826474 
L 494.891834 377.708653 
L 499.32943 377.644519 
L 503.767026 377.706203 
L 508.204622 377.735388 
L 512.642219 377.80154 
L 517.079815 377.874683 
L 521.517411 377.858613 
L 525.955008 377.713554 
L 530.392604 377.74245 
L 534.8302 377.743315 
L 539.267797 377.741369 
L 543.705393 377.823015 
L 548.142989 377.87425 
L 552.580586 377.882033 
L 557.018182 377.773364 
" style="fill:none;stroke:#8c564b;stroke-linecap:round;stroke-width:1.75;"/>
   </g>
   <g id="line2d_7">
    <path clip-path="url(#p741e39e0ac)" d="M 33.381818 378.119547 
L 37.819414 378.119403 
L 42.257011 378.119114 
L 46.694607 378.119331 
L 51.132203 378.11861 
L 55.5698 378.118898 
L 60.007396 378.116232 
L 64.444992 378.118178 
L 68.882589 378.118322 
L 73.320185 378.113854 
L 77.757781 378.115079 
L 82.195378 378.105999 
L 86.632974 378.108666 
L 91.07057 378.103045 
L 95.508166 378.099946 
L 99.945763 378.093389 
L 104.383359 378.081787 
L 108.820955 378.07595 
L 113.258552 378.074292 
L 117.696148 378.06896 
L 122.133744 378.066438 
L 126.571341 378.085894 
L 131.008937 378.037037 
L 135.446533 377.992503 
L 139.884129 378.023201 
L 144.321726 378.013617 
L 148.759322 377.995746 
L 153.196918 377.99207 
L 157.634515 377.99207 
L 162.072111 377.971389 
L 166.509707 378.068167 
L 170.947304 377.83159 
L 175.3849 378.08294 
L 179.822496 377.987458 
L 184.260092 377.926567 
L 188.697689 377.940907 
L 193.135285 377.911073 
L 197.572881 377.872088 
L 202.010478 377.898247 
L 206.448074 377.908119 
L 210.88567 377.911578 
L 215.323267 377.930242 
L 219.760863 377.907542 
L 224.198459 377.930314 
L 228.636055 377.970452 
L 233.073652 377.939898 
L 237.511248 377.951212 
L 241.948844 377.988611 
L 246.386441 377.983351 
L 250.824037 377.926639 
L 255.261633 378.024354 
L 259.69923 377.980685 
L 264.136826 377.948545 
L 268.574422 377.873818 
L 273.012018 377.971533 
L 277.449615 377.921234 
L 281.887211 377.941339 
L 286.324807 378.000718 
L 290.762404 377.943645 
L 295.2 377.811629 
L 299.637596 377.717949 
L 304.075193 377.851839 
L 308.512789 377.592923 
L 312.950385 377.724795 
L 317.387982 377.515673 
L 321.825578 377.48793 
L 326.263174 377.507026 
L 330.70077 377.42293 
L 335.138367 377.00375 
L 339.575963 377.149025 
L 344.013559 377.028323 
L 348.451156 376.887875 
L 352.888752 377.000219 
L 357.326348 376.652667 
L 361.763945 377.120777 
L 366.201541 376.930319 
L 370.639137 376.423296 
L 375.076733 376.05809 
L 379.51433 376.295388 
L 383.951926 376.525479 
L 388.389522 376.244945 
L 392.827119 376.706281 
L 397.264715 376.17872 
L 401.702311 376.274346 
L 406.139908 375.470718 
L 410.577504 375.879306 
L 415.0151 376.228947 
L 419.452696 376.391806 
L 423.890293 375.843563 
L 428.327889 376.546089 
L 432.765485 375.663626 
L 437.203082 375.966716 
L 441.640678 376.044758 
L 446.078274 374.160932 
L 450.515871 376.443041 
L 454.953467 374.585085 
L 459.391063 376.084969 
L 463.828659 375.619669 
L 468.266256 374.944455 
L 472.703852 375.090523 
L 477.141448 375.339855 
L 481.579045 375.252589 
L 486.016641 375.80465 
L 490.454237 375.418113 
L 494.891834 375.517558 
L 499.32943 374.76286 
L 503.767026 375.285521 
L 508.204622 375.431012 
L 512.642219 374.258936 
L 517.079815 375.715871 
L 521.517411 374.716165 
L 525.955008 375.438507 
L 530.392604 374.146592 
L 534.8302 375.284224 
L 539.267797 374.576005 
L 543.705393 374.074747 
L 548.142989 375.181897 
L 552.580586 374.30664 
L 557.018182 385.2 
" style="fill:none;stroke:#e377c2;stroke-linecap:round;stroke-width:1.75;"/>
   </g>
   <g id="legend_1">
    <g id="patch_2">
     <path d="M 14.2 114.339063 
L 114.56875 114.339063 
Q 116.56875 114.339063 116.56875 112.339063 
L 116.56875 14.2 
Q 116.56875 12.2 114.56875 12.2 
L 14.2 12.2 
Q 12.2 12.2 12.2 14.2 
L 12.2 112.339063 
Q 12.2 114.339063 14.2 114.339063 
z
" style="fill:#ffffff;opacity:0.8;stroke:#cccccc;stroke-linejoin:miter;stroke-width:0.3;"/>
    </g>
    <g id="line2d_8">
     <path d="M 16.2 19.857813 
L 36.2 19.857813 
" style="fill:none;stroke:#1f77b4;stroke-linecap:round;stroke-width:1.75;"/>
    </g>
    <g id="line2d_9"/>
    <g id="text_1">
     <!-- confirmed -->
     <defs>
      <path d="M 40.4375 19 
L 49.078125 17.875 
Q 47.65625 8.9375 41.8125 3.875 
Q 35.984375 -1.171875 27.484375 -1.171875 
Q 16.84375 -1.171875 10.375 5.78125 
Q 3.90625 12.75 3.90625 25.734375 
Q 3.90625 34.125 6.6875 40.421875 
Q 9.46875 46.734375 15.15625 49.875 
Q 20.84375 53.03125 27.546875 53.03125 
Q 35.984375 53.03125 41.359375 48.75 
Q 46.734375 44.484375 48.25 36.625 
L 39.703125 35.296875 
Q 38.484375 40.53125 35.375 43.15625 
Q 32.28125 45.796875 27.875 45.796875 
Q 21.234375 45.796875 17.078125 41.03125 
Q 12.9375 36.28125 12.9375 25.984375 
Q 12.9375 15.53125 16.9375 10.796875 
Q 20.953125 6.0625 27.390625 6.0625 
Q 32.5625 6.0625 36.03125 9.234375 
Q 39.5 12.40625 40.4375 19 
z
" id="ArialMT-99"/>
      <path d="M 3.328125 25.921875 
Q 3.328125 40.328125 11.328125 47.265625 
Q 18.015625 53.03125 27.640625 53.03125 
Q 38.328125 53.03125 45.109375 46.015625 
Q 51.90625 39.015625 51.90625 26.65625 
Q 51.90625 16.65625 48.90625 10.90625 
Q 45.90625 5.171875 40.15625 2 
Q 34.421875 -1.171875 27.640625 -1.171875 
Q 16.75 -1.171875 10.03125 5.8125 
Q 3.328125 12.796875 3.328125 25.921875 
z
M 12.359375 25.921875 
Q 12.359375 15.96875 16.703125 11.015625 
Q 21.046875 6.0625 27.640625 6.0625 
Q 34.1875 6.0625 38.53125 11.03125 
Q 42.875 16.015625 42.875 26.21875 
Q 42.875 35.84375 38.5 40.796875 
Q 34.125 45.75 27.640625 45.75 
Q 21.046875 45.75 16.703125 40.8125 
Q 12.359375 35.890625 12.359375 25.921875 
z
" id="ArialMT-111"/>
      <path d="M 6.59375 0 
L 6.59375 51.859375 
L 14.5 51.859375 
L 14.5 44.484375 
Q 20.21875 53.03125 31 53.03125 
Q 35.6875 53.03125 39.625 51.34375 
Q 43.5625 49.65625 45.515625 46.921875 
Q 47.46875 44.1875 48.25 40.4375 
Q 48.734375 37.984375 48.734375 31.890625 
L 48.734375 0 
L 39.9375 0 
L 39.9375 31.546875 
Q 39.9375 36.921875 38.90625 39.578125 
Q 37.890625 42.234375 35.28125 43.8125 
Q 32.671875 45.40625 29.15625 45.40625 
Q 23.53125 45.40625 19.453125 41.84375 
Q 15.375 38.28125 15.375 28.328125 
L 15.375 0 
z
" id="ArialMT-110"/>
      <path d="M 8.6875 0 
L 8.6875 45.015625 
L 0.921875 45.015625 
L 0.921875 51.859375 
L 8.6875 51.859375 
L 8.6875 57.375 
Q 8.6875 62.59375 9.625 65.140625 
Q 10.890625 68.5625 14.078125 70.671875 
Q 17.28125 72.796875 23.046875 72.796875 
Q 26.765625 72.796875 31.25 71.921875 
L 29.9375 64.265625 
Q 27.203125 64.75 24.75 64.75 
Q 20.75 64.75 19.09375 63.03125 
Q 17.4375 61.328125 17.4375 56.640625 
L 17.4375 51.859375 
L 27.546875 51.859375 
L 27.546875 45.015625 
L 17.4375 45.015625 
L 17.4375 0 
z
" id="ArialMT-102"/>
      <path d="M 6.640625 61.46875 
L 6.640625 71.578125 
L 15.4375 71.578125 
L 15.4375 61.46875 
z
M 6.640625 0 
L 6.640625 51.859375 
L 15.4375 51.859375 
L 15.4375 0 
z
" id="ArialMT-105"/>
      <path d="M 6.5 0 
L 6.5 51.859375 
L 14.40625 51.859375 
L 14.40625 44 
Q 17.4375 49.515625 20 51.265625 
Q 22.5625 53.03125 25.640625 53.03125 
Q 30.078125 53.03125 34.671875 50.203125 
L 31.640625 42.046875 
Q 28.421875 43.953125 25.203125 43.953125 
Q 22.3125 43.953125 20.015625 42.21875 
Q 17.71875 40.484375 16.75 37.40625 
Q 15.28125 32.71875 15.28125 27.15625 
L 15.28125 0 
z
" id="ArialMT-114"/>
      <path d="M 6.59375 0 
L 6.59375 51.859375 
L 14.453125 51.859375 
L 14.453125 44.578125 
Q 16.890625 48.390625 20.9375 50.703125 
Q 25 53.03125 30.171875 53.03125 
Q 35.9375 53.03125 39.625 50.640625 
Q 43.3125 48.25 44.828125 43.953125 
Q 50.984375 53.03125 60.84375 53.03125 
Q 68.5625 53.03125 72.703125 48.75 
Q 76.859375 44.484375 76.859375 35.59375 
L 76.859375 0 
L 68.109375 0 
L 68.109375 32.671875 
Q 68.109375 37.9375 67.25 40.25 
Q 66.40625 42.578125 64.15625 43.984375 
Q 61.921875 45.40625 58.890625 45.40625 
Q 53.421875 45.40625 49.796875 41.765625 
Q 46.1875 38.140625 46.1875 30.125 
L 46.1875 0 
L 37.40625 0 
L 37.40625 33.6875 
Q 37.40625 39.546875 35.25 42.46875 
Q 33.109375 45.40625 28.21875 45.40625 
Q 24.515625 45.40625 21.359375 43.453125 
Q 18.21875 41.5 16.796875 37.734375 
Q 15.375 33.984375 15.375 26.90625 
L 15.375 0 
z
" id="ArialMT-109"/>
      <path d="M 42.09375 16.703125 
L 51.171875 15.578125 
Q 49.03125 7.625 43.21875 3.21875 
Q 37.40625 -1.171875 28.375 -1.171875 
Q 17 -1.171875 10.328125 5.828125 
Q 3.65625 12.84375 3.65625 25.484375 
Q 3.65625 38.578125 10.390625 45.796875 
Q 17.140625 53.03125 27.875 53.03125 
Q 38.28125 53.03125 44.875 45.953125 
Q 51.46875 38.875 51.46875 26.03125 
Q 51.46875 25.25 51.421875 23.6875 
L 12.75 23.6875 
Q 13.234375 15.140625 17.578125 10.59375 
Q 21.921875 6.0625 28.421875 6.0625 
Q 33.25 6.0625 36.671875 8.59375 
Q 40.09375 11.140625 42.09375 16.703125 
z
M 13.234375 30.90625 
L 42.1875 30.90625 
Q 41.609375 37.453125 38.875 40.71875 
Q 34.671875 45.796875 27.984375 45.796875 
Q 21.921875 45.796875 17.796875 41.75 
Q 13.671875 37.703125 13.234375 30.90625 
z
" id="ArialMT-101"/>
      <path d="M 40.234375 0 
L 40.234375 6.546875 
Q 35.296875 -1.171875 25.734375 -1.171875 
Q 19.53125 -1.171875 14.328125 2.25 
Q 9.125 5.671875 6.265625 11.796875 
Q 3.421875 17.921875 3.421875 25.875 
Q 3.421875 33.640625 6 39.96875 
Q 8.59375 46.296875 13.765625 49.65625 
Q 18.953125 53.03125 25.34375 53.03125 
Q 30.03125 53.03125 33.6875 51.046875 
Q 37.359375 49.078125 39.65625 45.90625 
L 39.65625 71.578125 
L 48.390625 71.578125 
L 48.390625 0 
z
M 12.453125 25.875 
Q 12.453125 15.921875 16.640625 10.984375 
Q 20.84375 6.0625 26.5625 6.0625 
Q 32.328125 6.0625 36.34375 10.765625 
Q 40.375 15.484375 40.375 25.140625 
Q 40.375 35.796875 36.265625 40.765625 
Q 32.171875 45.75 26.171875 45.75 
Q 20.3125 45.75 16.375 40.96875 
Q 12.453125 36.1875 12.453125 25.875 
z
" id="ArialMT-100"/>
     </defs>
     <g style="fill:#262626;" transform="translate(44.2 23.357813)scale(0.1 -0.1)">
      <use xlink:href="#ArialMT-99"/>
      <use x="50" xlink:href="#ArialMT-111"/>
      <use x="105.615234" xlink:href="#ArialMT-110"/>
      <use x="161.230469" xlink:href="#ArialMT-102"/>
      <use x="189.013672" xlink:href="#ArialMT-105"/>
      <use x="211.230469" xlink:href="#ArialMT-114"/>
      <use x="244.53125" xlink:href="#ArialMT-109"/>
      <use x="327.832031" xlink:href="#ArialMT-101"/>
      <use x="383.447266" xlink:href="#ArialMT-100"/>
     </g>
    </g>
    <g id="line2d_10">
     <path d="M 16.2 34.003125 
L 36.2 34.003125 
" style="fill:none;stroke:#ff7f0e;stroke-linecap:round;stroke-width:1.75;"/>
    </g>
    <g id="line2d_11"/>
    <g id="text_2">
     <!-- deaths -->
     <defs>
      <path d="M 40.4375 6.390625 
Q 35.546875 2.25 31.03125 0.53125 
Q 26.515625 -1.171875 21.34375 -1.171875 
Q 12.796875 -1.171875 8.203125 3 
Q 3.609375 7.171875 3.609375 13.671875 
Q 3.609375 17.484375 5.34375 20.625 
Q 7.078125 23.78125 9.890625 25.6875 
Q 12.703125 27.59375 16.21875 28.5625 
Q 18.796875 29.25 24.03125 29.890625 
Q 34.671875 31.15625 39.703125 32.90625 
Q 39.75 34.71875 39.75 35.203125 
Q 39.75 40.578125 37.25 42.78125 
Q 33.890625 45.75 27.25 45.75 
Q 21.046875 45.75 18.09375 43.578125 
Q 15.140625 41.40625 13.71875 35.890625 
L 5.125 37.0625 
Q 6.296875 42.578125 8.984375 45.96875 
Q 11.671875 49.359375 16.75 51.1875 
Q 21.828125 53.03125 28.515625 53.03125 
Q 35.15625 53.03125 39.296875 51.46875 
Q 43.453125 49.90625 45.40625 47.53125 
Q 47.359375 45.171875 48.140625 41.546875 
Q 48.578125 39.3125 48.578125 33.453125 
L 48.578125 21.734375 
Q 48.578125 9.46875 49.140625 6.21875 
Q 49.703125 2.984375 51.375 0 
L 42.1875 0 
Q 40.828125 2.734375 40.4375 6.390625 
z
M 39.703125 26.03125 
Q 34.90625 24.078125 25.34375 22.703125 
Q 19.921875 21.921875 17.671875 20.9375 
Q 15.4375 19.96875 14.203125 18.09375 
Q 12.984375 16.21875 12.984375 13.921875 
Q 12.984375 10.40625 15.640625 8.0625 
Q 18.3125 5.71875 23.4375 5.71875 
Q 28.515625 5.71875 32.46875 7.9375 
Q 36.421875 10.15625 38.28125 14.015625 
Q 39.703125 17 39.703125 22.796875 
z
" id="ArialMT-97"/>
      <path d="M 25.78125 7.859375 
L 27.046875 0.09375 
Q 23.34375 -0.6875 20.40625 -0.6875 
Q 15.625 -0.6875 12.984375 0.828125 
Q 10.359375 2.34375 9.28125 4.8125 
Q 8.203125 7.28125 8.203125 15.1875 
L 8.203125 45.015625 
L 1.765625 45.015625 
L 1.765625 51.859375 
L 8.203125 51.859375 
L 8.203125 64.703125 
L 16.9375 69.96875 
L 16.9375 51.859375 
L 25.78125 51.859375 
L 25.78125 45.015625 
L 16.9375 45.015625 
L 16.9375 14.703125 
Q 16.9375 10.9375 17.40625 9.859375 
Q 17.875 8.796875 18.921875 8.15625 
Q 19.96875 7.515625 21.921875 7.515625 
Q 23.390625 7.515625 25.78125 7.859375 
z
" id="ArialMT-116"/>
      <path d="M 6.59375 0 
L 6.59375 71.578125 
L 15.375 71.578125 
L 15.375 45.90625 
Q 21.53125 53.03125 30.90625 53.03125 
Q 36.671875 53.03125 40.921875 50.75 
Q 45.171875 48.484375 47 44.484375 
Q 48.828125 40.484375 48.828125 32.859375 
L 48.828125 0 
L 40.046875 0 
L 40.046875 32.859375 
Q 40.046875 39.453125 37.1875 42.453125 
Q 34.328125 45.453125 29.109375 45.453125 
Q 25.203125 45.453125 21.75 43.421875 
Q 18.3125 41.40625 16.84375 37.9375 
Q 15.375 34.46875 15.375 28.375 
L 15.375 0 
z
" id="ArialMT-104"/>
      <path d="M 3.078125 15.484375 
L 11.765625 16.84375 
Q 12.5 11.625 15.84375 8.84375 
Q 19.1875 6.0625 25.203125 6.0625 
Q 31.25 6.0625 34.171875 8.515625 
Q 37.109375 10.984375 37.109375 14.3125 
Q 37.109375 17.28125 34.515625 19 
Q 32.71875 20.171875 25.53125 21.96875 
Q 15.875 24.421875 12.140625 26.203125 
Q 8.40625 27.984375 6.46875 31.125 
Q 4.546875 34.28125 4.546875 38.09375 
Q 4.546875 41.546875 6.125 44.5 
Q 7.71875 47.46875 10.453125 49.421875 
Q 12.5 50.921875 16.03125 51.96875 
Q 19.578125 53.03125 23.640625 53.03125 
Q 29.734375 53.03125 34.34375 51.265625 
Q 38.96875 49.515625 41.15625 46.5 
Q 43.359375 43.5 44.1875 38.484375 
L 35.59375 37.3125 
Q 35.015625 41.3125 32.203125 43.546875 
Q 29.390625 45.796875 24.265625 45.796875 
Q 18.21875 45.796875 15.625 43.796875 
Q 13.03125 41.796875 13.03125 39.109375 
Q 13.03125 37.40625 14.109375 36.03125 
Q 15.1875 34.625 17.484375 33.6875 
Q 18.796875 33.203125 25.25 31.453125 
Q 34.578125 28.953125 38.25 27.359375 
Q 41.9375 25.78125 44.03125 22.75 
Q 46.140625 19.734375 46.140625 15.234375 
Q 46.140625 10.84375 43.578125 6.953125 
Q 41.015625 3.078125 36.171875 0.953125 
Q 31.34375 -1.171875 25.25 -1.171875 
Q 15.140625 -1.171875 9.84375 3.03125 
Q 4.546875 7.234375 3.078125 15.484375 
z
" id="ArialMT-115"/>
     </defs>
     <g style="fill:#262626;" transform="translate(44.2 37.503125)scale(0.1 -0.1)">
      <use xlink:href="#ArialMT-100"/>
      <use x="55.615234" xlink:href="#ArialMT-101"/>
      <use x="111.230469" xlink:href="#ArialMT-97"/>
      <use x="166.845703" xlink:href="#ArialMT-116"/>
      <use x="194.628906" xlink:href="#ArialMT-104"/>
      <use x="250.244141" xlink:href="#ArialMT-115"/>
     </g>
    </g>
    <g id="line2d_12">
     <path d="M 16.2 48.148438 
L 36.2 48.148438 
" style="fill:none;stroke:#2ca02c;stroke-linecap:round;stroke-width:1.75;"/>
    </g>
    <g id="line2d_13"/>
    <g id="text_3">
     <!-- recovered -->
     <defs>
      <path d="M 21 0 
L 1.265625 51.859375 
L 10.546875 51.859375 
L 21.6875 20.796875 
Q 23.484375 15.765625 25 10.359375 
Q 26.171875 14.453125 28.265625 20.21875 
L 39.796875 51.859375 
L 48.828125 51.859375 
L 29.203125 0 
z
" id="ArialMT-118"/>
     </defs>
     <g style="fill:#262626;" transform="translate(44.2 51.648438)scale(0.1 -0.1)">
      <use xlink:href="#ArialMT-114"/>
      <use x="33.300781" xlink:href="#ArialMT-101"/>
      <use x="88.916016" xlink:href="#ArialMT-99"/>
      <use x="138.916016" xlink:href="#ArialMT-111"/>
      <use x="194.53125" xlink:href="#ArialMT-118"/>
      <use x="244.53125" xlink:href="#ArialMT-101"/>
      <use x="300.146484" xlink:href="#ArialMT-114"/>
      <use x="333.447266" xlink:href="#ArialMT-101"/>
      <use x="389.0625" xlink:href="#ArialMT-100"/>
     </g>
    </g>
    <g id="line2d_14">
     <path d="M 16.2 62.29375 
L 36.2 62.29375 
" style="fill:none;stroke:#d62728;stroke-linecap:round;stroke-width:1.75;"/>
    </g>
    <g id="line2d_15"/>
    <g id="text_4">
     <!-- active -->
     <g style="fill:#262626;" transform="translate(44.2 65.79375)scale(0.1 -0.1)">
      <use xlink:href="#ArialMT-97"/>
      <use x="55.615234" xlink:href="#ArialMT-99"/>
      <use x="105.615234" xlink:href="#ArialMT-116"/>
      <use x="133.398438" xlink:href="#ArialMT-105"/>
      <use x="155.615234" xlink:href="#ArialMT-118"/>
      <use x="205.615234" xlink:href="#ArialMT-101"/>
     </g>
    </g>
    <g id="line2d_16">
     <path d="M 16.2 76.560938 
L 36.2 76.560938 
" style="fill:none;stroke:#9467bd;stroke-linecap:round;stroke-width:1.75;"/>
    </g>
    <g id="line2d_17"/>
    <g id="text_5">
     <!-- new_confirmed -->
     <defs>
      <path d="M 16.15625 0 
L 0.296875 51.859375 
L 9.375 51.859375 
L 17.625 21.921875 
L 20.703125 10.796875 
Q 20.90625 11.625 23.390625 21.484375 
L 31.640625 51.859375 
L 40.671875 51.859375 
L 48.4375 21.78125 
L 51.03125 11.859375 
L 54 21.875 
L 62.890625 51.859375 
L 71.4375 51.859375 
L 55.21875 0 
L 46.09375 0 
L 37.84375 31.0625 
L 35.84375 39.890625 
L 25.34375 0 
z
" id="ArialMT-119"/>
      <path d="M -1.515625 -19.875 
L -1.515625 -13.53125 
L 56.734375 -13.53125 
L 56.734375 -19.875 
z
" id="ArialMT-95"/>
     </defs>
     <g style="fill:#262626;" transform="translate(44.2 80.060938)scale(0.1 -0.1)">
      <use xlink:href="#ArialMT-110"/>
      <use x="55.615234" xlink:href="#ArialMT-101"/>
      <use x="111.230469" xlink:href="#ArialMT-119"/>
      <use x="183.447266" xlink:href="#ArialMT-95"/>
      <use x="239.0625" xlink:href="#ArialMT-99"/>
      <use x="289.0625" xlink:href="#ArialMT-111"/>
      <use x="344.677734" xlink:href="#ArialMT-110"/>
      <use x="400.292969" xlink:href="#ArialMT-102"/>
      <use x="428.076172" xlink:href="#ArialMT-105"/>
      <use x="450.292969" xlink:href="#ArialMT-114"/>
      <use x="483.59375" xlink:href="#ArialMT-109"/>
      <use x="566.894531" xlink:href="#ArialMT-101"/>
      <use x="622.509766" xlink:href="#ArialMT-100"/>
     </g>
    </g>
    <g id="line2d_18">
     <path d="M 16.2 90.70625 
L 36.2 90.70625 
" style="fill:none;stroke:#8c564b;stroke-linecap:round;stroke-width:1.75;"/>
    </g>
    <g id="line2d_19"/>
    <g id="text_6">
     <!-- new_deaths -->
     <g style="fill:#262626;" transform="translate(44.2 94.20625)scale(0.1 -0.1)">
      <use xlink:href="#ArialMT-110"/>
      <use x="55.615234" xlink:href="#ArialMT-101"/>
      <use x="111.230469" xlink:href="#ArialMT-119"/>
      <use x="183.447266" xlink:href="#ArialMT-95"/>
      <use x="239.0625" xlink:href="#ArialMT-100"/>
      <use x="294.677734" xlink:href="#ArialMT-101"/>
      <use x="350.292969" xlink:href="#ArialMT-97"/>
      <use x="405.908203" xlink:href="#ArialMT-116"/>
      <use x="433.691406" xlink:href="#ArialMT-104"/>
      <use x="489.306641" xlink:href="#ArialMT-115"/>
     </g>
    </g>
    <g id="line2d_20">
     <path d="M 16.2 104.851562 
L 36.2 104.851562 
" style="fill:none;stroke:#e377c2;stroke-linecap:round;stroke-width:1.75;"/>
    </g>
    <g id="line2d_21"/>
    <g id="text_7">
     <!-- new_recovered -->
     <g style="fill:#262626;" transform="translate(44.2 108.351562)scale(0.1 -0.1)">
      <use xlink:href="#ArialMT-110"/>
      <use x="55.615234" xlink:href="#ArialMT-101"/>
      <use x="111.230469" xlink:href="#ArialMT-119"/>
      <use x="183.447266" xlink:href="#ArialMT-95"/>
      <use x="239.0625" xlink:href="#ArialMT-114"/>
      <use x="272.363281" xlink:href="#ArialMT-101"/>
      <use x="327.978516" xlink:href="#ArialMT-99"/>
      <use x="377.978516" xlink:href="#ArialMT-111"/>
      <use x="433.59375" xlink:href="#ArialMT-118"/>
      <use x="483.59375" xlink:href="#ArialMT-101"/>
      <use x="539.208984" xlink:href="#ArialMT-114"/>
      <use x="572.509766" xlink:href="#ArialMT-101"/>
      <use x="628.125" xlink:href="#ArialMT-100"/>
     </g>
    </g>
   </g>
  </g>
 </g>
 <defs>
  <clipPath id="p741e39e0ac">
   <rect height="396" width="576" x="7.2" y="7.2"/>
  </clipPath>
 </defs>
</svg>
