<?xml version="1.0" encoding="utf-8" standalone="no"?>
<!DOCTYPE svg PUBLIC "-//W3C//DTD SVG 1.1//EN"
  "http://www.w3.org/Graphics/SVG/1.1/DTD/svg11.dtd">
<!-- Created with matplotlib (https://matplotlib.org/) -->
<svg height="410.4pt" version="1.1" viewBox="0 0 590.4 410.4" width="590.4pt" xmlns="http://www.w3.org/2000/svg" xmlns:xlink="http://www.w3.org/1999/xlink">
 <defs>
  <style type="text/css">
*{stroke-linecap:butt;stroke-linejoin:round;}
  </style>
 </defs>
 <g id="figure_1">
  <g id="patch_1">
   <path d="M 0 410.4 
L 590.4 410.4 
L 590.4 0 
L 0 0 
z
" style="fill:none;"/>
  </g>
  <g id="axes_1">
   <g id="line2d_1">
    <path clip-path="url(#p11825a3c2a)" d="M 33.381818 385.156885 
L 37.935178 385.149271 
L 42.488538 385.126898 
L 47.041897 385.088288 
L 51.595257 385.035462 
L 56.148617 384.972614 
L 60.701976 384.76667 
L 65.255336 384.721069 
L 69.808696 384.56026 
L 74.362055 384.428971 
L 78.915415 384.264822 
L 83.468775 383.895893 
L 88.022134 383.655534 
L 92.575494 383.343937 
L 97.128854 383.053083 
L 101.682213 382.805888 
L 106.235573 382.528239 
L 110.788933 382.316236 
L 115.342292 382.080849 
L 119.895652 381.877934 
L 124.449012 381.719455 
L 129.002372 381.686905 
L 133.555731 380.510125 
L 138.109091 380.003848 
L 142.662451 379.837213 
L 147.21581 379.666771 
L 151.76917 379.508759 
L 156.32253 379.362865 
L 160.875889 379.323789 
L 165.429249 379.280441 
L 169.982609 379.230411 
L 174.535968 379.093996 
L 179.089328 379.064009 
L 183.642688 379.018563 
L 188.196047 378.952919 
L 192.749407 378.876631 
L 197.302767 378.771057 
L 201.856126 378.664783 
L 206.409486 378.518035 
L 210.962846 378.334853 
L 215.516206 378.184298 
L 220.069565 377.987365 
L 224.622925 377.810242 
L 229.176285 377.595675 
L 233.729644 377.291614 
L 238.283004 376.978075 
L 242.836364 376.66741 
L 247.389723 376.376323 
L 251.943083 375.987895 
L 256.496443 375.422112 
L 261.049802 375.229607 
L 265.603162 373.920606 
L 270.156522 373.073367 
L 274.709881 372.191792 
L 279.263241 371.096504 
L 283.816601 369.882901 
L 288.36996 368.504216 
L 292.92332 366.344713 
L 297.47668 364.056564 
L 302.03004 361.540951 
L 306.583399 359.010501 
L 311.136759 355.812887 
L 315.690119 352.730403 
L 320.243478 348.874715 
L 324.796838 344.058446 
L 329.350198 339.109878 
L 333.903557 333.873718 
L 338.456917 329.255547 
L 343.010277 324.419701 
L 347.563636 318.585673 
L 352.116996 312.750092 
L 356.670356 306.481026 
L 361.223715 300.063114 
L 365.777075 292.178732 
L 370.330435 286.37508 
L 374.883794 280.705124 
L 379.437154 274.412985 
L 383.990514 267.809094 
L 388.543874 261.2644 
L 393.097233 253.777923 
L 397.650593 247.579007 
L 402.203953 241.739697 
L 406.757312 236.251991 
L 411.310672 231.678489 
L 415.864032 225.47429 
L 420.417391 217.97049 
L 424.970751 211.169589 
L 429.524111 205.143678 
L 434.07747 198.647614 
L 438.63083 193.141265 
L 443.18419 187.170044 
L 447.737549 181.356293 
L 452.290909 174.75885 
L 456.844269 166.848133 
L 461.397628 160.16477 
L 465.950988 154.359408 
L 470.504348 148.89897 
L 475.057708 143.100989 
L 479.611067 137.081293 
L 484.164427 132.190212 
L 488.717787 125.436932 
L 493.271146 118.945064 
L 497.824506 112.777921 
L 502.377866 106.848495 
L 506.931225 100.661931 
L 511.484585 93.464367 
L 516.037945 86.443383 
L 520.591304 79.269435 
L 525.144664 72.592753 
L 529.698024 66.557365 
L 534.251383 60.668413 
L 538.804743 54.107793 
L 543.358103 47.49963 
L 547.911462 40.10824 
L 552.464822 32.325394 
L 557.018182 25.2 
" style="fill:none;stroke:#1f77b4;stroke-linecap:round;stroke-width:1.75;"/>
   </g>
   <g id="line2d_2">
    <path clip-path="url(#p11825a3c2a)" d="M 33.381818 385.198679 
L 37.935178 385.198602 
L 42.488538 385.19798 
L 47.041897 385.196737 
L 51.595257 385.19565 
L 56.148617 385.19363 
L 60.701976 385.189823 
L 65.255336 385.189668 
L 69.808696 385.186716 
L 74.362055 385.183453 
L 78.915415 385.179879 
L 83.468775 385.171878 
L 88.022134 385.166906 
L 92.575494 385.161779 
L 97.128854 385.156185 
L 101.682213 385.150747 
L 106.235573 385.144144 
L 110.788933 385.137385 
L 115.342292 385.129617 
L 119.895652 385.121305 
L 124.449012 385.113536 
L 129.002372 385.113148 
L 133.555731 385.093493 
L 138.109091 385.081685 
L 142.662451 385.070576 
L 147.21581 385.062497 
L 151.76917 385.054883 
L 156.32253 385.044085 
L 160.875889 385.035151 
L 165.429249 385.025441 
L 169.982609 385.02513 
L 174.535968 385.009049 
L 179.089328 385.008194 
L 183.642688 384.995765 
L 188.196047 384.989628 
L 192.749407 384.984811 
L 197.302767 384.981393 
L 201.856126 384.976887 
L 206.409486 384.971527 
L 210.962846 384.967254 
L 215.516206 384.96034 
L 220.069565 384.954514 
L 224.622925 384.947211 
L 229.176285 384.939909 
L 233.729644 384.931208 
L 238.283004 384.923595 
L 242.836364 384.904562 
L 247.389723 384.889569 
L 251.943083 384.868904 
L 256.496443 384.841481 
L 261.049802 384.833324 
L 265.603162 384.780187 
L 270.156522 384.747948 
L 274.709881 384.699705 
L 279.263241 384.646413 
L 283.816601 384.585896 
L 288.36996 384.521572 
L 292.92332 384.433477 
L 297.47668 384.322231 
L 302.03004 384.192186 
L 306.583399 384.064005 
L 311.136759 383.918422 
L 315.690119 383.753884 
L 320.243478 383.554543 
L 324.796838 383.337878 
L 329.350198 383.087109 
L 333.903557 382.818783 
L 338.456917 382.564519 
L 343.010277 382.280423 
L 347.563636 381.928896 
L 352.116996 381.563618 
L 356.670356 381.083988 
L 361.223715 380.633101 
L 365.777075 380.181049 
L 370.330435 379.810644 
L 374.883794 379.407379 
L 379.437154 378.840275 
L 383.990514 378.337416 
L 388.543874 377.784528 
L 393.097233 377.235292 
L 397.650593 376.770965 
L 402.203953 376.336936 
L 406.757312 375.917978 
L 411.310672 375.412867 
L 415.864032 374.776389 
L 420.417391 374.028744 
L 424.970751 373.250257 
L 429.524111 372.808382 
L 434.07747 372.37847 
L 438.63083 371.994549 
L 443.18419 371.482057 
L 447.737549 370.978422 
L 452.290909 370.373096 
L 456.844269 369.884221 
L 461.397628 369.441802 
L 465.950988 369.154521 
L 470.504348 368.795381 
L 475.057708 368.330355 
L 479.611067 367.515823 
L 484.164427 367.069131 
L 488.717787 366.66035 
L 493.271146 366.259648 
L 497.824506 365.975163 
L 502.377866 365.659216 
L 506.931225 365.216254 
L 511.484585 364.704151 
L 516.037945 364.258546 
L 520.591304 363.844405 
L 525.144664 363.501579 
L 529.698024 363.237603 
L 534.251383 362.956304 
L 538.804743 362.518624 
L 543.358103 362.112095 
L 547.911462 361.706499 
L 552.464822 361.298806 
L 557.018182 360.97913 
" style="fill:none;stroke:#ff7f0e;stroke-linecap:round;stroke-width:1.75;"/>
   </g>
   <g id="line2d_3">
    <path clip-path="url(#p11825a3c2a)" d="M 33.381818 385.197825 
L 37.935178 385.197669 
L 42.488538 385.197203 
L 47.041897 385.19697 
L 51.595257 385.19596 
L 56.148617 385.195261 
L 60.701976 385.191688 
L 65.255336 385.190212 
L 69.808696 385.188891 
L 74.362055 385.182754 
L 78.915415 385.177937 
L 83.468775 385.163332 
L 88.022134 385.151602 
L 92.575494 385.133812 
L 97.128854 385.112681 
L 101.682213 385.084482 
L 106.235573 385.043774 
L 110.788933 384.996775 
L 115.342292 384.947988 
L 119.895652 384.893453 
L 124.449012 384.836199 
L 129.002372 384.79992 
L 133.555731 384.71097 
L 138.109091 384.57401 
L 142.662451 384.470145 
L 147.21581 384.355947 
L 151.76917 384.222483 
L 156.32253 384.085057 
L 160.875889 383.947632 
L 165.429249 383.78791 
L 169.982609 383.73252 
L 174.535968 383.422089 
L 179.089328 383.382625 
L 183.642688 383.240227 
L 188.196047 383.032185 
L 192.749407 382.839603 
L 197.302767 382.614859 
L 201.856126 382.348087 
L 206.409486 382.109514 
L 210.962846 381.881585 
L 215.516206 381.657385 
L 220.069565 381.453305 
L 224.622925 381.224754 
L 229.176285 381.020752 
L 233.729644 380.860021 
L 238.283004 380.666351 
L 242.836364 380.484877 
L 247.389723 380.343723 
L 251.943083 380.196742 
L 256.496443 379.994837 
L 261.049802 379.892214 
L 265.603162 379.742514 
L 270.156522 379.558167 
L 274.709881 379.293259 
L 279.263241 379.133693 
L 283.816601 378.919902 
L 288.36996 378.727786 
L 292.92332 378.599683 
L 297.47668 378.410052 
L 302.03004 378.078102 
L 306.583399 377.645627 
L 311.136759 377.357025 
L 315.690119 376.833347 
L 320.243478 376.362184 
L 324.796838 375.711179 
L 329.350198 375.030266 
L 333.903557 374.369939 
L 338.456917 373.618953 
L 343.010277 372.41607 
L 347.563636 371.369802 
L 352.116996 370.19341 
L 356.670356 368.865609 
L 361.223715 367.658919 
L 365.777075 366.077553 
L 370.330435 365.000832 
L 374.883794 363.718787 
L 379.437154 361.890148 
L 383.990514 359.667798 
L 388.543874 357.701267 
L 393.097233 355.982785 
L 397.650593 353.961874 
L 402.203953 352.438306 
L 406.757312 350.346001 
L 411.310672 348.356786 
L 415.864032 345.501221 
L 420.417391 343.086134 
L 424.970751 341.047976 
L 429.524111 339.185388 
L 434.07747 336.731769 
L 438.63083 335.035505 
L 443.18419 332.387905 
L 447.737549 330.06705 
L 452.290909 327.830328 
L 456.844269 323.562752 
L 461.397628 321.755398 
L 465.950988 317.945078 
L 470.504348 315.751705 
L 475.057708 313.056717 
L 479.611067 309.633815 
L 484.164427 306.368382 
L 488.717787 303.37174 
L 493.271146 300.281022 
L 497.824506 297.785452 
L 502.377866 294.873177 
L 506.931225 292.068108 
L 511.484585 288.449439 
L 516.037945 285.394222 
L 520.591304 282.495853 
L 525.144664 278.333929 
L 529.698024 275.742651 
L 534.251383 272.073641 
L 538.804743 269.183351 
L 543.358103 264.900315 
L 547.911462 261.843701 
L 552.464822 258.023593 
L 557.018182 253.663104 
" style="fill:none;stroke:#2ca02c;stroke-linecap:round;stroke-width:1.75;"/>
   </g>
   <g id="line2d_4">
    <path clip-path="url(#p11825a3c2a)" d="M 33.381818 385.169003 
L 37.935178 385.169003 
L 42.488538 385.161623 
L 47.041897 385.146475 
L 51.595257 385.122159 
L 56.148617 385.089065 
L 60.701976 384.928411 
L 65.255336 384.901221 
L 69.808696 384.786402 
L 74.362055 384.71128 
L 78.915415 384.307005 
L 83.468775 383.960683 
L 88.022134 383.737026 
L 92.575494 383.448347 
L 97.128854 383.184216 
L 101.682213 382.970659 
L 106.235573 382.740321 
L 110.788933 382.582076 
L 115.342292 382.403243 
L 119.895652 382.263176 
L 124.449012 382.169721 
L 129.002372 382.173838 
L 133.555731 381.105662 
L 138.109091 380.748153 
L 142.662451 380.696492 
L 147.21581 380.648327 
L 151.76917 380.631392 
L 156.32253 380.633723 
L 160.875889 380.741006 
L 165.429249 380.86709 
L 169.982609 380.872761 
L 174.535968 381.062857 
L 179.089328 381.07319 
L 183.642688 381.182571 
L 188.196047 381.331106 
L 192.749407 381.452217 
L 197.302767 381.574805 
L 201.856126 381.739809 
L 206.409486 381.836994 
L 210.962846 381.886013 
L 215.516206 381.966573 
L 220.069565 381.979547 
L 224.622925 382.038277 
L 229.176285 382.035014 
L 233.729644 381.900385 
L 238.283004 381.788129 
L 242.836364 381.677971 
L 247.389723 381.543032 
L 251.943083 381.322249 
L 256.496443 380.985793 
L 261.049802 380.904068 
L 265.603162 379.797904 
L 270.156522 379.167253 
L 274.709881 378.598828 
L 279.263241 377.716398 
L 283.816601 376.777102 
L 288.36996 375.654857 
L 292.92332 373.711554 
L 297.47668 371.724281 
L 302.03004 369.670664 
L 306.583399 367.70087 
L 311.136759 364.93744 
L 315.690119 362.543172 
L 320.243478 359.357988 
L 324.796838 355.409388 
L 329.350198 351.392503 
L 333.903557 347.084996 
L 338.456917 343.472075 
L 343.010277 340.123208 
L 347.563636 335.686976 
L 352.116996 331.393064 
L 356.670356 326.931429 
L 361.223715 322.171093 
L 365.777075 316.32013 
L 370.330435 311.963604 
L 374.883794 307.978958 
L 379.437154 304.082563 
L 383.990514 300.20388 
L 388.543874 296.178605 
L 393.097233 290.959846 
L 397.650593 287.246168 
L 402.203953 283.364455 
L 406.757312 280.388012 
L 411.310672 278.308837 
L 415.864032 275.59668 
L 420.417391 271.255612 
L 424.970751 267.271355 
L 429.524111 263.549908 
L 434.07747 259.937375 
L 438.63083 256.511211 
L 443.18419 253.700082 
L 447.737549 250.710821 
L 452.290909 246.955425 
L 456.844269 243.80116 
L 461.397628 239.367569 
L 465.950988 237.659809 
L 470.504348 234.751884 
L 475.057708 232.113917 
L 479.611067 230.331655 
L 484.164427 229.1527 
L 488.717787 225.804842 
L 493.271146 222.804394 
L 497.824506 219.417305 
L 502.377866 216.716102 
L 506.931225 213.777569 
L 511.484585 210.710778 
L 516.037945 207.190614 
L 520.591304 203.329177 
L 525.144664 201.157245 
L 529.698024 197.977111 
L 534.251383 196.038468 
L 538.804743 192.805818 
L 543.358103 190.887219 
L 547.911462 186.958041 
L 552.464822 183.402996 
L 557.018182 180.957766 
" style="fill:none;stroke:#d62728;stroke-linecap:round;stroke-width:1.75;"/>
   </g>
   <g id="line2d_5">
    <path clip-path="url(#p11825a3c2a)" d="M 33.381818 385.2 
L 37.935178 385.19262 
L 42.488538 385.177782 
L 47.041897 385.161468 
L 51.595257 385.147252 
L 56.148617 385.137385 
L 60.701976 384.994289 
L 65.255336 385.154787 
L 69.808696 385.039269 
L 74.362055 385.069255 
L 78.915415 385.035928 
L 83.468775 384.831071 
L 88.022134 384.959641 
L 92.575494 384.888481 
L 97.128854 384.909145 
L 101.682213 384.952805 
L 106.235573 384.927091 
L 110.788933 384.987996 
L 115.342292 384.964613 
L 119.895652 384.997085 
L 124.449012 385.041522 
L 129.002372 385.16745 
L 133.555731 384.02322 
L 138.109091 384.693801 
L 142.662451 385.033365 
L 147.21581 385.029558 
L 151.76917 385.041988 
L 156.32253 385.054107 
L 160.875889 385.16108 
L 165.429249 385.156651 
L 169.982609 385.150126 
L 174.535968 385.063584 
L 179.089328 385.170013 
L 183.642688 385.154942 
L 188.196047 385.134744 
L 192.749407 385.124257 
L 197.302767 385.094736 
L 201.856126 385.09427 
L 206.409486 385.053407 
L 210.962846 385.01775 
L 215.516206 385.050145 
L 220.069565 385.003378 
L 224.622925 385.023654 
L 229.176285 384.986132 
L 233.729644 384.89656 
L 238.283004 384.887238 
L 242.836364 384.890346 
L 247.389723 384.909456 
L 251.943083 384.812038 
L 256.496443 384.628001 
L 261.049802 385.007806 
L 265.603162 383.892009 
L 270.156522 384.354859 
L 274.709881 384.318425 
L 279.263241 384.105955 
L 283.816601 383.986785 
L 288.36996 383.822014 
L 292.92332 383.040809 
L 297.47668 382.912317 
L 302.03004 382.684698 
L 306.583399 382.657586 
L 311.136759 382.002464 
L 315.690119 382.062437 
L 320.243478 381.40009 
L 324.796838 380.383886 
L 329.350198 380.252054 
L 333.903557 379.963996 
L 338.456917 380.581829 
L 343.010277 380.364387 
L 347.563636 379.366206 
L 352.116996 379.364419 
L 356.670356 378.931167 
L 361.223715 378.782088 
L 365.777075 377.315619 
L 370.330435 379.396736 
L 374.883794 379.530355 
L 379.437154 378.907861 
L 383.990514 378.596109 
L 388.543874 378.655305 
L 393.097233 377.713601 
L 397.650593 379.001084 
L 402.203953 379.36069 
L 406.757312 379.712295 
L 411.310672 380.626498 
L 415.864032 378.995801 
L 420.417391 377.6962 
L 424.970751 378.399099 
L 429.524111 379.174089 
L 434.07747 378.703936 
L 438.63083 379.69365 
L 443.18419 379.22878 
L 447.737549 379.386248 
L 452.290909 378.602557 
L 456.844269 377.289283 
L 461.397628 378.516637 
L 465.950988 379.394638 
L 470.504348 379.739562 
L 475.057708 379.402019 
L 479.611067 379.180304 
L 484.164427 380.310162 
L 488.717787 378.44672 
L 493.271146 378.708132 
L 497.824506 379.032857 
L 502.377866 379.270575 
L 506.931225 379.013436 
L 511.484585 378.002436 
L 516.037945 378.179015 
L 520.591304 378.026053 
L 525.144664 378.523318 
L 529.698024 379.164612 
L 534.251383 379.311049 
L 538.804743 378.63938 
L 543.358103 378.591914 
L 547.911462 377.808611 
L 552.464822 377.417153 
L 557.018182 378.074606 
" style="fill:none;stroke:#9467bd;stroke-linecap:round;stroke-width:1.75;"/>
   </g>
   <g id="line2d_6">
    <path clip-path="url(#p11825a3c2a)" d="M 33.381818 385.2 
L 37.935178 385.199922 
L 42.488538 385.199379 
L 47.041897 385.198757 
L 51.595257 385.198912 
L 56.148617 385.19798 
L 60.701976 385.196193 
L 65.255336 385.199845 
L 69.808696 385.197048 
L 74.362055 385.196737 
L 78.915415 385.196426 
L 83.468775 385.191998 
L 88.022134 385.195028 
L 92.575494 385.194873 
L 97.128854 385.194407 
L 101.682213 385.194562 
L 106.235573 385.193397 
L 110.788933 385.193241 
L 115.342292 385.192231 
L 119.895652 385.191688 
L 124.449012 385.192231 
L 129.002372 385.199612 
L 133.555731 385.180346 
L 138.109091 385.188192 
L 142.662451 385.188891 
L 147.21581 385.191921 
L 151.76917 385.192387 
L 156.32253 385.189202 
L 160.875889 385.191222 
L 165.429249 385.190289 
L 169.982609 385.199689 
L 174.535968 385.183919 
L 179.089328 385.199145 
L 183.642688 385.18757 
L 188.196047 385.193863 
L 192.749407 385.195183 
L 197.302767 385.196582 
L 201.856126 385.195494 
L 206.409486 385.19464 
L 210.962846 385.195727 
L 215.516206 385.193086 
L 220.069565 385.194174 
L 224.622925 385.192698 
L 229.176285 385.192698 
L 233.729644 385.191299 
L 238.283004 385.192387 
L 242.836364 385.180967 
L 247.389723 385.185007 
L 251.943083 385.179336 
L 256.496443 385.172344 
L 261.049802 385.191921 
L 265.603162 385.146941 
L 270.156522 385.167761 
L 274.709881 385.151757 
L 279.263241 385.146708 
L 283.816601 385.139483 
L 288.36996 385.135676 
L 292.92332 385.111905 
L 297.47668 385.088754 
L 302.03004 385.069954 
L 306.583399 385.071741 
L 311.136759 385.054417 
L 315.690119 385.034841 
L 320.243478 385.001436 
L 324.796838 384.983335 
L 329.350198 384.949231 
L 333.903557 384.931674 
L 338.456917 384.945735 
L 343.010277 384.915904 
L 347.563636 384.848473 
L 352.116996 384.834723 
L 356.670356 384.72037 
L 361.223715 384.749113 
L 365.777075 384.747948 
L 370.330435 384.829595 
L 374.883794 384.796734 
L 379.437154 384.632896 
L 383.990514 384.697142 
L 388.543874 384.647112 
L 393.097233 384.650763 
L 397.650593 384.735674 
L 402.203953 384.765971 
L 406.757312 384.781042 
L 411.310672 384.694889 
L 415.864032 384.563523 
L 420.417391 384.452355 
L 424.970751 384.421513 
L 429.524111 384.758125 
L 434.07747 384.770088 
L 438.63083 384.816078 
L 443.18419 384.687509 
L 447.737549 384.696365 
L 452.290909 384.594674 
L 456.844269 384.711125 
L 461.397628 384.757581 
L 465.950988 384.912719 
L 470.504348 384.84086 
L 475.057708 384.734974 
L 479.611067 384.385467 
L 484.164427 384.753308 
L 488.717787 384.791219 
L 493.271146 384.799298 
L 497.824506 384.915516 
L 502.377866 384.884053 
L 506.931225 384.757037 
L 511.484585 384.687897 
L 516.037945 384.754396 
L 520.591304 384.785858 
L 525.144664 384.857174 
L 529.698024 384.936025 
L 534.251383 384.918701 
L 538.804743 384.76232 
L 543.358103 384.793472 
L 547.911462 384.794404 
L 552.464822 384.792306 
L 557.018182 384.880324 
" style="fill:none;stroke:#8c564b;stroke-linecap:round;stroke-width:1.75;"/>
   </g>
   <g id="line2d_7">
    <path clip-path="url(#p11825a3c2a)" d="M 33.381818 385.2 
L 37.935178 385.199845 
L 42.488538 385.199534 
L 47.041897 385.199767 
L 51.595257 385.19899 
L 56.148617 385.199301 
L 60.701976 385.196426 
L 65.255336 385.198524 
L 69.808696 385.198679 
L 74.362055 385.193863 
L 78.915415 385.195183 
L 83.468775 385.185395 
L 88.022134 385.188269 
L 92.575494 385.18221 
L 97.128854 385.17887 
L 101.682213 385.1718 
L 106.235573 385.159293 
L 110.788933 385.153 
L 115.342292 385.151213 
L 119.895652 385.145465 
L 124.449012 385.142746 
L 129.002372 385.163721 
L 133.555731 385.11105 
L 138.109091 385.06304 
L 142.662451 385.096134 
L 147.21581 385.085802 
L 151.76917 385.066536 
L 156.32253 385.062574 
L 160.875889 385.062574 
L 165.429249 385.040279 
L 169.982609 385.14461 
L 174.535968 384.889569 
L 179.089328 385.160536 
L 183.642688 385.057602 
L 188.196047 384.991958 
L 192.749407 385.007418 
L 197.302767 384.975256 
L 201.856126 384.933228 
L 206.409486 384.961428 
L 210.962846 384.972071 
L 215.516206 384.9758 
L 220.069565 384.99592 
L 224.622925 384.971449 
L 229.176285 384.995998 
L 233.729644 385.039269 
L 238.283004 385.00633 
L 242.836364 385.018527 
L 247.389723 385.058845 
L 251.943083 385.053174 
L 256.496443 384.992036 
L 261.049802 385.097377 
L 265.603162 385.0503 
L 270.156522 385.015652 
L 274.709881 384.935092 
L 279.263241 385.040434 
L 283.816601 384.986209 
L 288.36996 385.007884 
L 292.92332 385.071897 
L 297.47668 385.01037 
L 302.03004 384.86805 
L 306.583399 384.767059 
L 311.136759 384.911398 
L 315.690119 384.632274 
L 320.243478 384.774439 
L 324.796838 384.548995 
L 329.350198 384.519086 
L 333.903557 384.539673 
L 338.456917 384.449014 
L 343.010277 383.997117 
L 347.563636 384.153731 
L 352.116996 384.023608 
L 356.670356 383.872199 
L 361.223715 383.993311 
L 365.777075 383.618633 
L 370.330435 384.123279 
L 374.883794 383.917956 
L 379.437154 383.37136 
L 383.990514 382.97765 
L 388.543874 383.233469 
L 393.097233 383.481519 
L 397.650593 383.179089 
L 402.203953 383.676432 
L 406.757312 383.107696 
L 411.310672 383.210784 
L 415.864032 382.344436 
L 420.417391 382.784912 
L 424.970751 383.161843 
L 429.524111 383.337412 
L 434.07747 382.74638 
L 438.63083 383.503737 
L 443.18419 382.5524 
L 447.737549 382.879145 
L 452.290909 382.963278 
L 456.844269 380.932423 
L 461.397628 383.392646 
L 465.950988 381.38968 
L 470.504348 383.006627 
L 475.057708 382.505011 
L 479.611067 381.777098 
L 484.164427 381.934567 
L 488.717787 382.203359 
L 493.271146 382.109281 
L 497.824506 382.70443 
L 502.377866 382.287725 
L 506.931225 382.394931 
L 511.484585 381.581331 
L 516.037945 382.144784 
L 520.591304 382.301631 
L 525.144664 381.038076 
L 529.698024 382.608722 
L 534.251383 381.53099 
L 538.804743 382.30971 
L 543.358103 380.916964 
L 547.911462 382.143385 
L 552.464822 381.379892 
L 557.018182 380.839512 
" style="fill:none;stroke:#e377c2;stroke-linecap:round;stroke-width:1.75;"/>
   </g>
   <g id="legend_1">
    <g id="patch_2">
     <path d="M 14.2 114.339063 
L 114.56875 114.339063 
Q 116.56875 114.339063 116.56875 112.339063 
L 116.56875 14.2 
Q 116.56875 12.2 114.56875 12.2 
L 14.2 12.2 
Q 12.2 12.2 12.2 14.2 
L 12.2 112.339063 
Q 12.2 114.339063 14.2 114.339063 
z
" style="fill:#ffffff;opacity:0.8;stroke:#cccccc;stroke-linejoin:miter;stroke-width:0.3;"/>
    </g>
    <g id="line2d_8">
     <path d="M 16.2 19.857813 
L 36.2 19.857813 
" style="fill:none;stroke:#1f77b4;stroke-linecap:round;stroke-width:1.75;"/>
    </g>
    <g id="line2d_9"/>
    <g id="text_1">
     <!-- confirmed -->
     <defs>
      <path d="M 40.4375 19 
L 49.078125 17.875 
Q 47.65625 8.9375 41.8125 3.875 
Q 35.984375 -1.171875 27.484375 -1.171875 
Q 16.84375 -1.171875 10.375 5.78125 
Q 3.90625 12.75 3.90625 25.734375 
Q 3.90625 34.125 6.6875 40.421875 
Q 9.46875 46.734375 15.15625 49.875 
Q 20.84375 53.03125 27.546875 53.03125 
Q 35.984375 53.03125 41.359375 48.75 
Q 46.734375 44.484375 48.25 36.625 
L 39.703125 35.296875 
Q 38.484375 40.53125 35.375 43.15625 
Q 32.28125 45.796875 27.875 45.796875 
Q 21.234375 45.796875 17.078125 41.03125 
Q 12.9375 36.28125 12.9375 25.984375 
Q 12.9375 15.53125 16.9375 10.796875 
Q 20.953125 6.0625 27.390625 6.0625 
Q 32.5625 6.0625 36.03125 9.234375 
Q 39.5 12.40625 40.4375 19 
z
" id="ArialMT-99"/>
      <path d="M 3.328125 25.921875 
Q 3.328125 40.328125 11.328125 47.265625 
Q 18.015625 53.03125 27.640625 53.03125 
Q 38.328125 53.03125 45.109375 46.015625 
Q 51.90625 39.015625 51.90625 26.65625 
Q 51.90625 16.65625 48.90625 10.90625 
Q 45.90625 5.171875 40.15625 2 
Q 34.421875 -1.171875 27.640625 -1.171875 
Q 16.75 -1.171875 10.03125 5.8125 
Q 3.328125 12.796875 3.328125 25.921875 
z
M 12.359375 25.921875 
Q 12.359375 15.96875 16.703125 11.015625 
Q 21.046875 6.0625 27.640625 6.0625 
Q 34.1875 6.0625 38.53125 11.03125 
Q 42.875 16.015625 42.875 26.21875 
Q 42.875 35.84375 38.5 40.796875 
Q 34.125 45.75 27.640625 45.75 
Q 21.046875 45.75 16.703125 40.8125 
Q 12.359375 35.890625 12.359375 25.921875 
z
" id="ArialMT-111"/>
      <path d="M 6.59375 0 
L 6.59375 51.859375 
L 14.5 51.859375 
L 14.5 44.484375 
Q 20.21875 53.03125 31 53.03125 
Q 35.6875 53.03125 39.625 51.34375 
Q 43.5625 49.65625 45.515625 46.921875 
Q 47.46875 44.1875 48.25 40.4375 
Q 48.734375 37.984375 48.734375 31.890625 
L 48.734375 0 
L 39.9375 0 
L 39.9375 31.546875 
Q 39.9375 36.921875 38.90625 39.578125 
Q 37.890625 42.234375 35.28125 43.8125 
Q 32.671875 45.40625 29.15625 45.40625 
Q 23.53125 45.40625 19.453125 41.84375 
Q 15.375 38.28125 15.375 28.328125 
L 15.375 0 
z
" id="ArialMT-110"/>
      <path d="M 8.6875 0 
L 8.6875 45.015625 
L 0.921875 45.015625 
L 0.921875 51.859375 
L 8.6875 51.859375 
L 8.6875 57.375 
Q 8.6875 62.59375 9.625 65.140625 
Q 10.890625 68.5625 14.078125 70.671875 
Q 17.28125 72.796875 23.046875 72.796875 
Q 26.765625 72.796875 31.25 71.921875 
L 29.9375 64.265625 
Q 27.203125 64.75 24.75 64.75 
Q 20.75 64.75 19.09375 63.03125 
Q 17.4375 61.328125 17.4375 56.640625 
L 17.4375 51.859375 
L 27.546875 51.859375 
L 27.546875 45.015625 
L 17.4375 45.015625 
L 17.4375 0 
z
" id="ArialMT-102"/>
      <path d="M 6.640625 61.46875 
L 6.640625 71.578125 
L 15.4375 71.578125 
L 15.4375 61.46875 
z
M 6.640625 0 
L 6.640625 51.859375 
L 15.4375 51.859375 
L 15.4375 0 
z
" id="ArialMT-105"/>
      <path d="M 6.5 0 
L 6.5 51.859375 
L 14.40625 51.859375 
L 14.40625 44 
Q 17.4375 49.515625 20 51.265625 
Q 22.5625 53.03125 25.640625 53.03125 
Q 30.078125 53.03125 34.671875 50.203125 
L 31.640625 42.046875 
Q 28.421875 43.953125 25.203125 43.953125 
Q 22.3125 43.953125 20.015625 42.21875 
Q 17.71875 40.484375 16.75 37.40625 
Q 15.28125 32.71875 15.28125 27.15625 
L 15.28125 0 
z
" id="ArialMT-114"/>
      <path d="M 6.59375 0 
L 6.59375 51.859375 
L 14.453125 51.859375 
L 14.453125 44.578125 
Q 16.890625 48.390625 20.9375 50.703125 
Q 25 53.03125 30.171875 53.03125 
Q 35.9375 53.03125 39.625 50.640625 
Q 43.3125 48.25 44.828125 43.953125 
Q 50.984375 53.03125 60.84375 53.03125 
Q 68.5625 53.03125 72.703125 48.75 
Q 76.859375 44.484375 76.859375 35.59375 
L 76.859375 0 
L 68.109375 0 
L 68.109375 32.671875 
Q 68.109375 37.9375 67.25 40.25 
Q 66.40625 42.578125 64.15625 43.984375 
Q 61.921875 45.40625 58.890625 45.40625 
Q 53.421875 45.40625 49.796875 41.765625 
Q 46.1875 38.140625 46.1875 30.125 
L 46.1875 0 
L 37.40625 0 
L 37.40625 33.6875 
Q 37.40625 39.546875 35.25 42.46875 
Q 33.109375 45.40625 28.21875 45.40625 
Q 24.515625 45.40625 21.359375 43.453125 
Q 18.21875 41.5 16.796875 37.734375 
Q 15.375 33.984375 15.375 26.90625 
L 15.375 0 
z
" id="ArialMT-109"/>
      <path d="M 42.09375 16.703125 
L 51.171875 15.578125 
Q 49.03125 7.625 43.21875 3.21875 
Q 37.40625 -1.171875 28.375 -1.171875 
Q 17 -1.171875 10.328125 5.828125 
Q 3.65625 12.84375 3.65625 25.484375 
Q 3.65625 38.578125 10.390625 45.796875 
Q 17.140625 53.03125 27.875 53.03125 
Q 38.28125 53.03125 44.875 45.953125 
Q 51.46875 38.875 51.46875 26.03125 
Q 51.46875 25.25 51.421875 23.6875 
L 12.75 23.6875 
Q 13.234375 15.140625 17.578125 10.59375 
Q 21.921875 6.0625 28.421875 6.0625 
Q 33.25 6.0625 36.671875 8.59375 
Q 40.09375 11.140625 42.09375 16.703125 
z
M 13.234375 30.90625 
L 42.1875 30.90625 
Q 41.609375 37.453125 38.875 40.71875 
Q 34.671875 45.796875 27.984375 45.796875 
Q 21.921875 45.796875 17.796875 41.75 
Q 13.671875 37.703125 13.234375 30.90625 
z
" id="ArialMT-101"/>
      <path d="M 40.234375 0 
L 40.234375 6.546875 
Q 35.296875 -1.171875 25.734375 -1.171875 
Q 19.53125 -1.171875 14.328125 2.25 
Q 9.125 5.671875 6.265625 11.796875 
Q 3.421875 17.921875 3.421875 25.875 
Q 3.421875 33.640625 6 39.96875 
Q 8.59375 46.296875 13.765625 49.65625 
Q 18.953125 53.03125 25.34375 53.03125 
Q 30.03125 53.03125 33.6875 51.046875 
Q 37.359375 49.078125 39.65625 45.90625 
L 39.65625 71.578125 
L 48.390625 71.578125 
L 48.390625 0 
z
M 12.453125 25.875 
Q 12.453125 15.921875 16.640625 10.984375 
Q 20.84375 6.0625 26.5625 6.0625 
Q 32.328125 6.0625 36.34375 10.765625 
Q 40.375 15.484375 40.375 25.140625 
Q 40.375 35.796875 36.265625 40.765625 
Q 32.171875 45.75 26.171875 45.75 
Q 20.3125 45.75 16.375 40.96875 
Q 12.453125 36.1875 12.453125 25.875 
z
" id="ArialMT-100"/>
     </defs>
     <g style="fill:#262626;" transform="translate(44.2 23.357813)scale(0.1 -0.1)">
      <use xlink:href="#ArialMT-99"/>
      <use x="50" xlink:href="#ArialMT-111"/>
      <use x="105.615234" xlink:href="#ArialMT-110"/>
      <use x="161.230469" xlink:href="#ArialMT-102"/>
      <use x="189.013672" xlink:href="#ArialMT-105"/>
      <use x="211.230469" xlink:href="#ArialMT-114"/>
      <use x="244.53125" xlink:href="#ArialMT-109"/>
      <use x="327.832031" xlink:href="#ArialMT-101"/>
      <use x="383.447266" xlink:href="#ArialMT-100"/>
     </g>
    </g>
    <g id="line2d_10">
     <path d="M 16.2 34.003125 
L 36.2 34.003125 
" style="fill:none;stroke:#ff7f0e;stroke-linecap:round;stroke-width:1.75;"/>
    </g>
    <g id="line2d_11"/>
    <g id="text_2">
     <!-- deaths -->
     <defs>
      <path d="M 40.4375 6.390625 
Q 35.546875 2.25 31.03125 0.53125 
Q 26.515625 -1.171875 21.34375 -1.171875 
Q 12.796875 -1.171875 8.203125 3 
Q 3.609375 7.171875 3.609375 13.671875 
Q 3.609375 17.484375 5.34375 20.625 
Q 7.078125 23.78125 9.890625 25.6875 
Q 12.703125 27.59375 16.21875 28.5625 
Q 18.796875 29.25 24.03125 29.890625 
Q 34.671875 31.15625 39.703125 32.90625 
Q 39.75 34.71875 39.75 35.203125 
Q 39.75 40.578125 37.25 42.78125 
Q 33.890625 45.75 27.25 45.75 
Q 21.046875 45.75 18.09375 43.578125 
Q 15.140625 41.40625 13.71875 35.890625 
L 5.125 37.0625 
Q 6.296875 42.578125 8.984375 45.96875 
Q 11.671875 49.359375 16.75 51.1875 
Q 21.828125 53.03125 28.515625 53.03125 
Q 35.15625 53.03125 39.296875 51.46875 
Q 43.453125 49.90625 45.40625 47.53125 
Q 47.359375 45.171875 48.140625 41.546875 
Q 48.578125 39.3125 48.578125 33.453125 
L 48.578125 21.734375 
Q 48.578125 9.46875 49.140625 6.21875 
Q 49.703125 2.984375 51.375 0 
L 42.1875 0 
Q 40.828125 2.734375 40.4375 6.390625 
z
M 39.703125 26.03125 
Q 34.90625 24.078125 25.34375 22.703125 
Q 19.921875 21.921875 17.671875 20.9375 
Q 15.4375 19.96875 14.203125 18.09375 
Q 12.984375 16.21875 12.984375 13.921875 
Q 12.984375 10.40625 15.640625 8.0625 
Q 18.3125 5.71875 23.4375 5.71875 
Q 28.515625 5.71875 32.46875 7.9375 
Q 36.421875 10.15625 38.28125 14.015625 
Q 39.703125 17 39.703125 22.796875 
z
" id="ArialMT-97"/>
      <path d="M 25.78125 7.859375 
L 27.046875 0.09375 
Q 23.34375 -0.6875 20.40625 -0.6875 
Q 15.625 -0.6875 12.984375 0.828125 
Q 10.359375 2.34375 9.28125 4.8125 
Q 8.203125 7.28125 8.203125 15.1875 
L 8.203125 45.015625 
L 1.765625 45.015625 
L 1.765625 51.859375 
L 8.203125 51.859375 
L 8.203125 64.703125 
L 16.9375 69.96875 
L 16.9375 51.859375 
L 25.78125 51.859375 
L 25.78125 45.015625 
L 16.9375 45.015625 
L 16.9375 14.703125 
Q 16.9375 10.9375 17.40625 9.859375 
Q 17.875 8.796875 18.921875 8.15625 
Q 19.96875 7.515625 21.921875 7.515625 
Q 23.390625 7.515625 25.78125 7.859375 
z
" id="ArialMT-116"/>
      <path d="M 6.59375 0 
L 6.59375 71.578125 
L 15.375 71.578125 
L 15.375 45.90625 
Q 21.53125 53.03125 30.90625 53.03125 
Q 36.671875 53.03125 40.921875 50.75 
Q 45.171875 48.484375 47 44.484375 
Q 48.828125 40.484375 48.828125 32.859375 
L 48.828125 0 
L 40.046875 0 
L 40.046875 32.859375 
Q 40.046875 39.453125 37.1875 42.453125 
Q 34.328125 45.453125 29.109375 45.453125 
Q 25.203125 45.453125 21.75 43.421875 
Q 18.3125 41.40625 16.84375 37.9375 
Q 15.375 34.46875 15.375 28.375 
L 15.375 0 
z
" id="ArialMT-104"/>
      <path d="M 3.078125 15.484375 
L 11.765625 16.84375 
Q 12.5 11.625 15.84375 8.84375 
Q 19.1875 6.0625 25.203125 6.0625 
Q 31.25 6.0625 34.171875 8.515625 
Q 37.109375 10.984375 37.109375 14.3125 
Q 37.109375 17.28125 34.515625 19 
Q 32.71875 20.171875 25.53125 21.96875 
Q 15.875 24.421875 12.140625 26.203125 
Q 8.40625 27.984375 6.46875 31.125 
Q 4.546875 34.28125 4.546875 38.09375 
Q 4.546875 41.546875 6.125 44.5 
Q 7.71875 47.46875 10.453125 49.421875 
Q 12.5 50.921875 16.03125 51.96875 
Q 19.578125 53.03125 23.640625 53.03125 
Q 29.734375 53.03125 34.34375 51.265625 
Q 38.96875 49.515625 41.15625 46.5 
Q 43.359375 43.5 44.1875 38.484375 
L 35.59375 37.3125 
Q 35.015625 41.3125 32.203125 43.546875 
Q 29.390625 45.796875 24.265625 45.796875 
Q 18.21875 45.796875 15.625 43.796875 
Q 13.03125 41.796875 13.03125 39.109375 
Q 13.03125 37.40625 14.109375 36.03125 
Q 15.1875 34.625 17.484375 33.6875 
Q 18.796875 33.203125 25.25 31.453125 
Q 34.578125 28.953125 38.25 27.359375 
Q 41.9375 25.78125 44.03125 22.75 
Q 46.140625 19.734375 46.140625 15.234375 
Q 46.140625 10.84375 43.578125 6.953125 
Q 41.015625 3.078125 36.171875 0.953125 
Q 31.34375 -1.171875 25.25 -1.171875 
Q 15.140625 -1.171875 9.84375 3.03125 
Q 4.546875 7.234375 3.078125 15.484375 
z
" id="ArialMT-115"/>
     </defs>
     <g style="fill:#262626;" transform="translate(44.2 37.503125)scale(0.1 -0.1)">
      <use xlink:href="#ArialMT-100"/>
      <use x="55.615234" xlink:href="#ArialMT-101"/>
      <use x="111.230469" xlink:href="#ArialMT-97"/>
      <use x="166.845703" xlink:href="#ArialMT-116"/>
      <use x="194.628906" xlink:href="#ArialMT-104"/>
      <use x="250.244141" xlink:href="#ArialMT-115"/>
     </g>
    </g>
    <g id="line2d_12">
     <path d="M 16.2 48.148438 
L 36.2 48.148438 
" style="fill:none;stroke:#2ca02c;stroke-linecap:round;stroke-width:1.75;"/>
    </g>
    <g id="line2d_13"/>
    <g id="text_3">
     <!-- recovered -->
     <defs>
      <path d="M 21 0 
L 1.265625 51.859375 
L 10.546875 51.859375 
L 21.6875 20.796875 
Q 23.484375 15.765625 25 10.359375 
Q 26.171875 14.453125 28.265625 20.21875 
L 39.796875 51.859375 
L 48.828125 51.859375 
L 29.203125 0 
z
" id="ArialMT-118"/>
     </defs>
     <g style="fill:#262626;" transform="translate(44.2 51.648438)scale(0.1 -0.1)">
      <use xlink:href="#ArialMT-114"/>
      <use x="33.300781" xlink:href="#ArialMT-101"/>
      <use x="88.916016" xlink:href="#ArialMT-99"/>
      <use x="138.916016" xlink:href="#ArialMT-111"/>
      <use x="194.53125" xlink:href="#ArialMT-118"/>
      <use x="244.53125" xlink:href="#ArialMT-101"/>
      <use x="300.146484" xlink:href="#ArialMT-114"/>
      <use x="333.447266" xlink:href="#ArialMT-101"/>
      <use x="389.0625" xlink:href="#ArialMT-100"/>
     </g>
    </g>
    <g id="line2d_14">
     <path d="M 16.2 62.29375 
L 36.2 62.29375 
" style="fill:none;stroke:#d62728;stroke-linecap:round;stroke-width:1.75;"/>
    </g>
    <g id="line2d_15"/>
    <g id="text_4">
     <!-- active -->
     <g style="fill:#262626;" transform="translate(44.2 65.79375)scale(0.1 -0.1)">
      <use xlink:href="#ArialMT-97"/>
      <use x="55.615234" xlink:href="#ArialMT-99"/>
      <use x="105.615234" xlink:href="#ArialMT-116"/>
      <use x="133.398438" xlink:href="#ArialMT-105"/>
      <use x="155.615234" xlink:href="#ArialMT-118"/>
      <use x="205.615234" xlink:href="#ArialMT-101"/>
     </g>
    </g>
    <g id="line2d_16">
     <path d="M 16.2 76.560938 
L 36.2 76.560938 
" style="fill:none;stroke:#9467bd;stroke-linecap:round;stroke-width:1.75;"/>
    </g>
    <g id="line2d_17"/>
    <g id="text_5">
     <!-- new_confirmed -->
     <defs>
      <path d="M 16.15625 0 
L 0.296875 51.859375 
L 9.375 51.859375 
L 17.625 21.921875 
L 20.703125 10.796875 
Q 20.90625 11.625 23.390625 21.484375 
L 31.640625 51.859375 
L 40.671875 51.859375 
L 48.4375 21.78125 
L 51.03125 11.859375 
L 54 21.875 
L 62.890625 51.859375 
L 71.4375 51.859375 
L 55.21875 0 
L 46.09375 0 
L 37.84375 31.0625 
L 35.84375 39.890625 
L 25.34375 0 
z
" id="ArialMT-119"/>
      <path d="M -1.515625 -19.875 
L -1.515625 -13.53125 
L 56.734375 -13.53125 
L 56.734375 -19.875 
z
" id="ArialMT-95"/>
     </defs>
     <g style="fill:#262626;" transform="translate(44.2 80.060938)scale(0.1 -0.1)">
      <use xlink:href="#ArialMT-110"/>
      <use x="55.615234" xlink:href="#ArialMT-101"/>
      <use x="111.230469" xlink:href="#ArialMT-119"/>
      <use x="183.447266" xlink:href="#ArialMT-95"/>
      <use x="239.0625" xlink:href="#ArialMT-99"/>
      <use x="289.0625" xlink:href="#ArialMT-111"/>
      <use x="344.677734" xlink:href="#ArialMT-110"/>
      <use x="400.292969" xlink:href="#ArialMT-102"/>
      <use x="428.076172" xlink:href="#ArialMT-105"/>
      <use x="450.292969" xlink:href="#ArialMT-114"/>
      <use x="483.59375" xlink:href="#ArialMT-109"/>
      <use x="566.894531" xlink:href="#ArialMT-101"/>
      <use x="622.509766" xlink:href="#ArialMT-100"/>
     </g>
    </g>
    <g id="line2d_18">
     <path d="M 16.2 90.70625 
L 36.2 90.70625 
" style="fill:none;stroke:#8c564b;stroke-linecap:round;stroke-width:1.75;"/>
    </g>
    <g id="line2d_19"/>
    <g id="text_6">
     <!-- new_deaths -->
     <g style="fill:#262626;" transform="translate(44.2 94.20625)scale(0.1 -0.1)">
      <use xlink:href="#ArialMT-110"/>
      <use x="55.615234" xlink:href="#ArialMT-101"/>
      <use x="111.230469" xlink:href="#ArialMT-119"/>
      <use x="183.447266" xlink:href="#ArialMT-95"/>
      <use x="239.0625" xlink:href="#ArialMT-100"/>
      <use x="294.677734" xlink:href="#ArialMT-101"/>
      <use x="350.292969" xlink:href="#ArialMT-97"/>
      <use x="405.908203" xlink:href="#ArialMT-116"/>
      <use x="433.691406" xlink:href="#ArialMT-104"/>
      <use x="489.306641" xlink:href="#ArialMT-115"/>
     </g>
    </g>
    <g id="line2d_20">
     <path d="M 16.2 104.851562 
L 36.2 104.851562 
" style="fill:none;stroke:#e377c2;stroke-linecap:round;stroke-width:1.75;"/>
    </g>
    <g id="line2d_21"/>
    <g id="text_7">
     <!-- new_recovered -->
     <g style="fill:#262626;" transform="translate(44.2 108.351562)scale(0.1 -0.1)">
      <use xlink:href="#ArialMT-110"/>
      <use x="55.615234" xlink:href="#ArialMT-101"/>
      <use x="111.230469" xlink:href="#ArialMT-119"/>
      <use x="183.447266" xlink:href="#ArialMT-95"/>
      <use x="239.0625" xlink:href="#ArialMT-114"/>
      <use x="272.363281" xlink:href="#ArialMT-101"/>
      <use x="327.978516" xlink:href="#ArialMT-99"/>
      <use x="377.978516" xlink:href="#ArialMT-111"/>
      <use x="433.59375" xlink:href="#ArialMT-118"/>
      <use x="483.59375" xlink:href="#ArialMT-101"/>
      <use x="539.208984" xlink:href="#ArialMT-114"/>
      <use x="572.509766" xlink:href="#ArialMT-101"/>
      <use x="628.125" xlink:href="#ArialMT-100"/>
     </g>
    </g>
   </g>
  </g>
 </g>
 <defs>
  <clipPath id="p11825a3c2a">
   <rect height="396" width="576" x="7.2" y="7.2"/>
  </clipPath>
 </defs>
</svg>
