<?xml version="1.0" encoding="utf-8" standalone="no"?>
<!DOCTYPE svg PUBLIC "-//W3C//DTD SVG 1.1//EN"
  "http://www.w3.org/Graphics/SVG/1.1/DTD/svg11.dtd">
<!-- Created with matplotlib (https://matplotlib.org/) -->
<svg height="360pt" version="1.1" viewBox="0 0 475.2 360" width="475.2pt" xmlns="http://www.w3.org/2000/svg" xmlns:xlink="http://www.w3.org/1999/xlink">
 <defs>
  <style type="text/css">
*{stroke-linecap:butt;stroke-linejoin:round;}
  </style>
 </defs>
 <g id="figure_1">
  <g id="patch_1">
   <path d="M 0 360 
L 475.2 360 
L 475.2 0 
L 0 0 
z
" style="fill:none;"/>
  </g>
  <g id="axes_1">
   <g id="line2d_1">
    <path clip-path="url(#pac93bda02f)" d="M 7.2 337.051655 
L 11.277876 337.044724 
L 15.355752 337.024355 
L 19.433628 336.989203 
L 23.511504 336.941109 
L 27.589381 336.883891 
L 31.667257 336.696393 
L 35.745133 336.654876 
L 39.823009 336.50847 
L 43.900885 336.388941 
L 47.978761 336.239495 
L 52.056637 335.903611 
L 56.134513 335.684781 
L 60.212389 335.401094 
L 64.290265 335.136292 
L 68.368142 334.911238 
L 72.446018 334.658459 
L 76.523894 334.465444 
L 80.60177 334.251141 
L 84.679646 334.066401 
L 88.757522 333.922118 
L 92.835398 333.892483 
L 96.913274 332.821107 
L 100.99115 332.360178 
L 105.069027 332.208468 
L 109.146903 332.053292 
L 113.224779 331.909433 
L 117.302655 331.776608 
L 121.380531 331.741032 
L 125.458407 331.701566 
L 129.536283 331.656018 
L 133.614159 331.531821 
L 137.692035 331.50452 
L 141.769912 331.463145 
L 145.847788 331.40338 
L 149.925664 331.333926 
L 154.00354 331.237808 
L 158.081416 331.141053 
L 162.159292 331.007449 
L 166.237168 330.840674 
L 170.315044 330.703605 
L 174.39292 330.524312 
L 178.470796 330.363053 
L 182.548673 330.167705 
L 186.626549 329.890879 
L 190.704425 329.605424 
L 194.782301 329.322585 
L 198.860177 329.057571 
L 202.938053 328.703934 
L 207.015929 328.188828 
L 211.093805 328.013566 
L 215.171681 326.821813 
L 219.249558 326.050462 
L 223.327434 325.247849 
L 227.40531 324.250666 
L 231.483186 323.145766 
L 235.561062 321.89057 
L 239.638938 319.924495 
L 243.716814 317.841295 
L 247.79469 315.551006 
L 251.872566 313.247209 
L 255.950442 310.336006 
L 260.028319 307.529621 
L 264.106195 304.019288 
L 268.184071 299.634412 
L 272.261947 295.129089 
L 276.339823 290.361933 
L 280.417699 286.157412 
L 284.495575 281.754714 
L 288.573451 276.443242 
L 292.651327 271.130355 
L 296.729204 265.42281 
L 300.80708 259.579752 
L 304.884956 252.401576 
L 308.962832 247.117758 
L 313.040708 241.955661 
L 317.118584 236.22711 
L 321.19646 230.214731 
L 325.274336 224.256246 
L 329.352212 217.440335 
L 333.430088 211.796657 
L 337.507965 206.480375 
L 341.585841 201.484205 
L 345.663717 197.320352 
L 349.741593 191.671865 
L 353.819469 184.840182 
L 357.897345 178.648438 
L 361.975221 173.16227 
L 366.053097 167.24806 
L 370.130973 162.234915 
L 374.20885 156.798538 
L 378.286726 151.505526 
L 382.364602 145.499017 
L 386.442478 138.296865 
L 390.520354 132.212132 
L 394.59823 126.926757 
L 398.676106 121.955412 
L 402.753982 116.676757 
L 406.831858 111.196247 
L 410.909735 106.743261 
L 414.987611 100.594874 
L 419.065487 94.684483 
L 423.143363 89.069733 
L 427.221239 83.671407 
L 431.299115 78.038975 
L 435.376991 71.486098 
L 439.454867 65.093985 
L 443.532743 58.562609 
L 447.610619 52.483959 
L 451.688496 46.989161 
L 455.766372 41.627685 
L 459.844248 35.654701 
L 463.922124 29.638432 
L 468 22.909091 
" style="fill:none;stroke:#1f77b4;stroke-linecap:square;stroke-width:1.5;"/>
   </g>
   <g id="line2d_2">
    <path clip-path="url(#pac93bda02f)" d="M 7.2 337.089707 
L 11.277876 337.089636 
L 15.355752 337.08907 
L 19.433628 337.087939 
L 23.511504 337.086948 
L 27.589381 337.085109 
L 31.667257 337.081644 
L 35.745133 337.081502 
L 39.823009 337.078815 
L 43.900885 337.075844 
L 47.978761 337.072591 
L 52.056637 337.065306 
L 56.134513 337.060779 
L 60.212389 337.056111 
L 64.290265 337.051019 
L 68.368142 337.046068 
L 72.446018 337.040056 
L 76.523894 337.033903 
L 80.60177 337.02683 
L 84.679646 337.019262 
L 88.757522 337.01219 
L 92.835398 337.011836 
L 96.913274 336.993942 
L 100.99115 336.983192 
L 105.069027 336.973078 
L 109.146903 336.965722 
L 113.224779 336.958791 
L 117.302655 336.94896 
L 121.380531 336.940826 
L 125.458407 336.931985 
L 129.536283 336.931702 
L 133.614159 336.917062 
L 137.692035 336.916284 
L 141.769912 336.904967 
L 145.847788 336.89938 
L 149.925664 336.894995 
L 154.00354 336.891883 
L 158.081416 336.887781 
L 162.159292 336.8829 
L 166.237168 336.87901 
L 170.315044 336.872716 
L 174.39292 336.867411 
L 178.470796 336.860763 
L 182.548673 336.854114 
L 186.626549 336.846193 
L 190.704425 336.839262 
L 194.782301 336.821933 
L 198.860177 336.808283 
L 202.938053 336.78947 
L 207.015929 336.764503 
L 211.093805 336.757077 
L 215.171681 336.708699 
L 219.249558 336.679347 
L 223.327434 336.635426 
L 227.40531 336.586907 
L 231.483186 336.53181 
L 235.561062 336.473248 
L 239.638938 336.393044 
L 243.716814 336.291762 
L 247.79469 336.173365 
L 251.872566 336.056665 
L 255.950442 335.924122 
L 260.028319 335.774322 
L 264.106195 335.592836 
L 268.184071 335.395578 
L 272.261947 335.16727 
L 276.339823 334.922978 
L 280.417699 334.691488 
L 284.495575 334.432839 
L 288.573451 334.112798 
L 292.651327 333.780239 
L 296.729204 333.343569 
L 300.80708 332.933068 
L 304.884956 332.521507 
L 308.962832 332.184279 
L 313.040708 331.817134 
L 317.118584 331.300826 
L 321.19646 330.843008 
L 325.274336 330.339643 
L 329.352212 329.839601 
L 333.430088 329.416865 
L 337.507965 329.021712 
L 341.585841 328.64028 
L 345.663717 328.180412 
L 349.741593 327.600944 
L 353.819469 326.920265 
L 357.897345 326.211507 
L 361.975221 325.809211 
L 366.053097 325.417807 
L 370.130973 325.068273 
L 374.20885 324.601685 
L 378.286726 324.143161 
L 382.364602 323.592054 
L 386.442478 323.146968 
L 390.520354 322.744176 
L 394.59823 322.482627 
L 398.676106 322.155655 
L 402.753982 321.732282 
L 406.831858 320.990707 
L 410.909735 320.584026 
L 414.987611 320.211859 
L 419.065487 319.847048 
L 423.143363 319.588045 
L 427.221239 319.300398 
L 431.299115 318.897111 
L 435.376991 318.430877 
L 439.454867 318.025186 
L 443.532743 317.648139 
L 447.610619 317.33602 
L 451.688496 317.095689 
L 455.766372 316.839586 
L 459.844248 316.441108 
L 463.922124 316.070993 
L 468 315.701726 
" style="fill:none;stroke:#ff7f0e;stroke-linecap:square;stroke-width:1.5;"/>
   </g>
   <g id="line2d_3">
    <path clip-path="url(#pac93bda02f)" d="M 7.2 337.088929 
L 11.277876 337.088787 
L 15.355752 337.088363 
L 19.433628 337.088151 
L 23.511504 337.087231 
L 27.589381 337.086595 
L 31.667257 337.083341 
L 35.745133 337.081997 
L 39.823009 337.080795 
L 43.900885 337.075208 
L 47.978761 337.070823 
L 52.056637 337.057526 
L 56.134513 337.046846 
L 60.212389 337.03065 
L 64.290265 337.011412 
L 68.368142 336.985738 
L 72.446018 336.948677 
L 76.523894 336.905887 
L 80.60177 336.86147 
L 84.679646 336.811819 
L 88.757522 336.759694 
L 92.835398 336.726664 
L 96.913274 336.645681 
L 100.99115 336.520989 
L 105.069027 336.426427 
L 109.146903 336.322458 
L 113.224779 336.200949 
L 117.302655 336.075832 
L 121.380531 335.950716 
L 125.458407 335.805301 
L 129.536283 335.754872 
L 133.614159 335.472246 
L 137.692035 335.436317 
L 141.769912 335.306674 
L 145.847788 335.117266 
L 149.925664 334.941933 
L 154.00354 334.73732 
L 158.081416 334.494442 
L 162.159292 334.277239 
L 166.237168 334.069725 
L 170.315044 333.865607 
L 174.39292 333.679806 
L 178.470796 333.471727 
L 182.548673 333.285997 
L 186.626549 333.139662 
L 190.704425 332.96334 
L 194.782301 332.798121 
L 198.860177 332.669609 
L 202.938053 332.535794 
L 207.015929 332.351973 
L 211.093805 332.258543 
L 215.171681 332.122252 
L 219.249558 331.954416 
L 223.327434 331.713236 
L 227.40531 331.567962 
L 231.483186 331.373321 
L 235.561062 331.198413 
L 239.638938 331.081783 
L 243.716814 330.909138 
L 247.79469 330.606921 
L 251.872566 330.213183 
L 255.950442 329.950431 
L 260.028319 329.473659 
L 264.106195 329.044698 
L 268.184071 328.452004 
L 272.261947 327.83208 
L 276.339823 327.230899 
L 280.417699 326.547179 
L 284.495575 325.452039 
L 288.573451 324.499484 
L 292.651327 323.428462 
L 296.729204 322.219593 
L 300.80708 321.120987 
L 304.884956 319.681264 
L 308.962832 318.700984 
L 313.040708 317.533773 
L 317.118584 315.868925 
L 321.19646 313.845632 
L 325.274336 312.055243 
L 329.352212 310.490686 
L 333.430088 308.650789 
L 337.507965 307.263686 
L 341.585841 305.35879 
L 345.663717 303.547749 
L 349.741593 300.947958 
L 353.819469 298.749191 
L 357.897345 296.893591 
L 361.975221 295.197836 
L 366.053097 292.963987 
L 370.130973 291.419659 
L 374.20885 289.009204 
L 378.286726 286.896229 
L 382.364602 284.859851 
L 386.442478 280.974522 
L 390.520354 279.329053 
L 394.59823 275.860025 
L 398.676106 273.863113 
L 402.753982 271.409515 
L 406.831858 268.293203 
L 410.909735 265.320255 
L 414.987611 262.592024 
L 419.065487 259.778141 
L 423.143363 257.5061 
L 427.221239 254.854679 
L 431.299115 252.30086 
L 435.376991 249.006316 
L 439.454867 246.224756 
L 443.532743 243.585994 
L 447.610619 239.796854 
L 451.688496 237.437678 
L 455.766372 234.097302 
L 459.844248 231.465896 
L 463.922124 227.566492 
L 468 224.783659 
" style="fill:none;stroke:#2ca02c;stroke-linecap:square;stroke-width:1.5;"/>
   </g>
   <g id="line2d_4">
    <path clip-path="url(#pac93bda02f)" d="M 7.2 337.062689 
L 11.277876 337.062689 
L 15.355752 337.05597 
L 19.433628 337.042178 
L 23.511504 337.02004 
L 27.589381 336.989911 
L 31.667257 336.843647 
L 35.745133 336.818892 
L 39.823009 336.714357 
L 43.900885 336.645964 
L 47.978761 336.2779 
L 52.056637 335.962598 
L 56.134513 335.758974 
L 60.212389 335.496152 
L 64.290265 335.255679 
L 68.368142 335.06125 
L 72.446018 334.851544 
L 76.523894 334.707473 
L 80.60177 334.544659 
L 84.679646 334.417137 
L 88.757522 334.332053 
L 92.835398 334.335801 
L 96.913274 333.363302 
L 100.99115 333.037815 
L 105.069027 332.990782 
L 109.146903 332.946931 
L 113.224779 332.931512 
L 117.302655 332.933634 
L 121.380531 333.031308 
L 125.458407 333.146099 
L 129.536283 333.151262 
L 133.614159 333.324331 
L 137.692035 333.333738 
L 141.769912 333.433322 
L 145.847788 333.568552 
L 149.925664 333.678816 
L 154.00354 333.790424 
L 158.081416 333.940648 
L 162.159292 334.029128 
L 166.237168 334.073757 
L 170.315044 334.147101 
L 174.39292 334.158912 
L 178.470796 334.212382 
L 182.548673 334.209412 
L 186.626549 334.086841 
L 190.704425 333.984641 
L 194.782301 333.884349 
L 198.860177 333.761496 
L 202.938053 333.560489 
L 207.015929 333.25417 
L 211.093805 333.179765 
L 215.171681 332.17268 
L 219.249558 331.598516 
L 223.327434 331.081005 
L 227.40531 330.277615 
L 231.483186 329.422452 
L 235.561062 328.400727 
L 239.638938 326.631486 
L 243.716814 324.822213 
L 247.79469 322.952539 
L 251.872566 321.15918 
L 255.950442 318.643271 
L 260.028319 316.463458 
L 264.106195 313.563572 
L 268.184071 309.968649 
L 272.261947 306.311557 
L 276.339823 302.389874 
L 280.417699 299.100563 
L 284.495575 296.051655 
L 288.573451 292.012777 
L 292.651327 288.103472 
L 296.729204 284.041466 
L 300.80708 279.707515 
L 304.884956 274.380624 
L 308.962832 270.414312 
L 313.040708 266.786572 
L 317.118584 263.239178 
L 321.19646 259.707909 
L 325.274336 256.043179 
L 329.352212 251.291866 
L 333.430088 247.910822 
L 337.507965 244.376795 
L 341.585841 241.666953 
L 345.663717 239.77401 
L 349.741593 237.304781 
L 353.819469 233.352544 
L 357.897345 229.725158 
L 361.975221 226.337041 
L 366.053097 223.048084 
L 370.130973 219.928802 
L 374.20885 217.369467 
L 378.286726 214.647954 
L 382.364602 211.22893 
L 386.442478 208.357193 
L 390.520354 204.32072 
L 394.59823 202.765924 
L 398.676106 200.118462 
L 402.753982 197.716778 
L 406.831858 196.094155 
L 410.909735 195.020798 
L 414.987611 191.972809 
L 419.065487 189.241112 
L 423.143363 186.157405 
L 427.221239 183.698149 
L 431.299115 181.022822 
L 435.376991 178.230723 
L 439.454867 175.025861 
L 443.532743 171.510294 
L 447.610619 169.532903 
L 451.688496 166.637613 
L 455.766372 164.872616 
L 459.844248 161.929515 
L 463.922124 160.182765 
L 468 156.605524 
" style="fill:none;stroke:#d62728;stroke-linecap:square;stroke-width:1.5;"/>
   </g>
   <g id="line2d_5">
    <path clip-path="url(#pac93bda02f)" d="M 7.2 337.090909 
L 11.277876 337.08419 
L 15.355752 337.070681 
L 19.433628 337.055828 
L 23.511504 337.042885 
L 27.589381 337.033903 
L 31.667257 336.903623 
L 35.745133 337.049746 
L 39.823009 336.944574 
L 43.900885 336.971875 
L 47.978761 336.941533 
L 52.056637 336.755026 
L 56.134513 336.872079 
L 60.212389 336.807293 
L 64.290265 336.826106 
L 68.368142 336.865855 
L 72.446018 336.842444 
L 76.523894 336.897895 
L 80.60177 336.876606 
L 84.679646 336.90617 
L 88.757522 336.946626 
L 92.835398 337.061274 
L 96.913274 336.019533 
L 100.99115 336.630051 
L 105.069027 336.939199 
L 109.146903 336.935734 
L 113.224779 336.94705 
L 117.302655 336.958083 
L 121.380531 337.055475 
L 125.458407 337.051443 
L 129.536283 337.045502 
L 133.614159 336.966712 
L 137.692035 337.063608 
L 141.769912 337.049887 
L 145.847788 337.031498 
L 149.925664 337.02195 
L 154.00354 336.995074 
L 158.081416 336.994649 
L 162.159292 336.957447 
L 166.237168 336.924983 
L 170.315044 336.954476 
L 174.39292 336.911899 
L 178.470796 336.930358 
L 182.548673 336.896197 
L 186.626549 336.814649 
L 190.704425 336.806161 
L 194.782301 336.80899 
L 198.860177 336.826389 
L 202.938053 336.737697 
L 207.015929 336.570145 
L 211.093805 336.91593 
L 215.171681 335.900075 
L 219.249558 336.321468 
L 223.327434 336.288297 
L 227.40531 336.094858 
L 231.483186 335.986362 
L 235.561062 335.83635 
L 239.638938 335.125117 
L 243.716814 335.008134 
L 247.79469 334.800903 
L 251.872566 334.77622 
L 255.950442 334.179777 
L 260.028319 334.234378 
L 264.106195 333.631358 
L 268.184071 332.706175 
L 272.261947 332.586151 
L 276.339823 332.323895 
L 280.417699 332.886388 
L 284.495575 332.688423 
L 288.573451 331.779649 
L 292.651327 331.778022 
L 296.729204 331.383576 
L 300.80708 331.247851 
L 304.884956 329.912733 
L 308.962832 331.807445 
L 313.040708 331.929095 
L 317.118584 331.362358 
L 321.19646 331.07853 
L 325.274336 331.132424 
L 329.352212 330.275069 
L 333.430088 331.447231 
L 337.507965 331.774627 
L 341.585841 332.094739 
L 345.663717 332.927056 
L 349.741593 331.442422 
L 353.819469 330.259226 
L 357.897345 330.899166 
L 361.975221 331.60474 
L 366.053097 331.176699 
L 370.130973 332.077764 
L 374.20885 331.654532 
L 378.286726 331.797896 
L 382.364602 331.0844 
L 386.442478 329.888757 
L 390.520354 331.006176 
L 394.59823 331.805535 
L 398.676106 332.119564 
L 402.753982 331.812254 
L 406.831858 331.610399 
L 410.909735 332.639055 
L 414.987611 330.942522 
L 419.065487 331.180519 
L 423.143363 331.476158 
L 427.221239 331.692584 
L 431.299115 331.458477 
L 435.376991 330.538033 
L 439.454867 330.698796 
L 443.532743 330.559534 
L 447.610619 331.012259 
L 451.688496 331.596112 
L 455.766372 331.729433 
L 459.844248 331.117925 
L 463.922124 331.074711 
L 468 330.361568 
" style="fill:none;stroke:#9467bd;stroke-linecap:square;stroke-width:1.5;"/>
   </g>
   <g id="line2d_6">
    <path clip-path="url(#pac93bda02f)" d="M 7.2 337.090909 
L 11.277876 337.090838 
L 15.355752 337.090343 
L 19.433628 337.089777 
L 23.511504 337.089919 
L 27.589381 337.08907 
L 31.667257 337.087443 
L 35.745133 337.090768 
L 39.823009 337.088221 
L 43.900885 337.087939 
L 47.978761 337.087656 
L 52.056637 337.083624 
L 56.134513 337.086383 
L 60.212389 337.086241 
L 64.290265 337.085817 
L 68.368142 337.085958 
L 72.446018 337.084897 
L 76.523894 337.084756 
L 80.60177 337.083836 
L 84.679646 337.083341 
L 88.757522 337.083836 
L 92.835398 337.090555 
L 96.913274 337.073015 
L 100.99115 337.080159 
L 105.069027 337.080795 
L 109.146903 337.083553 
L 113.224779 337.083978 
L 117.302655 337.081078 
L 121.380531 337.082917 
L 125.458407 337.082068 
L 129.536283 337.090626 
L 133.614159 337.076269 
L 137.692035 337.090131 
L 141.769912 337.079593 
L 145.847788 337.085322 
L 149.925664 337.086524 
L 154.00354 337.087797 
L 158.081416 337.086807 
L 162.159292 337.086029 
L 166.237168 337.087019 
L 170.315044 337.084614 
L 174.39292 337.085605 
L 178.470796 337.084261 
L 182.548673 337.084261 
L 186.626549 337.082988 
L 190.704425 337.083978 
L 194.782301 337.073581 
L 198.860177 337.077259 
L 202.938053 337.072096 
L 207.015929 337.06573 
L 211.093805 337.083553 
L 215.171681 337.042602 
L 219.249558 337.061557 
L 223.327434 337.046987 
L 227.40531 337.04239 
L 231.483186 337.035813 
L 235.561062 337.032347 
L 239.638938 337.010704 
L 243.716814 336.989628 
L 247.79469 336.972512 
L 251.872566 336.974138 
L 255.950442 336.958366 
L 260.028319 336.940543 
L 264.106195 336.91013 
L 268.184071 336.893651 
L 272.261947 336.862602 
L 276.339823 336.846617 
L 280.417699 336.859419 
L 284.495575 336.83226 
L 288.573451 336.770868 
L 292.651327 336.75835 
L 296.729204 336.654239 
L 300.80708 336.680408 
L 304.884956 336.679347 
L 308.962832 336.753682 
L 313.040708 336.723764 
L 317.118584 336.5746 
L 321.19646 336.633092 
L 325.274336 336.587544 
L 329.352212 336.590868 
L 333.430088 336.668173 
L 337.507965 336.695756 
L 341.585841 336.709477 
L 345.663717 336.631041 
L 349.741593 336.511441 
L 353.819469 336.41023 
L 357.897345 336.382152 
L 361.975221 336.688613 
L 366.053097 336.699505 
L 370.130973 336.741375 
L 374.20885 336.624322 
L 378.286726 336.632385 
L 382.364602 336.539803 
L 386.442478 336.645823 
L 390.520354 336.688118 
L 394.59823 336.82936 
L 398.676106 336.763937 
L 402.753982 336.667536 
L 406.831858 336.349334 
L 410.909735 336.684228 
L 414.987611 336.718742 
L 419.065487 336.726098 
L 423.143363 336.831906 
L 427.221239 336.803262 
L 431.299115 336.687623 
L 435.376991 336.624675 
L 439.454867 336.685218 
L 443.532743 336.713862 
L 447.610619 336.77879 
L 451.688496 336.850578 
L 455.766372 336.834806 
L 459.844248 336.692432 
L 463.922124 336.720794 
L 468 336.721642 
" style="fill:none;stroke:#8c564b;stroke-linecap:square;stroke-width:1.5;"/>
   </g>
   <g id="line2d_7">
    <path clip-path="url(#pac93bda02f)" d="M 7.2 337.090909 
L 11.277876 337.090768 
L 15.355752 337.090485 
L 19.433628 337.090697 
L 23.511504 337.08999 
L 27.589381 337.090273 
L 31.667257 337.087656 
L 35.745133 337.089565 
L 39.823009 337.089707 
L 43.900885 337.085322 
L 47.978761 337.086524 
L 52.056637 337.077612 
L 56.134513 337.080229 
L 60.212389 337.074713 
L 64.290265 337.071671 
L 68.368142 337.065235 
L 72.446018 337.053848 
L 76.523894 337.048119 
L 80.60177 337.046492 
L 84.679646 337.041259 
L 88.757522 337.038783 
L 92.835398 337.057879 
L 96.913274 337.009926 
L 100.99115 336.966217 
L 105.069027 336.996347 
L 109.146903 336.98694 
L 113.224779 336.9694 
L 117.302655 336.965793 
L 121.380531 336.965793 
L 125.458407 336.945494 
L 129.536283 337.040481 
L 133.614159 336.808283 
L 137.692035 337.05498 
L 141.769912 336.961266 
L 145.847788 336.901502 
L 149.925664 336.915576 
L 154.00354 336.886295 
L 158.081416 336.848032 
L 162.159292 336.873706 
L 166.237168 336.883395 
L 170.315044 336.88679 
L 174.39292 336.905109 
L 178.470796 336.88283 
L 182.548673 336.905179 
L 186.626549 336.944574 
L 190.704425 336.914586 
L 194.782301 336.92569 
L 198.860177 336.962398 
L 202.938053 336.957235 
L 207.015929 336.901572 
L 211.093805 336.997478 
L 215.171681 336.954618 
L 219.249558 336.923073 
L 223.327434 336.849729 
L 227.40531 336.945635 
L 231.483186 336.896268 
L 235.561062 336.916001 
L 239.638938 336.97428 
L 243.716814 336.918264 
L 247.79469 336.788692 
L 251.872566 336.696746 
L 255.950442 336.828157 
L 260.028319 336.574035 
L 264.106195 336.703465 
L 268.184071 336.498215 
L 272.261947 336.470985 
L 276.339823 336.489728 
L 280.417699 336.407189 
L 284.495575 335.995769 
L 288.573451 336.138355 
L 292.651327 336.019887 
L 296.729204 335.88204 
L 300.80708 335.992303 
L 304.884956 335.651186 
L 308.962832 336.11063 
L 313.040708 335.923698 
L 317.118584 335.426061 
L 321.19646 335.067616 
L 325.274336 335.30052 
L 329.352212 335.526352 
L 333.430088 335.251011 
L 337.507965 335.703807 
L 341.585841 335.186013 
L 345.663717 335.279868 
L 349.741593 334.491118 
L 353.819469 334.892141 
L 357.897345 335.23531 
L 361.975221 335.395153 
L 366.053097 334.857061 
L 370.130973 335.54658 
L 374.20885 334.680455 
L 378.286726 334.977934 
L 382.364602 335.054531 
L 386.442478 333.20558 
L 390.520354 335.44544 
L 394.59823 333.621881 
L 398.676106 335.093997 
L 402.753982 334.637311 
L 406.831858 333.974597 
L 410.909735 334.117961 
L 414.987611 334.362677 
L 419.065487 334.277027 
L 423.143363 334.818868 
L 427.221239 334.439487 
L 431.299115 334.537091 
L 435.376991 333.796365 
L 439.454867 334.309349 
L 443.532743 334.452147 
L 447.610619 333.301769 
L 451.688496 334.731732 
L 455.766372 333.750533 
L 459.844248 334.459503 
L 463.922124 333.191506 
L 468 334.308076 
" style="fill:none;stroke:#e377c2;stroke-linecap:square;stroke-width:1.5;"/>
   </g>
   <g id="legend_1">
    <g id="patch_2">
     <path d="M 14.2 118.78125 
L 122.3 118.78125 
Q 124.3 118.78125 124.3 116.78125 
L 124.3 14.2 
Q 124.3 12.2 122.3 12.2 
L 14.2 12.2 
Q 12.2 12.2 12.2 14.2 
L 12.2 116.78125 
Q 12.2 118.78125 14.2 118.78125 
z
" style="fill:#ffffff;opacity:0.8;stroke:#cccccc;stroke-linejoin:miter;"/>
    </g>
    <g id="line2d_8">
     <path d="M 16.2 20.298437 
L 36.2 20.298437 
" style="fill:none;stroke:#1f77b4;stroke-linecap:square;stroke-width:1.5;"/>
    </g>
    <g id="line2d_9"/>
    <g id="text_1">
     <!-- confirmed -->
     <defs>
      <path d="M 48.78125 52.59375 
L 48.78125 44.1875 
Q 44.96875 46.296875 41.140625 47.34375 
Q 37.3125 48.390625 33.40625 48.390625 
Q 24.65625 48.390625 19.8125 42.84375 
Q 14.984375 37.3125 14.984375 27.296875 
Q 14.984375 17.28125 19.8125 11.734375 
Q 24.65625 6.203125 33.40625 6.203125 
Q 37.3125 6.203125 41.140625 7.25 
Q 44.96875 8.296875 48.78125 10.40625 
L 48.78125 2.09375 
Q 45.015625 0.34375 40.984375 -0.53125 
Q 36.96875 -1.421875 32.421875 -1.421875 
Q 20.0625 -1.421875 12.78125 6.34375 
Q 5.515625 14.109375 5.515625 27.296875 
Q 5.515625 40.671875 12.859375 48.328125 
Q 20.21875 56 33.015625 56 
Q 37.15625 56 41.109375 55.140625 
Q 45.0625 54.296875 48.78125 52.59375 
z
" id="DejaVuSans-99"/>
      <path d="M 30.609375 48.390625 
Q 23.390625 48.390625 19.1875 42.75 
Q 14.984375 37.109375 14.984375 27.296875 
Q 14.984375 17.484375 19.15625 11.84375 
Q 23.34375 6.203125 30.609375 6.203125 
Q 37.796875 6.203125 41.984375 11.859375 
Q 46.1875 17.53125 46.1875 27.296875 
Q 46.1875 37.015625 41.984375 42.703125 
Q 37.796875 48.390625 30.609375 48.390625 
z
M 30.609375 56 
Q 42.328125 56 49.015625 48.375 
Q 55.71875 40.765625 55.71875 27.296875 
Q 55.71875 13.875 49.015625 6.21875 
Q 42.328125 -1.421875 30.609375 -1.421875 
Q 18.84375 -1.421875 12.171875 6.21875 
Q 5.515625 13.875 5.515625 27.296875 
Q 5.515625 40.765625 12.171875 48.375 
Q 18.84375 56 30.609375 56 
z
" id="DejaVuSans-111"/>
      <path d="M 54.890625 33.015625 
L 54.890625 0 
L 45.90625 0 
L 45.90625 32.71875 
Q 45.90625 40.484375 42.875 44.328125 
Q 39.84375 48.1875 33.796875 48.1875 
Q 26.515625 48.1875 22.3125 43.546875 
Q 18.109375 38.921875 18.109375 30.90625 
L 18.109375 0 
L 9.078125 0 
L 9.078125 54.6875 
L 18.109375 54.6875 
L 18.109375 46.1875 
Q 21.34375 51.125 25.703125 53.5625 
Q 30.078125 56 35.796875 56 
Q 45.21875 56 50.046875 50.171875 
Q 54.890625 44.34375 54.890625 33.015625 
z
" id="DejaVuSans-110"/>
      <path d="M 37.109375 75.984375 
L 37.109375 68.5 
L 28.515625 68.5 
Q 23.6875 68.5 21.796875 66.546875 
Q 19.921875 64.59375 19.921875 59.515625 
L 19.921875 54.6875 
L 34.71875 54.6875 
L 34.71875 47.703125 
L 19.921875 47.703125 
L 19.921875 0 
L 10.890625 0 
L 10.890625 47.703125 
L 2.296875 47.703125 
L 2.296875 54.6875 
L 10.890625 54.6875 
L 10.890625 58.5 
Q 10.890625 67.625 15.140625 71.796875 
Q 19.390625 75.984375 28.609375 75.984375 
z
" id="DejaVuSans-102"/>
      <path d="M 9.421875 54.6875 
L 18.40625 54.6875 
L 18.40625 0 
L 9.421875 0 
z
M 9.421875 75.984375 
L 18.40625 75.984375 
L 18.40625 64.59375 
L 9.421875 64.59375 
z
" id="DejaVuSans-105"/>
      <path d="M 41.109375 46.296875 
Q 39.59375 47.171875 37.8125 47.578125 
Q 36.03125 48 33.890625 48 
Q 26.265625 48 22.1875 43.046875 
Q 18.109375 38.09375 18.109375 28.8125 
L 18.109375 0 
L 9.078125 0 
L 9.078125 54.6875 
L 18.109375 54.6875 
L 18.109375 46.1875 
Q 20.953125 51.171875 25.484375 53.578125 
Q 30.03125 56 36.53125 56 
Q 37.453125 56 38.578125 55.875 
Q 39.703125 55.765625 41.0625 55.515625 
z
" id="DejaVuSans-114"/>
      <path d="M 52 44.1875 
Q 55.375 50.25 60.0625 53.125 
Q 64.75 56 71.09375 56 
Q 79.640625 56 84.28125 50.015625 
Q 88.921875 44.046875 88.921875 33.015625 
L 88.921875 0 
L 79.890625 0 
L 79.890625 32.71875 
Q 79.890625 40.578125 77.09375 44.375 
Q 74.3125 48.1875 68.609375 48.1875 
Q 61.625 48.1875 57.5625 43.546875 
Q 53.515625 38.921875 53.515625 30.90625 
L 53.515625 0 
L 44.484375 0 
L 44.484375 32.71875 
Q 44.484375 40.625 41.703125 44.40625 
Q 38.921875 48.1875 33.109375 48.1875 
Q 26.21875 48.1875 22.15625 43.53125 
Q 18.109375 38.875 18.109375 30.90625 
L 18.109375 0 
L 9.078125 0 
L 9.078125 54.6875 
L 18.109375 54.6875 
L 18.109375 46.1875 
Q 21.1875 51.21875 25.484375 53.609375 
Q 29.78125 56 35.6875 56 
Q 41.65625 56 45.828125 52.96875 
Q 50 49.953125 52 44.1875 
z
" id="DejaVuSans-109"/>
      <path d="M 56.203125 29.59375 
L 56.203125 25.203125 
L 14.890625 25.203125 
Q 15.484375 15.921875 20.484375 11.0625 
Q 25.484375 6.203125 34.421875 6.203125 
Q 39.59375 6.203125 44.453125 7.46875 
Q 49.3125 8.734375 54.109375 11.28125 
L 54.109375 2.78125 
Q 49.265625 0.734375 44.1875 -0.34375 
Q 39.109375 -1.421875 33.890625 -1.421875 
Q 20.796875 -1.421875 13.15625 6.1875 
Q 5.515625 13.8125 5.515625 26.8125 
Q 5.515625 40.234375 12.765625 48.109375 
Q 20.015625 56 32.328125 56 
Q 43.359375 56 49.78125 48.890625 
Q 56.203125 41.796875 56.203125 29.59375 
z
M 47.21875 32.234375 
Q 47.125 39.59375 43.09375 43.984375 
Q 39.0625 48.390625 32.421875 48.390625 
Q 24.90625 48.390625 20.390625 44.140625 
Q 15.875 39.890625 15.1875 32.171875 
z
" id="DejaVuSans-101"/>
      <path d="M 45.40625 46.390625 
L 45.40625 75.984375 
L 54.390625 75.984375 
L 54.390625 0 
L 45.40625 0 
L 45.40625 8.203125 
Q 42.578125 3.328125 38.25 0.953125 
Q 33.9375 -1.421875 27.875 -1.421875 
Q 17.96875 -1.421875 11.734375 6.484375 
Q 5.515625 14.40625 5.515625 27.296875 
Q 5.515625 40.1875 11.734375 48.09375 
Q 17.96875 56 27.875 56 
Q 33.9375 56 38.25 53.625 
Q 42.578125 51.265625 45.40625 46.390625 
z
M 14.796875 27.296875 
Q 14.796875 17.390625 18.875 11.75 
Q 22.953125 6.109375 30.078125 6.109375 
Q 37.203125 6.109375 41.296875 11.75 
Q 45.40625 17.390625 45.40625 27.296875 
Q 45.40625 37.203125 41.296875 42.84375 
Q 37.203125 48.484375 30.078125 48.484375 
Q 22.953125 48.484375 18.875 42.84375 
Q 14.796875 37.203125 14.796875 27.296875 
z
" id="DejaVuSans-100"/>
     </defs>
     <g transform="translate(44.2 23.798437)scale(0.1 -0.1)">
      <use xlink:href="#DejaVuSans-99"/>
      <use x="54.980469" xlink:href="#DejaVuSans-111"/>
      <use x="116.162109" xlink:href="#DejaVuSans-110"/>
      <use x="179.541016" xlink:href="#DejaVuSans-102"/>
      <use x="214.746094" xlink:href="#DejaVuSans-105"/>
      <use x="242.529297" xlink:href="#DejaVuSans-114"/>
      <use x="281.892578" xlink:href="#DejaVuSans-109"/>
      <use x="379.304688" xlink:href="#DejaVuSans-101"/>
      <use x="440.828125" xlink:href="#DejaVuSans-100"/>
     </g>
    </g>
    <g id="line2d_10">
     <path d="M 16.2 34.976562 
L 36.2 34.976562 
" style="fill:none;stroke:#ff7f0e;stroke-linecap:square;stroke-width:1.5;"/>
    </g>
    <g id="line2d_11"/>
    <g id="text_2">
     <!-- deaths -->
     <defs>
      <path d="M 34.28125 27.484375 
Q 23.390625 27.484375 19.1875 25 
Q 14.984375 22.515625 14.984375 16.5 
Q 14.984375 11.71875 18.140625 8.90625 
Q 21.296875 6.109375 26.703125 6.109375 
Q 34.1875 6.109375 38.703125 11.40625 
Q 43.21875 16.703125 43.21875 25.484375 
L 43.21875 27.484375 
z
M 52.203125 31.203125 
L 52.203125 0 
L 43.21875 0 
L 43.21875 8.296875 
Q 40.140625 3.328125 35.546875 0.953125 
Q 30.953125 -1.421875 24.3125 -1.421875 
Q 15.921875 -1.421875 10.953125 3.296875 
Q 6 8.015625 6 15.921875 
Q 6 25.140625 12.171875 29.828125 
Q 18.359375 34.515625 30.609375 34.515625 
L 43.21875 34.515625 
L 43.21875 35.40625 
Q 43.21875 41.609375 39.140625 45 
Q 35.0625 48.390625 27.6875 48.390625 
Q 23 48.390625 18.546875 47.265625 
Q 14.109375 46.140625 10.015625 43.890625 
L 10.015625 52.203125 
Q 14.9375 54.109375 19.578125 55.046875 
Q 24.21875 56 28.609375 56 
Q 40.484375 56 46.34375 49.84375 
Q 52.203125 43.703125 52.203125 31.203125 
z
" id="DejaVuSans-97"/>
      <path d="M 18.3125 70.21875 
L 18.3125 54.6875 
L 36.8125 54.6875 
L 36.8125 47.703125 
L 18.3125 47.703125 
L 18.3125 18.015625 
Q 18.3125 11.328125 20.140625 9.421875 
Q 21.96875 7.515625 27.59375 7.515625 
L 36.8125 7.515625 
L 36.8125 0 
L 27.59375 0 
Q 17.1875 0 13.234375 3.875 
Q 9.28125 7.765625 9.28125 18.015625 
L 9.28125 47.703125 
L 2.6875 47.703125 
L 2.6875 54.6875 
L 9.28125 54.6875 
L 9.28125 70.21875 
z
" id="DejaVuSans-116"/>
      <path d="M 54.890625 33.015625 
L 54.890625 0 
L 45.90625 0 
L 45.90625 32.71875 
Q 45.90625 40.484375 42.875 44.328125 
Q 39.84375 48.1875 33.796875 48.1875 
Q 26.515625 48.1875 22.3125 43.546875 
Q 18.109375 38.921875 18.109375 30.90625 
L 18.109375 0 
L 9.078125 0 
L 9.078125 75.984375 
L 18.109375 75.984375 
L 18.109375 46.1875 
Q 21.34375 51.125 25.703125 53.5625 
Q 30.078125 56 35.796875 56 
Q 45.21875 56 50.046875 50.171875 
Q 54.890625 44.34375 54.890625 33.015625 
z
" id="DejaVuSans-104"/>
      <path d="M 44.28125 53.078125 
L 44.28125 44.578125 
Q 40.484375 46.53125 36.375 47.5 
Q 32.28125 48.484375 27.875 48.484375 
Q 21.1875 48.484375 17.84375 46.4375 
Q 14.5 44.390625 14.5 40.28125 
Q 14.5 37.15625 16.890625 35.375 
Q 19.28125 33.59375 26.515625 31.984375 
L 29.59375 31.296875 
Q 39.15625 29.25 43.1875 25.515625 
Q 47.21875 21.78125 47.21875 15.09375 
Q 47.21875 7.46875 41.1875 3.015625 
Q 35.15625 -1.421875 24.609375 -1.421875 
Q 20.21875 -1.421875 15.453125 -0.5625 
Q 10.6875 0.296875 5.421875 2 
L 5.421875 11.28125 
Q 10.40625 8.6875 15.234375 7.390625 
Q 20.0625 6.109375 24.8125 6.109375 
Q 31.15625 6.109375 34.5625 8.28125 
Q 37.984375 10.453125 37.984375 14.40625 
Q 37.984375 18.0625 35.515625 20.015625 
Q 33.0625 21.96875 24.703125 23.78125 
L 21.578125 24.515625 
Q 13.234375 26.265625 9.515625 29.90625 
Q 5.8125 33.546875 5.8125 39.890625 
Q 5.8125 47.609375 11.28125 51.796875 
Q 16.75 56 26.8125 56 
Q 31.78125 56 36.171875 55.265625 
Q 40.578125 54.546875 44.28125 53.078125 
z
" id="DejaVuSans-115"/>
     </defs>
     <g transform="translate(44.2 38.476562)scale(0.1 -0.1)">
      <use xlink:href="#DejaVuSans-100"/>
      <use x="63.476562" xlink:href="#DejaVuSans-101"/>
      <use x="125" xlink:href="#DejaVuSans-97"/>
      <use x="186.279297" xlink:href="#DejaVuSans-116"/>
      <use x="225.488281" xlink:href="#DejaVuSans-104"/>
      <use x="288.867188" xlink:href="#DejaVuSans-115"/>
     </g>
    </g>
    <g id="line2d_12">
     <path d="M 16.2 49.654687 
L 36.2 49.654687 
" style="fill:none;stroke:#2ca02c;stroke-linecap:square;stroke-width:1.5;"/>
    </g>
    <g id="line2d_13"/>
    <g id="text_3">
     <!-- recovered -->
     <defs>
      <path d="M 2.984375 54.6875 
L 12.5 54.6875 
L 29.59375 8.796875 
L 46.6875 54.6875 
L 56.203125 54.6875 
L 35.6875 0 
L 23.484375 0 
z
" id="DejaVuSans-118"/>
     </defs>
     <g transform="translate(44.2 53.154687)scale(0.1 -0.1)">
      <use xlink:href="#DejaVuSans-114"/>
      <use x="38.863281" xlink:href="#DejaVuSans-101"/>
      <use x="100.386719" xlink:href="#DejaVuSans-99"/>
      <use x="155.367188" xlink:href="#DejaVuSans-111"/>
      <use x="216.548828" xlink:href="#DejaVuSans-118"/>
      <use x="275.728516" xlink:href="#DejaVuSans-101"/>
      <use x="337.251953" xlink:href="#DejaVuSans-114"/>
      <use x="376.115234" xlink:href="#DejaVuSans-101"/>
      <use x="437.638672" xlink:href="#DejaVuSans-100"/>
     </g>
    </g>
    <g id="line2d_14">
     <path d="M 16.2 64.332812 
L 36.2 64.332812 
" style="fill:none;stroke:#d62728;stroke-linecap:square;stroke-width:1.5;"/>
    </g>
    <g id="line2d_15"/>
    <g id="text_4">
     <!-- active -->
     <g transform="translate(44.2 67.832812)scale(0.1 -0.1)">
      <use xlink:href="#DejaVuSans-97"/>
      <use x="61.279297" xlink:href="#DejaVuSans-99"/>
      <use x="116.259766" xlink:href="#DejaVuSans-116"/>
      <use x="155.46875" xlink:href="#DejaVuSans-105"/>
      <use x="183.251953" xlink:href="#DejaVuSans-118"/>
      <use x="242.431641" xlink:href="#DejaVuSans-101"/>
     </g>
    </g>
    <g id="line2d_16">
     <path d="M 16.2 79.010937 
L 36.2 79.010937 
" style="fill:none;stroke:#9467bd;stroke-linecap:square;stroke-width:1.5;"/>
    </g>
    <g id="line2d_17"/>
    <g id="text_5">
     <!-- new_confirmed -->
     <defs>
      <path d="M 4.203125 54.6875 
L 13.1875 54.6875 
L 24.421875 12.015625 
L 35.59375 54.6875 
L 46.1875 54.6875 
L 57.421875 12.015625 
L 68.609375 54.6875 
L 77.59375 54.6875 
L 63.28125 0 
L 52.6875 0 
L 40.921875 44.828125 
L 29.109375 0 
L 18.5 0 
z
" id="DejaVuSans-119"/>
      <path d="M 50.984375 -16.609375 
L 50.984375 -23.578125 
L -0.984375 -23.578125 
L -0.984375 -16.609375 
z
" id="DejaVuSans-95"/>
     </defs>
     <g transform="translate(44.2 82.510937)scale(0.1 -0.1)">
      <use xlink:href="#DejaVuSans-110"/>
      <use x="63.378906" xlink:href="#DejaVuSans-101"/>
      <use x="124.902344" xlink:href="#DejaVuSans-119"/>
      <use x="206.689453" xlink:href="#DejaVuSans-95"/>
      <use x="256.689453" xlink:href="#DejaVuSans-99"/>
      <use x="311.669922" xlink:href="#DejaVuSans-111"/>
      <use x="372.851562" xlink:href="#DejaVuSans-110"/>
      <use x="436.230469" xlink:href="#DejaVuSans-102"/>
      <use x="471.435547" xlink:href="#DejaVuSans-105"/>
      <use x="499.21875" xlink:href="#DejaVuSans-114"/>
      <use x="538.582031" xlink:href="#DejaVuSans-109"/>
      <use x="635.994141" xlink:href="#DejaVuSans-101"/>
      <use x="697.517578" xlink:href="#DejaVuSans-100"/>
     </g>
    </g>
    <g id="line2d_18">
     <path d="M 16.2 93.967187 
L 36.2 93.967187 
" style="fill:none;stroke:#8c564b;stroke-linecap:square;stroke-width:1.5;"/>
    </g>
    <g id="line2d_19"/>
    <g id="text_6">
     <!-- new_deaths -->
     <g transform="translate(44.2 97.467187)scale(0.1 -0.1)">
      <use xlink:href="#DejaVuSans-110"/>
      <use x="63.378906" xlink:href="#DejaVuSans-101"/>
      <use x="124.902344" xlink:href="#DejaVuSans-119"/>
      <use x="206.689453" xlink:href="#DejaVuSans-95"/>
      <use x="256.689453" xlink:href="#DejaVuSans-100"/>
      <use x="320.166016" xlink:href="#DejaVuSans-101"/>
      <use x="381.689453" xlink:href="#DejaVuSans-97"/>
      <use x="442.96875" xlink:href="#DejaVuSans-116"/>
      <use x="482.177734" xlink:href="#DejaVuSans-104"/>
      <use x="545.556641" xlink:href="#DejaVuSans-115"/>
     </g>
    </g>
    <g id="line2d_20">
     <path d="M 16.2 108.923437 
L 36.2 108.923437 
" style="fill:none;stroke:#e377c2;stroke-linecap:square;stroke-width:1.5;"/>
    </g>
    <g id="line2d_21"/>
    <g id="text_7">
     <!-- new_recovered -->
     <g transform="translate(44.2 112.423437)scale(0.1 -0.1)">
      <use xlink:href="#DejaVuSans-110"/>
      <use x="63.378906" xlink:href="#DejaVuSans-101"/>
      <use x="124.902344" xlink:href="#DejaVuSans-119"/>
      <use x="206.689453" xlink:href="#DejaVuSans-95"/>
      <use x="256.689453" xlink:href="#DejaVuSans-114"/>
      <use x="295.552734" xlink:href="#DejaVuSans-101"/>
      <use x="357.076172" xlink:href="#DejaVuSans-99"/>
      <use x="412.056641" xlink:href="#DejaVuSans-111"/>
      <use x="473.238281" xlink:href="#DejaVuSans-118"/>
      <use x="532.417969" xlink:href="#DejaVuSans-101"/>
      <use x="593.941406" xlink:href="#DejaVuSans-114"/>
      <use x="632.804688" xlink:href="#DejaVuSans-101"/>
      <use x="694.328125" xlink:href="#DejaVuSans-100"/>
     </g>
    </g>
   </g>
  </g>
 </g>
 <defs>
  <clipPath id="pac93bda02f">
   <rect height="345.6" width="460.8" x="7.2" y="7.2"/>
  </clipPath>
 </defs>
</svg>
