<?xml version="1.0" encoding="utf-8" standalone="no"?>
<!DOCTYPE svg PUBLIC "-//W3C//DTD SVG 1.1//EN"
  "http://www.w3.org/Graphics/SVG/1.1/DTD/svg11.dtd">
<!-- Created with matplotlib (https://matplotlib.org/) -->
<svg height="360pt" version="1.1" viewBox="0 0 475.2 360" width="475.2pt" xmlns="http://www.w3.org/2000/svg" xmlns:xlink="http://www.w3.org/1999/xlink">
 <defs>
  <style type="text/css">
*{stroke-linecap:butt;stroke-linejoin:round;}
  </style>
 </defs>
 <g id="figure_1">
  <g id="patch_1">
   <path d="M 0 360 
L 475.2 360 
L 475.2 0 
L 0 0 
z
" style="fill:none;"/>
  </g>
  <g id="axes_1">
   <g id="line2d_1">
    <path clip-path="url(#p3eb0518c2f)" d="M 7.2 337.052521 
L 11.242105 337.045743 
L 15.284211 337.025823 
L 19.326316 336.991447 
L 23.368421 336.944413 
L 27.410526 336.888456 
L 31.452632 336.705094 
L 35.494737 336.664493 
L 39.536842 336.521316 
L 43.578947 336.404424 
L 47.621053 336.258273 
L 51.663158 335.929798 
L 55.705263 335.715794 
L 59.747368 335.438364 
L 63.789474 335.179402 
L 67.831579 334.959312 
L 71.873684 334.712108 
L 75.915789 334.52335 
L 79.957895 334.313773 
L 84 334.133108 
L 88.042105 333.992007 
L 92.084211 333.963026 
L 96.126316 332.91528 
L 100.168421 332.464517 
L 104.210526 332.316153 
L 108.252632 332.1644 
L 112.294737 332.023714 
L 116.336842 331.893817 
L 120.378947 331.859026 
L 124.421053 331.820431 
L 128.463158 331.775887 
L 132.505263 331.65443 
L 136.547368 331.627731 
L 140.589474 331.587268 
L 144.631579 331.528822 
L 148.673684 331.460899 
L 152.715789 331.366901 
L 156.757895 331.27228 
L 160.8 331.141623 
L 164.842105 330.978527 
L 168.884211 330.844481 
L 172.926316 330.669142 
L 176.968421 330.51144 
L 181.010526 330.3204 
L 185.052632 330.049679 
L 189.094737 329.77052 
L 193.136842 329.49392 
L 197.178947 329.23475 
L 201.221053 328.888914 
L 205.263158 328.385169 
L 209.305263 328.213772 
L 213.347368 327.048303 
L 217.389474 326.293965 
L 221.431579 325.509054 
L 225.473684 324.533865 
L 229.515789 323.453333 
L 233.557895 322.225822 
L 237.6 320.303109 
L 241.642105 318.265856 
L 245.684211 316.026081 
L 249.726316 313.773095 
L 253.768421 310.9261 
L 257.810526 308.181612 
L 261.852632 304.748701 
L 265.894737 300.460536 
L 269.936842 296.05458 
L 273.978947 291.392567 
L 278.021053 287.280779 
L 282.063158 282.975185 
L 286.105263 277.78086 
L 290.147368 272.585151 
L 294.189474 267.00349 
L 298.231579 261.289304 
L 302.273684 254.269446 
L 306.315789 249.102166 
L 310.357895 244.053922 
L 314.4 238.451718 
L 318.442105 232.571945 
L 322.484211 226.744878 
L 326.526316 220.079296 
L 330.568421 214.560092 
L 334.610526 209.361064 
L 338.652632 204.475087 
L 342.694737 200.40307 
L 346.736842 194.879163 
L 350.778947 188.198156 
L 354.821053 182.142975 
L 358.863158 176.777807 
L 362.905263 170.994039 
L 366.947368 166.091462 
L 370.989474 160.774987 
L 375.031579 155.598715 
L 379.073684 149.724683 
L 383.115789 142.681378 
L 387.157895 136.730847 
L 391.2 131.562045 
L 395.242105 126.700346 
L 399.284211 121.538115 
L 403.326316 116.17848 
L 407.368421 111.823707 
L 411.410526 105.810926 
L 415.452632 100.030892 
L 419.494737 94.539978 
L 423.536842 89.260716 
L 427.578947 83.75251 
L 431.621053 77.344161 
L 435.663158 71.093029 
L 439.705263 64.705707 
L 443.747368 58.761124 
L 447.789474 53.387518 
L 451.831579 48.144291 
L 455.873684 42.303045 
L 459.915789 36.419468 
L 463.957895 29.838546 
L 468 22.909091 
" style="fill:none;stroke:#1f77b4;stroke-linecap:square;stroke-width:1.5;"/>
   </g>
   <g id="line2d_2">
    <path clip-path="url(#p3eb0518c2f)" d="M 7.2 337.089733 
L 11.242105 337.089664 
L 15.284211 337.089111 
L 19.326316 337.088004 
L 23.368421 337.087036 
L 27.410526 337.085237 
L 31.452632 337.081848 
L 35.494737 337.08171 
L 39.536842 337.079081 
L 43.578947 337.076176 
L 47.621053 337.072995 
L 51.663158 337.065871 
L 55.705263 337.061444 
L 59.747368 337.056879 
L 63.789474 337.051899 
L 67.831579 337.047057 
L 71.873684 337.041178 
L 75.915789 337.03516 
L 79.957895 337.028244 
L 84 337.020843 
L 88.042105 337.013926 
L 92.084211 337.01358 
L 96.126316 336.996081 
L 100.168421 336.985567 
L 104.210526 336.975676 
L 108.252632 336.968483 
L 112.294737 336.961705 
L 116.336842 336.95209 
L 120.378947 336.944136 
L 124.421053 336.93549 
L 128.463158 336.935214 
L 132.505263 336.920896 
L 136.547368 336.920135 
L 140.589474 336.909068 
L 144.631579 336.903604 
L 148.673684 336.899316 
L 152.715789 336.896272 
L 156.757895 336.892261 
L 160.8 336.887488 
L 164.842105 336.883684 
L 168.884211 336.877528 
L 172.926316 336.87234 
L 176.968421 336.865839 
L 181.010526 336.859337 
L 185.052632 336.85159 
L 189.094737 336.844812 
L 193.136842 336.827866 
L 197.178947 336.814517 
L 201.221053 336.796118 
L 205.263158 336.771702 
L 209.305263 336.764439 
L 213.347368 336.717129 
L 217.389474 336.688425 
L 221.431579 336.645472 
L 225.473684 336.598023 
L 229.515789 336.544142 
L 233.557895 336.486871 
L 237.6 336.408435 
L 241.642105 336.309388 
L 245.684211 336.193602 
L 249.726316 336.079476 
L 253.768421 335.949856 
L 257.810526 335.80336 
L 261.852632 335.625877 
L 265.894737 335.432969 
L 269.936842 335.209697 
L 273.978947 334.970793 
L 278.021053 334.744409 
L 282.063158 334.491464 
L 286.105263 334.178482 
L 290.147368 333.853258 
L 294.189474 333.426219 
L 298.231579 333.024772 
L 302.273684 332.622287 
L 306.315789 332.292498 
L 310.357895 331.93345 
L 314.4 331.428529 
L 318.442105 330.980809 
L 322.484211 330.488546 
L 326.526316 329.999533 
L 330.568421 329.58612 
L 334.610526 329.199682 
L 338.652632 328.826663 
L 342.694737 328.376938 
L 346.736842 327.81025 
L 350.778947 327.144584 
L 354.821053 326.451459 
L 358.863158 326.058035 
L 362.905263 325.675263 
L 366.947368 325.333439 
L 370.989474 324.877142 
L 375.031579 324.428731 
L 379.073684 323.889779 
L 383.115789 323.454509 
L 387.157895 323.060602 
L 391.2 322.804821 
L 395.242105 322.485061 
L 399.284211 322.071025 
L 403.326316 321.345806 
L 407.368421 320.948094 
L 411.410526 320.584136 
L 415.452632 320.227371 
L 419.494737 319.974081 
L 423.536842 319.692777 
L 427.578947 319.298385 
L 431.621053 318.842435 
L 435.663158 318.445691 
L 439.705263 318.07696 
L 443.747368 317.771725 
L 447.789474 317.536695 
L 451.831579 317.28624 
L 455.873684 316.896551 
L 459.915789 316.534599 
L 463.957895 316.173477 
L 468 315.810487 
" style="fill:none;stroke:#ff7f0e;stroke-linecap:square;stroke-width:1.5;"/>
   </g>
   <g id="line2d_3">
    <path clip-path="url(#p3eb0518c2f)" d="M 7.2 337.088972 
L 11.242105 337.088834 
L 15.284211 337.088419 
L 19.326316 337.088212 
L 23.368421 337.087312 
L 27.410526 337.08669 
L 31.452632 337.083508 
L 35.494737 337.082194 
L 39.536842 337.081018 
L 43.578947 337.075554 
L 47.621053 337.071266 
L 51.663158 337.058262 
L 55.705263 337.047818 
L 59.747368 337.031979 
L 63.789474 337.013165 
L 67.831579 336.988057 
L 71.873684 336.951814 
L 75.915789 336.909967 
L 79.957895 336.86653 
L 84 336.817975 
L 88.042105 336.766999 
L 92.084211 336.734698 
L 96.126316 336.655501 
L 100.168421 336.533559 
L 104.210526 336.441082 
L 108.252632 336.339407 
L 112.294737 336.220577 
L 116.336842 336.09822 
L 120.378947 335.975863 
L 124.421053 335.833655 
L 128.463158 335.784339 
L 132.505263 335.507947 
L 136.547368 335.47281 
L 140.589474 335.346026 
L 144.631579 335.160796 
L 148.673684 334.98933 
L 152.715789 334.789229 
L 156.757895 334.551709 
L 160.8 334.339296 
L 164.842105 334.136359 
L 168.884211 333.936742 
L 172.926316 333.75504 
L 176.968421 333.55155 
L 181.010526 333.369917 
L 185.052632 333.226809 
L 189.094737 333.054375 
L 193.136842 332.892801 
L 197.178947 332.767124 
L 201.221053 332.636259 
L 205.263158 332.456493 
L 209.305263 332.365123 
L 213.347368 332.231838 
L 217.389474 332.067704 
L 221.431579 331.831844 
L 225.473684 331.689774 
L 229.515789 331.499426 
L 233.557895 331.328375 
L 237.6 331.214318 
L 241.642105 331.045481 
L 245.684211 330.749929 
L 249.726316 330.364875 
L 253.768421 330.107918 
L 257.810526 329.641661 
L 261.852632 329.222162 
L 265.894737 328.64254 
L 269.936842 328.036289 
L 273.978947 327.448367 
L 278.021053 326.779727 
L 282.063158 325.70874 
L 286.105263 324.777195 
L 290.147368 323.729795 
L 294.189474 322.547588 
L 298.231579 321.473212 
L 302.273684 320.065243 
L 306.315789 319.106584 
L 310.357895 317.965117 
L 314.4 316.336988 
L 318.442105 314.358319 
L 322.484211 312.607419 
L 326.526316 311.077369 
L 330.568421 309.278051 
L 334.610526 307.921543 
L 338.652632 306.05866 
L 342.694737 304.287562 
L 346.736842 301.745111 
L 350.778947 299.594839 
L 354.821053 297.780166 
L 358.863158 296.121811 
L 362.905263 293.937231 
L 366.947368 292.426964 
L 370.989474 290.069673 
L 375.031579 288.003301 
L 379.073684 286.011836 
L 383.115789 282.2122 
L 387.157895 280.603023 
L 391.2 277.210506 
L 395.242105 275.257637 
L 399.284211 272.858155 
L 403.326316 269.810575 
L 407.368421 266.903197 
L 411.410526 264.235138 
L 415.452632 261.483318 
L 419.494737 259.261388 
L 423.536842 256.668445 
L 427.578947 254.170952 
L 431.621053 250.949071 
L 435.663158 248.22886 
L 439.705263 245.648297 
L 443.747368 241.942729 
L 447.789474 239.635585 
L 451.831579 236.368883 
L 455.873684 233.795514 
L 459.915789 229.982114 
L 463.957895 227.260658 
L 468 223.859426 
" style="fill:none;stroke:#2ca02c;stroke-linecap:square;stroke-width:1.5;"/>
   </g>
   <g id="line2d_4">
    <path clip-path="url(#p3eb0518c2f)" d="M 7.2 337.063311 
L 11.242105 337.063311 
L 15.284211 337.05674 
L 19.326316 337.043253 
L 23.368421 337.021603 
L 27.410526 336.992138 
L 31.452632 336.8491 
L 35.494737 336.824892 
L 39.536842 336.722662 
L 43.578947 336.655778 
L 47.621053 336.295831 
L 51.663158 335.987483 
L 55.705263 335.788351 
L 59.747368 335.531325 
L 63.789474 335.296156 
L 67.831579 335.106015 
L 71.873684 334.900934 
L 75.915789 334.760041 
L 79.957895 334.600818 
L 84 334.476109 
L 88.042105 334.392901 
L 92.084211 334.396567 
L 96.126316 333.445516 
L 100.168421 333.127209 
L 104.210526 333.081212 
L 108.252632 333.038329 
L 112.294737 333.02325 
L 116.336842 333.025325 
L 120.378947 333.120845 
L 124.421053 333.233104 
L 128.463158 333.238153 
L 132.505263 333.407405 
L 136.547368 333.416604 
L 140.589474 333.513992 
L 144.631579 333.64624 
L 148.673684 333.754072 
L 152.715789 333.863218 
L 156.757895 334.010129 
L 160.8 334.096657 
L 164.842105 334.140302 
L 168.884211 334.212028 
L 172.926316 334.223579 
L 176.968421 334.27587 
L 181.010526 334.272965 
L 185.052632 334.153098 
L 189.094737 334.053151 
L 193.136842 333.955072 
L 197.178947 333.834928 
L 201.221053 333.638355 
L 205.263158 333.338791 
L 209.305263 333.266027 
L 213.347368 332.281154 
L 217.389474 331.719654 
L 221.431579 331.213557 
L 225.473684 330.427886 
L 229.515789 329.591584 
L 233.557895 328.592394 
L 237.6 326.862174 
L 241.642105 325.092806 
L 245.684211 323.264368 
L 249.726316 321.510563 
L 253.768421 319.050144 
L 257.810526 316.918408 
L 261.852632 314.08248 
L 265.894737 310.566845 
L 269.936842 306.990413 
L 273.978947 303.155225 
L 278.021053 299.938462 
L 282.063158 296.956798 
L 286.105263 293.007 
L 290.147368 289.183917 
L 294.189474 285.211501 
L 298.231579 280.973138 
L 302.273684 275.763734 
L 306.315789 271.884902 
L 310.357895 268.337173 
L 314.4 264.868019 
L 318.442105 261.414635 
L 322.484211 257.830732 
L 326.526316 253.184212 
L 330.568421 249.877739 
L 334.610526 246.421657 
L 338.652632 243.771581 
L 342.694737 241.920388 
L 346.736842 239.50562 
L 350.778947 235.640552 
L 354.821053 232.093169 
L 358.863158 228.77978 
L 362.905263 225.563362 
L 366.947368 222.512877 
L 370.989474 220.00999 
L 375.031579 217.348502 
L 379.073684 214.004886 
L 383.115789 211.196487 
L 387.157895 207.249041 
L 391.2 205.728536 
L 395.242105 203.139466 
L 399.284211 200.790753 
L 403.326316 199.203917 
L 407.368421 198.154234 
L 411.410526 195.17347 
L 415.452632 192.502022 
L 419.494737 189.486328 
L 423.536842 187.081312 
L 427.578947 184.46499 
L 431.621053 181.734473 
L 435.663158 178.600296 
L 439.705263 175.162267 
L 443.747368 173.228488 
L 447.789474 170.397056 
L 451.831579 168.670986 
L 455.873684 165.792797 
L 459.915789 164.084573 
L 463.957895 160.58623 
L 468 157.420996 
" style="fill:none;stroke:#d62728;stroke-linecap:square;stroke-width:1.5;"/>
   </g>
   <g id="line2d_5">
    <path clip-path="url(#p3eb0518c2f)" d="M 7.2 337.090909 
L 11.242105 337.084338 
L 15.284211 337.071127 
L 19.326316 337.056602 
L 23.368421 337.043945 
L 27.410526 337.03516 
L 31.452632 336.907754 
L 35.494737 337.050654 
L 39.536842 336.947802 
L 43.578947 336.974501 
L 47.621053 336.944828 
L 51.663158 336.762434 
L 55.705263 336.876906 
L 59.747368 336.813548 
L 63.789474 336.831947 
L 67.831579 336.870819 
L 71.873684 336.847924 
L 75.915789 336.902152 
L 79.957895 336.881332 
L 84 336.910244 
L 88.042105 336.949808 
L 92.084211 337.061928 
L 96.126316 336.043163 
L 100.168421 336.640215 
L 104.210526 336.942545 
L 108.252632 336.939156 
L 112.294737 336.950223 
L 116.336842 336.961013 
L 120.378947 337.056256 
L 124.421053 337.052314 
L 128.463158 337.046504 
L 132.505263 336.969451 
L 136.547368 337.064211 
L 140.589474 337.050792 
L 144.631579 337.032809 
L 148.673684 337.023471 
L 152.715789 336.997187 
L 156.757895 336.996772 
L 160.8 336.96039 
L 164.842105 336.928643 
L 168.884211 336.957485 
L 172.926316 336.915847 
L 176.968421 336.933899 
L 181.010526 336.900492 
L 185.052632 336.820742 
L 189.094737 336.812442 
L 193.136842 336.815208 
L 197.178947 336.832223 
L 201.221053 336.745488 
L 205.263158 336.58163 
L 209.305263 336.919789 
L 213.347368 335.926339 
L 217.389474 336.338438 
L 221.431579 336.305999 
L 225.473684 336.116826 
L 229.515789 336.010724 
L 233.557895 335.86402 
L 237.6 335.168474 
L 241.642105 335.054071 
L 245.684211 334.851411 
L 249.726316 334.827271 
L 253.768421 334.243984 
L 257.810526 334.297381 
L 261.852632 333.70766 
L 265.894737 332.802883 
L 269.936842 332.685506 
L 273.978947 332.429034 
L 278.021053 332.979121 
L 282.063158 332.785522 
L 286.105263 331.896792 
L 290.147368 331.895201 
L 294.189474 331.509455 
L 298.231579 331.376723 
L 302.273684 330.071052 
L 306.315789 331.923974 
L 310.357895 332.042942 
L 314.4 331.488705 
L 318.442105 331.211136 
L 322.484211 331.263842 
L 326.526316 330.425396 
L 330.568421 331.571705 
L 334.610526 331.891881 
L 338.652632 332.204932 
L 342.694737 333.018893 
L 346.736842 331.567002 
L 350.778947 330.409903 
L 354.821053 331.035728 
L 358.863158 331.725741 
L 362.905263 331.307141 
L 366.947368 332.188332 
L 370.989474 331.774435 
L 375.031579 331.914637 
L 379.073684 331.216877 
L 383.115789 330.047604 
L 387.157895 331.140378 
L 391.2 331.922107 
L 395.242105 332.22921 
L 399.284211 331.928678 
L 403.326316 331.731274 
L 407.368421 332.737243 
L 411.410526 331.078128 
L 415.452632 331.310876 
L 419.494737 331.599995 
L 423.536842 331.811647 
L 427.578947 331.582703 
L 431.621053 330.68256 
L 435.663158 330.839777 
L 439.705263 330.703587 
L 443.747368 331.146327 
L 447.789474 331.717303 
L 451.831579 331.847683 
L 455.873684 331.249663 
L 459.915789 331.207401 
L 463.957895 330.509988 
L 468 330.161454 
" style="fill:none;stroke:#9467bd;stroke-linecap:square;stroke-width:1.5;"/>
   </g>
   <g id="line2d_6">
    <path clip-path="url(#p3eb0518c2f)" d="M 7.2 337.090909 
L 11.242105 337.09084 
L 15.284211 337.090356 
L 19.326316 337.089802 
L 23.368421 337.089941 
L 27.410526 337.089111 
L 31.452632 337.08752 
L 35.494737 337.090771 
L 39.536842 337.088281 
L 43.578947 337.088004 
L 47.621053 337.087727 
L 51.663158 337.083785 
L 55.705263 337.086482 
L 59.747368 337.086344 
L 63.789474 337.085929 
L 67.831579 337.086067 
L 71.873684 337.08503 
L 75.915789 337.084892 
L 79.957895 337.083992 
L 84 337.083508 
L 88.042105 337.083992 
L 92.084211 337.090563 
L 96.126316 337.07341 
L 100.168421 337.080396 
L 104.210526 337.081018 
L 108.252632 337.083716 
L 112.294737 337.084131 
L 116.336842 337.081295 
L 120.378947 337.083093 
L 124.421053 337.082263 
L 128.463158 337.090632 
L 132.505263 337.076591 
L 136.547368 337.090148 
L 140.589474 337.079842 
L 144.631579 337.085445 
L 148.673684 337.086621 
L 152.715789 337.087866 
L 156.757895 337.086897 
L 160.8 337.086137 
L 164.842105 337.087105 
L 168.884211 337.084753 
L 172.926316 337.085722 
L 176.968421 337.084407 
L 181.010526 337.084407 
L 185.052632 337.083162 
L 189.094737 337.084131 
L 193.136842 337.073963 
L 197.178947 337.07756 
L 201.221053 337.072511 
L 205.263158 337.066286 
L 209.305263 337.083716 
L 213.347368 337.043668 
L 217.389474 337.062205 
L 221.431579 337.047956 
L 225.473684 337.04346 
L 229.515789 337.037028 
L 233.557895 337.033639 
L 237.6 337.012473 
L 241.642105 336.991862 
L 245.684211 336.975123 
L 249.726316 336.976714 
L 253.768421 336.96129 
L 257.810526 336.943859 
L 261.852632 336.914118 
L 265.894737 336.898002 
L 269.936842 336.867637 
L 273.978947 336.852005 
L 278.021053 336.864525 
L 282.063158 336.837964 
L 286.105263 336.777927 
L 290.147368 336.765685 
L 294.189474 336.66387 
L 298.231579 336.689462 
L 302.273684 336.688425 
L 306.315789 336.761119 
L 310.357895 336.731862 
L 314.4 336.585988 
L 318.442105 336.643189 
L 322.484211 336.598646 
L 326.526316 336.601896 
L 330.568421 336.677496 
L 334.610526 336.704471 
L 338.652632 336.71789 
L 342.694737 336.641183 
L 346.736842 336.524222 
L 350.778947 336.425243 
L 354.821053 336.397784 
L 358.863158 336.697486 
L 362.905263 336.708137 
L 366.947368 336.749084 
L 370.989474 336.634612 
L 375.031579 336.642498 
L 379.073684 336.551958 
L 383.115789 336.655639 
L 387.157895 336.697001 
L 391.2 336.835128 
L 395.242105 336.771149 
L 399.284211 336.676874 
L 403.326316 336.36569 
L 407.368421 336.693197 
L 411.410526 336.726951 
L 415.452632 336.734144 
L 419.494737 336.837618 
L 423.536842 336.809606 
L 427.578947 336.696517 
L 431.621053 336.634958 
L 435.663158 336.694166 
L 439.705263 336.722178 
L 443.747368 336.785674 
L 447.789474 336.855879 
L 451.831579 336.840454 
L 455.873684 336.701221 
L 459.915789 336.728957 
L 463.957895 336.729787 
L 468 336.727919 
" style="fill:none;stroke:#8c564b;stroke-linecap:square;stroke-width:1.5;"/>
   </g>
   <g id="line2d_7">
    <path clip-path="url(#p3eb0518c2f)" d="M 7.2 337.090909 
L 11.242105 337.090771 
L 15.284211 337.090494 
L 19.326316 337.090702 
L 23.368421 337.09001 
L 27.410526 337.090287 
L 31.452632 337.087727 
L 35.494737 337.089595 
L 39.536842 337.089733 
L 43.578947 337.085445 
L 47.621053 337.086621 
L 51.663158 337.077906 
L 55.705263 337.080465 
L 59.747368 337.07507 
L 63.789474 337.072096 
L 67.831579 337.065801 
L 71.873684 337.054665 
L 75.915789 337.049063 
L 79.957895 337.047472 
L 84 337.042354 
L 88.042105 337.039933 
L 92.084211 337.058608 
L 96.126316 337.011713 
L 100.168421 336.968967 
L 104.210526 336.998432 
L 108.252632 336.989233 
L 112.294737 336.97208 
L 116.336842 336.968552 
L 120.378947 336.968552 
L 124.421053 336.948701 
L 128.463158 337.041593 
L 132.505263 336.814517 
L 136.547368 337.055772 
L 140.589474 336.964125 
L 144.631579 336.905679 
L 148.673684 336.919443 
L 152.715789 336.890808 
L 156.757895 336.853389 
L 160.8 336.878496 
L 164.842105 336.887972 
L 168.884211 336.891292 
L 172.926316 336.909207 
L 176.968421 336.887419 
L 181.010526 336.909276 
L 185.052632 336.947802 
L 189.094737 336.918475 
L 193.136842 336.929334 
L 197.178947 336.965232 
L 201.221053 336.960183 
L 205.263158 336.905748 
L 209.305263 336.999539 
L 213.347368 336.957624 
L 217.389474 336.926775 
L 221.431579 336.855049 
L 225.473684 336.948839 
L 229.515789 336.900561 
L 233.557895 336.919858 
L 237.6 336.976852 
L 241.642105 336.922072 
L 245.684211 336.795357 
L 249.726316 336.70544 
L 253.768421 336.833953 
L 257.810526 336.585435 
L 261.852632 336.712011 
L 265.894737 336.511287 
L 269.936842 336.484658 
L 273.978947 336.502987 
L 278.021053 336.422269 
L 282.063158 336.019923 
L 286.105263 336.159364 
L 290.147368 336.043509 
L 294.189474 335.908702 
L 298.231579 336.016534 
L 302.273684 335.68294 
L 306.315789 336.13225 
L 310.357895 335.949441 
L 314.4 335.46278 
L 318.442105 335.112241 
L 322.484211 335.340008 
L 326.526316 335.56086 
L 330.568421 335.291591 
L 334.610526 335.7344 
L 338.652632 335.228027 
L 342.694737 335.319812 
L 346.736842 334.548458 
L 350.778947 334.940636 
L 354.821053 335.276236 
L 358.863158 335.432554 
L 362.905263 334.90633 
L 366.947368 335.580641 
L 370.989474 334.733619 
L 375.031579 335.024536 
L 379.073684 335.099445 
L 383.115789 333.291273 
L 387.157895 335.481732 
L 391.2 333.698392 
L 395.242105 335.13804 
L 399.284211 334.691427 
L 403.326316 334.043329 
L 407.368421 334.183531 
L 411.410526 334.42285 
L 415.452632 334.339089 
L 419.494737 334.868979 
L 423.536842 334.497966 
L 427.578947 334.593417 
L 431.621053 333.869028 
L 435.663158 334.370698 
L 439.705263 334.510347 
L 443.747368 333.385341 
L 447.789474 334.783765 
L 451.831579 333.824207 
L 455.873684 334.51754 
L 459.915789 333.277509 
L 463.957895 334.369453 
L 468 333.689677 
" style="fill:none;stroke:#e377c2;stroke-linecap:square;stroke-width:1.5;"/>
   </g>
   <g id="legend_1">
    <g id="patch_2">
     <path d="M 14.2 118.78125 
L 122.3 118.78125 
Q 124.3 118.78125 124.3 116.78125 
L 124.3 14.2 
Q 124.3 12.2 122.3 12.2 
L 14.2 12.2 
Q 12.2 12.2 12.2 14.2 
L 12.2 116.78125 
Q 12.2 118.78125 14.2 118.78125 
z
" style="fill:#ffffff;opacity:0.8;stroke:#cccccc;stroke-linejoin:miter;"/>
    </g>
    <g id="line2d_8">
     <path d="M 16.2 20.298437 
L 36.2 20.298437 
" style="fill:none;stroke:#1f77b4;stroke-linecap:square;stroke-width:1.5;"/>
    </g>
    <g id="line2d_9"/>
    <g id="text_1">
     <!-- confirmed -->
     <defs>
      <path d="M 48.78125 52.59375 
L 48.78125 44.1875 
Q 44.96875 46.296875 41.140625 47.34375 
Q 37.3125 48.390625 33.40625 48.390625 
Q 24.65625 48.390625 19.8125 42.84375 
Q 14.984375 37.3125 14.984375 27.296875 
Q 14.984375 17.28125 19.8125 11.734375 
Q 24.65625 6.203125 33.40625 6.203125 
Q 37.3125 6.203125 41.140625 7.25 
Q 44.96875 8.296875 48.78125 10.40625 
L 48.78125 2.09375 
Q 45.015625 0.34375 40.984375 -0.53125 
Q 36.96875 -1.421875 32.421875 -1.421875 
Q 20.0625 -1.421875 12.78125 6.34375 
Q 5.515625 14.109375 5.515625 27.296875 
Q 5.515625 40.671875 12.859375 48.328125 
Q 20.21875 56 33.015625 56 
Q 37.15625 56 41.109375 55.140625 
Q 45.0625 54.296875 48.78125 52.59375 
z
" id="DejaVuSans-99"/>
      <path d="M 30.609375 48.390625 
Q 23.390625 48.390625 19.1875 42.75 
Q 14.984375 37.109375 14.984375 27.296875 
Q 14.984375 17.484375 19.15625 11.84375 
Q 23.34375 6.203125 30.609375 6.203125 
Q 37.796875 6.203125 41.984375 11.859375 
Q 46.1875 17.53125 46.1875 27.296875 
Q 46.1875 37.015625 41.984375 42.703125 
Q 37.796875 48.390625 30.609375 48.390625 
z
M 30.609375 56 
Q 42.328125 56 49.015625 48.375 
Q 55.71875 40.765625 55.71875 27.296875 
Q 55.71875 13.875 49.015625 6.21875 
Q 42.328125 -1.421875 30.609375 -1.421875 
Q 18.84375 -1.421875 12.171875 6.21875 
Q 5.515625 13.875 5.515625 27.296875 
Q 5.515625 40.765625 12.171875 48.375 
Q 18.84375 56 30.609375 56 
z
" id="DejaVuSans-111"/>
      <path d="M 54.890625 33.015625 
L 54.890625 0 
L 45.90625 0 
L 45.90625 32.71875 
Q 45.90625 40.484375 42.875 44.328125 
Q 39.84375 48.1875 33.796875 48.1875 
Q 26.515625 48.1875 22.3125 43.546875 
Q 18.109375 38.921875 18.109375 30.90625 
L 18.109375 0 
L 9.078125 0 
L 9.078125 54.6875 
L 18.109375 54.6875 
L 18.109375 46.1875 
Q 21.34375 51.125 25.703125 53.5625 
Q 30.078125 56 35.796875 56 
Q 45.21875 56 50.046875 50.171875 
Q 54.890625 44.34375 54.890625 33.015625 
z
" id="DejaVuSans-110"/>
      <path d="M 37.109375 75.984375 
L 37.109375 68.5 
L 28.515625 68.5 
Q 23.6875 68.5 21.796875 66.546875 
Q 19.921875 64.59375 19.921875 59.515625 
L 19.921875 54.6875 
L 34.71875 54.6875 
L 34.71875 47.703125 
L 19.921875 47.703125 
L 19.921875 0 
L 10.890625 0 
L 10.890625 47.703125 
L 2.296875 47.703125 
L 2.296875 54.6875 
L 10.890625 54.6875 
L 10.890625 58.5 
Q 10.890625 67.625 15.140625 71.796875 
Q 19.390625 75.984375 28.609375 75.984375 
z
" id="DejaVuSans-102"/>
      <path d="M 9.421875 54.6875 
L 18.40625 54.6875 
L 18.40625 0 
L 9.421875 0 
z
M 9.421875 75.984375 
L 18.40625 75.984375 
L 18.40625 64.59375 
L 9.421875 64.59375 
z
" id="DejaVuSans-105"/>
      <path d="M 41.109375 46.296875 
Q 39.59375 47.171875 37.8125 47.578125 
Q 36.03125 48 33.890625 48 
Q 26.265625 48 22.1875 43.046875 
Q 18.109375 38.09375 18.109375 28.8125 
L 18.109375 0 
L 9.078125 0 
L 9.078125 54.6875 
L 18.109375 54.6875 
L 18.109375 46.1875 
Q 20.953125 51.171875 25.484375 53.578125 
Q 30.03125 56 36.53125 56 
Q 37.453125 56 38.578125 55.875 
Q 39.703125 55.765625 41.0625 55.515625 
z
" id="DejaVuSans-114"/>
      <path d="M 52 44.1875 
Q 55.375 50.25 60.0625 53.125 
Q 64.75 56 71.09375 56 
Q 79.640625 56 84.28125 50.015625 
Q 88.921875 44.046875 88.921875 33.015625 
L 88.921875 0 
L 79.890625 0 
L 79.890625 32.71875 
Q 79.890625 40.578125 77.09375 44.375 
Q 74.3125 48.1875 68.609375 48.1875 
Q 61.625 48.1875 57.5625 43.546875 
Q 53.515625 38.921875 53.515625 30.90625 
L 53.515625 0 
L 44.484375 0 
L 44.484375 32.71875 
Q 44.484375 40.625 41.703125 44.40625 
Q 38.921875 48.1875 33.109375 48.1875 
Q 26.21875 48.1875 22.15625 43.53125 
Q 18.109375 38.875 18.109375 30.90625 
L 18.109375 0 
L 9.078125 0 
L 9.078125 54.6875 
L 18.109375 54.6875 
L 18.109375 46.1875 
Q 21.1875 51.21875 25.484375 53.609375 
Q 29.78125 56 35.6875 56 
Q 41.65625 56 45.828125 52.96875 
Q 50 49.953125 52 44.1875 
z
" id="DejaVuSans-109"/>
      <path d="M 56.203125 29.59375 
L 56.203125 25.203125 
L 14.890625 25.203125 
Q 15.484375 15.921875 20.484375 11.0625 
Q 25.484375 6.203125 34.421875 6.203125 
Q 39.59375 6.203125 44.453125 7.46875 
Q 49.3125 8.734375 54.109375 11.28125 
L 54.109375 2.78125 
Q 49.265625 0.734375 44.1875 -0.34375 
Q 39.109375 -1.421875 33.890625 -1.421875 
Q 20.796875 -1.421875 13.15625 6.1875 
Q 5.515625 13.8125 5.515625 26.8125 
Q 5.515625 40.234375 12.765625 48.109375 
Q 20.015625 56 32.328125 56 
Q 43.359375 56 49.78125 48.890625 
Q 56.203125 41.796875 56.203125 29.59375 
z
M 47.21875 32.234375 
Q 47.125 39.59375 43.09375 43.984375 
Q 39.0625 48.390625 32.421875 48.390625 
Q 24.90625 48.390625 20.390625 44.140625 
Q 15.875 39.890625 15.1875 32.171875 
z
" id="DejaVuSans-101"/>
      <path d="M 45.40625 46.390625 
L 45.40625 75.984375 
L 54.390625 75.984375 
L 54.390625 0 
L 45.40625 0 
L 45.40625 8.203125 
Q 42.578125 3.328125 38.25 0.953125 
Q 33.9375 -1.421875 27.875 -1.421875 
Q 17.96875 -1.421875 11.734375 6.484375 
Q 5.515625 14.40625 5.515625 27.296875 
Q 5.515625 40.1875 11.734375 48.09375 
Q 17.96875 56 27.875 56 
Q 33.9375 56 38.25 53.625 
Q 42.578125 51.265625 45.40625 46.390625 
z
M 14.796875 27.296875 
Q 14.796875 17.390625 18.875 11.75 
Q 22.953125 6.109375 30.078125 6.109375 
Q 37.203125 6.109375 41.296875 11.75 
Q 45.40625 17.390625 45.40625 27.296875 
Q 45.40625 37.203125 41.296875 42.84375 
Q 37.203125 48.484375 30.078125 48.484375 
Q 22.953125 48.484375 18.875 42.84375 
Q 14.796875 37.203125 14.796875 27.296875 
z
" id="DejaVuSans-100"/>
     </defs>
     <g transform="translate(44.2 23.798437)scale(0.1 -0.1)">
      <use xlink:href="#DejaVuSans-99"/>
      <use x="54.980469" xlink:href="#DejaVuSans-111"/>
      <use x="116.162109" xlink:href="#DejaVuSans-110"/>
      <use x="179.541016" xlink:href="#DejaVuSans-102"/>
      <use x="214.746094" xlink:href="#DejaVuSans-105"/>
      <use x="242.529297" xlink:href="#DejaVuSans-114"/>
      <use x="281.892578" xlink:href="#DejaVuSans-109"/>
      <use x="379.304688" xlink:href="#DejaVuSans-101"/>
      <use x="440.828125" xlink:href="#DejaVuSans-100"/>
     </g>
    </g>
    <g id="line2d_10">
     <path d="M 16.2 34.976562 
L 36.2 34.976562 
" style="fill:none;stroke:#ff7f0e;stroke-linecap:square;stroke-width:1.5;"/>
    </g>
    <g id="line2d_11"/>
    <g id="text_2">
     <!-- deaths -->
     <defs>
      <path d="M 34.28125 27.484375 
Q 23.390625 27.484375 19.1875 25 
Q 14.984375 22.515625 14.984375 16.5 
Q 14.984375 11.71875 18.140625 8.90625 
Q 21.296875 6.109375 26.703125 6.109375 
Q 34.1875 6.109375 38.703125 11.40625 
Q 43.21875 16.703125 43.21875 25.484375 
L 43.21875 27.484375 
z
M 52.203125 31.203125 
L 52.203125 0 
L 43.21875 0 
L 43.21875 8.296875 
Q 40.140625 3.328125 35.546875 0.953125 
Q 30.953125 -1.421875 24.3125 -1.421875 
Q 15.921875 -1.421875 10.953125 3.296875 
Q 6 8.015625 6 15.921875 
Q 6 25.140625 12.171875 29.828125 
Q 18.359375 34.515625 30.609375 34.515625 
L 43.21875 34.515625 
L 43.21875 35.40625 
Q 43.21875 41.609375 39.140625 45 
Q 35.0625 48.390625 27.6875 48.390625 
Q 23 48.390625 18.546875 47.265625 
Q 14.109375 46.140625 10.015625 43.890625 
L 10.015625 52.203125 
Q 14.9375 54.109375 19.578125 55.046875 
Q 24.21875 56 28.609375 56 
Q 40.484375 56 46.34375 49.84375 
Q 52.203125 43.703125 52.203125 31.203125 
z
" id="DejaVuSans-97"/>
      <path d="M 18.3125 70.21875 
L 18.3125 54.6875 
L 36.8125 54.6875 
L 36.8125 47.703125 
L 18.3125 47.703125 
L 18.3125 18.015625 
Q 18.3125 11.328125 20.140625 9.421875 
Q 21.96875 7.515625 27.59375 7.515625 
L 36.8125 7.515625 
L 36.8125 0 
L 27.59375 0 
Q 17.1875 0 13.234375 3.875 
Q 9.28125 7.765625 9.28125 18.015625 
L 9.28125 47.703125 
L 2.6875 47.703125 
L 2.6875 54.6875 
L 9.28125 54.6875 
L 9.28125 70.21875 
z
" id="DejaVuSans-116"/>
      <path d="M 54.890625 33.015625 
L 54.890625 0 
L 45.90625 0 
L 45.90625 32.71875 
Q 45.90625 40.484375 42.875 44.328125 
Q 39.84375 48.1875 33.796875 48.1875 
Q 26.515625 48.1875 22.3125 43.546875 
Q 18.109375 38.921875 18.109375 30.90625 
L 18.109375 0 
L 9.078125 0 
L 9.078125 75.984375 
L 18.109375 75.984375 
L 18.109375 46.1875 
Q 21.34375 51.125 25.703125 53.5625 
Q 30.078125 56 35.796875 56 
Q 45.21875 56 50.046875 50.171875 
Q 54.890625 44.34375 54.890625 33.015625 
z
" id="DejaVuSans-104"/>
      <path d="M 44.28125 53.078125 
L 44.28125 44.578125 
Q 40.484375 46.53125 36.375 47.5 
Q 32.28125 48.484375 27.875 48.484375 
Q 21.1875 48.484375 17.84375 46.4375 
Q 14.5 44.390625 14.5 40.28125 
Q 14.5 37.15625 16.890625 35.375 
Q 19.28125 33.59375 26.515625 31.984375 
L 29.59375 31.296875 
Q 39.15625 29.25 43.1875 25.515625 
Q 47.21875 21.78125 47.21875 15.09375 
Q 47.21875 7.46875 41.1875 3.015625 
Q 35.15625 -1.421875 24.609375 -1.421875 
Q 20.21875 -1.421875 15.453125 -0.5625 
Q 10.6875 0.296875 5.421875 2 
L 5.421875 11.28125 
Q 10.40625 8.6875 15.234375 7.390625 
Q 20.0625 6.109375 24.8125 6.109375 
Q 31.15625 6.109375 34.5625 8.28125 
Q 37.984375 10.453125 37.984375 14.40625 
Q 37.984375 18.0625 35.515625 20.015625 
Q 33.0625 21.96875 24.703125 23.78125 
L 21.578125 24.515625 
Q 13.234375 26.265625 9.515625 29.90625 
Q 5.8125 33.546875 5.8125 39.890625 
Q 5.8125 47.609375 11.28125 51.796875 
Q 16.75 56 26.8125 56 
Q 31.78125 56 36.171875 55.265625 
Q 40.578125 54.546875 44.28125 53.078125 
z
" id="DejaVuSans-115"/>
     </defs>
     <g transform="translate(44.2 38.476562)scale(0.1 -0.1)">
      <use xlink:href="#DejaVuSans-100"/>
      <use x="63.476562" xlink:href="#DejaVuSans-101"/>
      <use x="125" xlink:href="#DejaVuSans-97"/>
      <use x="186.279297" xlink:href="#DejaVuSans-116"/>
      <use x="225.488281" xlink:href="#DejaVuSans-104"/>
      <use x="288.867188" xlink:href="#DejaVuSans-115"/>
     </g>
    </g>
    <g id="line2d_12">
     <path d="M 16.2 49.654687 
L 36.2 49.654687 
" style="fill:none;stroke:#2ca02c;stroke-linecap:square;stroke-width:1.5;"/>
    </g>
    <g id="line2d_13"/>
    <g id="text_3">
     <!-- recovered -->
     <defs>
      <path d="M 2.984375 54.6875 
L 12.5 54.6875 
L 29.59375 8.796875 
L 46.6875 54.6875 
L 56.203125 54.6875 
L 35.6875 0 
L 23.484375 0 
z
" id="DejaVuSans-118"/>
     </defs>
     <g transform="translate(44.2 53.154687)scale(0.1 -0.1)">
      <use xlink:href="#DejaVuSans-114"/>
      <use x="38.863281" xlink:href="#DejaVuSans-101"/>
      <use x="100.386719" xlink:href="#DejaVuSans-99"/>
      <use x="155.367188" xlink:href="#DejaVuSans-111"/>
      <use x="216.548828" xlink:href="#DejaVuSans-118"/>
      <use x="275.728516" xlink:href="#DejaVuSans-101"/>
      <use x="337.251953" xlink:href="#DejaVuSans-114"/>
      <use x="376.115234" xlink:href="#DejaVuSans-101"/>
      <use x="437.638672" xlink:href="#DejaVuSans-100"/>
     </g>
    </g>
    <g id="line2d_14">
     <path d="M 16.2 64.332812 
L 36.2 64.332812 
" style="fill:none;stroke:#d62728;stroke-linecap:square;stroke-width:1.5;"/>
    </g>
    <g id="line2d_15"/>
    <g id="text_4">
     <!-- active -->
     <g transform="translate(44.2 67.832812)scale(0.1 -0.1)">
      <use xlink:href="#DejaVuSans-97"/>
      <use x="61.279297" xlink:href="#DejaVuSans-99"/>
      <use x="116.259766" xlink:href="#DejaVuSans-116"/>
      <use x="155.46875" xlink:href="#DejaVuSans-105"/>
      <use x="183.251953" xlink:href="#DejaVuSans-118"/>
      <use x="242.431641" xlink:href="#DejaVuSans-101"/>
     </g>
    </g>
    <g id="line2d_16">
     <path d="M 16.2 79.010937 
L 36.2 79.010937 
" style="fill:none;stroke:#9467bd;stroke-linecap:square;stroke-width:1.5;"/>
    </g>
    <g id="line2d_17"/>
    <g id="text_5">
     <!-- new_confirmed -->
     <defs>
      <path d="M 4.203125 54.6875 
L 13.1875 54.6875 
L 24.421875 12.015625 
L 35.59375 54.6875 
L 46.1875 54.6875 
L 57.421875 12.015625 
L 68.609375 54.6875 
L 77.59375 54.6875 
L 63.28125 0 
L 52.6875 0 
L 40.921875 44.828125 
L 29.109375 0 
L 18.5 0 
z
" id="DejaVuSans-119"/>
      <path d="M 50.984375 -16.609375 
L 50.984375 -23.578125 
L -0.984375 -23.578125 
L -0.984375 -16.609375 
z
" id="DejaVuSans-95"/>
     </defs>
     <g transform="translate(44.2 82.510937)scale(0.1 -0.1)">
      <use xlink:href="#DejaVuSans-110"/>
      <use x="63.378906" xlink:href="#DejaVuSans-101"/>
      <use x="124.902344" xlink:href="#DejaVuSans-119"/>
      <use x="206.689453" xlink:href="#DejaVuSans-95"/>
      <use x="256.689453" xlink:href="#DejaVuSans-99"/>
      <use x="311.669922" xlink:href="#DejaVuSans-111"/>
      <use x="372.851562" xlink:href="#DejaVuSans-110"/>
      <use x="436.230469" xlink:href="#DejaVuSans-102"/>
      <use x="471.435547" xlink:href="#DejaVuSans-105"/>
      <use x="499.21875" xlink:href="#DejaVuSans-114"/>
      <use x="538.582031" xlink:href="#DejaVuSans-109"/>
      <use x="635.994141" xlink:href="#DejaVuSans-101"/>
      <use x="697.517578" xlink:href="#DejaVuSans-100"/>
     </g>
    </g>
    <g id="line2d_18">
     <path d="M 16.2 93.967187 
L 36.2 93.967187 
" style="fill:none;stroke:#8c564b;stroke-linecap:square;stroke-width:1.5;"/>
    </g>
    <g id="line2d_19"/>
    <g id="text_6">
     <!-- new_deaths -->
     <g transform="translate(44.2 97.467187)scale(0.1 -0.1)">
      <use xlink:href="#DejaVuSans-110"/>
      <use x="63.378906" xlink:href="#DejaVuSans-101"/>
      <use x="124.902344" xlink:href="#DejaVuSans-119"/>
      <use x="206.689453" xlink:href="#DejaVuSans-95"/>
      <use x="256.689453" xlink:href="#DejaVuSans-100"/>
      <use x="320.166016" xlink:href="#DejaVuSans-101"/>
      <use x="381.689453" xlink:href="#DejaVuSans-97"/>
      <use x="442.96875" xlink:href="#DejaVuSans-116"/>
      <use x="482.177734" xlink:href="#DejaVuSans-104"/>
      <use x="545.556641" xlink:href="#DejaVuSans-115"/>
     </g>
    </g>
    <g id="line2d_20">
     <path d="M 16.2 108.923437 
L 36.2 108.923437 
" style="fill:none;stroke:#e377c2;stroke-linecap:square;stroke-width:1.5;"/>
    </g>
    <g id="line2d_21"/>
    <g id="text_7">
     <!-- new_recovered -->
     <g transform="translate(44.2 112.423437)scale(0.1 -0.1)">
      <use xlink:href="#DejaVuSans-110"/>
      <use x="63.378906" xlink:href="#DejaVuSans-101"/>
      <use x="124.902344" xlink:href="#DejaVuSans-119"/>
      <use x="206.689453" xlink:href="#DejaVuSans-95"/>
      <use x="256.689453" xlink:href="#DejaVuSans-114"/>
      <use x="295.552734" xlink:href="#DejaVuSans-101"/>
      <use x="357.076172" xlink:href="#DejaVuSans-99"/>
      <use x="412.056641" xlink:href="#DejaVuSans-111"/>
      <use x="473.238281" xlink:href="#DejaVuSans-118"/>
      <use x="532.417969" xlink:href="#DejaVuSans-101"/>
      <use x="593.941406" xlink:href="#DejaVuSans-114"/>
      <use x="632.804688" xlink:href="#DejaVuSans-101"/>
      <use x="694.328125" xlink:href="#DejaVuSans-100"/>
     </g>
    </g>
   </g>
  </g>
 </g>
 <defs>
  <clipPath id="p3eb0518c2f">
   <rect height="345.6" width="460.8" x="7.2" y="7.2"/>
  </clipPath>
 </defs>
</svg>
